<?xml version="1.0" encoding="utf-8"?>
<svg version="1.1" xmlns:cc="http://creativecommons.org/ns#" xmlns:dc="http://purl.org/dc/elements/1.1/" xmlns:rdf="http://www.w3.org/1999/02/22-rdf-syntax-ns#" xmlns="http://www.w3.org/2000/svg" xmlns:xlink="http://www.w3.org/1999/xlink" x="0px" y="0px" viewBox="0 0 1024 768" xml:space="preserve">
<rect fill="#443e39" width="1024" height="768" />
<path fill="#eeeae1" d="m569.29 163.12c-0.59 0.01-1.25 0.02-1.47 0.03s-0.82 0.06-1.33 0.11c-0.52 0.04-1.36 0.15-1.87 0.23-0.52 0.08-1.29 0.22-1.73 0.31s-1.14 0.26-1.55 0.37c-0.42 0.11-1.16 0.33-1.65 0.48-0.48 0.16-1.14 0.39-1.45 0.5-0.31 0.12-0.93 0.38-1.38 0.56-0.44 0.19-1.14 0.52-1.55 0.72-0.41 0.21-1.07 0.56-1.46 0.78s-1.03 0.6-1.42 0.85-1.04 0.68-1.44 0.97c-0.41 0.29-1.02 0.75-1.37 1.03-0.34 0.27-0.91 0.75-1.26 1.07-0.36 0.31-1.03 0.95-1.5 1.41-0.46 0.47-1.16 1.22-1.55 1.67s-0.97 1.18-1.3 1.62-0.86 1.19-1.18 1.68c-0.32 0.48-0.8 1.26-1.07 1.72-0.26 0.47-0.65 1.19-0.85 1.6-0.21 0.42-0.53 1.12-0.72 1.56s-0.44 1.06-0.56 1.38c-0.12 0.31-0.36 1.01-0.53 1.54-0.18 0.54-0.44 1.47-0.58 2.07-0.15 0.6-0.27 1.12-0.28 1.15-0.01 0.04-0.48 0.08-1.4 0.1-0.76 0.02-1.75 0.08-2.2 0.12-0.45 0.05-1.13 0.12-1.5 0.18-0.38 0.05-1.08 0.16-1.56 0.26-0.48 0.09-1.34 0.28-1.9 0.43-0.56 0.14-1.47 0.4-2.01 0.58-0.55 0.18-1.38 0.48-1.84 0.67-0.47 0.19-1.2 0.5-1.62 0.69-0.41 0.19-1.14 0.55-1.61 0.81-0.47 0.25-1.19 0.66-1.59 0.91-0.41 0.24-1.02 0.64-1.36 0.88-0.34 0.23-0.88 0.62-1.19 0.85s-0.78 0.61-1.05 0.82c-0.26 0.22-0.8 0.68-1.19 1.03s-1.05 0.99-1.47 1.43c-0.42 0.43-1.03 1.09-1.35 1.46s-0.8 0.96-1.06 1.3c-0.27 0.35-0.79 1.07-1.16 1.62-0.37 0.54-0.88 1.35-1.13 1.78-0.26 0.44-0.65 1.17-0.88 1.62s-0.57 1.17-0.76 1.59c-0.18 0.42-0.46 1.08-0.61 1.47-0.14 0.39-0.34 0.92-0.43 1.19-0.09 0.26-0.29 0.92-0.44 1.46-0.16 0.54-0.37 1.39-0.48 1.9s-0.26 1.32-0.34 1.8-0.18 1.24-0.23 1.7c-0.06 0.51-0.11 1.54-0.13 2.75s0 2.26 0.04 2.8c0.03 0.48 0.12 1.29 0.18 1.78 0.06 0.5 0.18 1.25 0.25 1.68 0.08 0.42 0.22 1.11 0.32 1.53 0.09 0.42 0.31 1.23 0.48 1.81s0.48 1.49 0.68 2.03c0.2 0.55 0.52 1.33 0.7 1.74s0.5 1.08 0.7 1.49c0.2 0.4 0.57 1.08 0.8 1.49 0.24 0.42 0.78 1.27 1.19 1.89 0.42 0.63 0.98 1.42 1.25 1.76 0.26 0.34 0.73 0.92 1.04 1.28 0.31 0.35 0.85 0.95 1.2 1.32 0.36 0.37 0.97 0.97 1.35 1.33 0.39 0.35 0.99 0.88 1.33 1.17 0.35 0.28 0.89 0.71 1.2 0.94 0.31 0.24 0.85 0.62 1.19 0.86 0.34 0.23 0.95 0.63 1.36 0.88 0.4 0.24 1.12 0.65 1.59 0.91 0.47 0.25 1.19 0.61 1.59 0.79s1.06 0.47 1.47 0.63c0.4 0.17 1.05 0.41 1.43 0.55s1.04 0.35 1.47 0.47 1.05 0.29 1.37 0.37c0.33 0.09 0.89 0.21 1.25 0.29 0.36 0.07 0.9 0.17 1.19 0.22 0.3 0.05 0.83 0.13 1.19 0.17 0.36 0.05 0.99 0.12 1.39 0.16 0.45 0.04 1.5 0.07 2.69 0.07 1.41-0.01 2.22-0.03 2.89-0.1 0.52-0.06 1.29-0.15 1.73-0.21 0.43-0.07 1.11-0.18 1.5-0.26s1.17-0.26 1.73-0.4 1.51-0.42 2.1-0.62c0.59-0.19 1.42-0.49 1.84-0.66 0.42-0.18 1.11-0.47 1.53-0.66 0.41-0.19 1.11-0.54 1.55-0.78s1.12-0.62 1.51-0.86c0.39-0.23 0.96-0.6 1.28-0.81 0.31-0.21 0.92-0.64 1.36-0.97 0.43-0.32 1.12-0.87 1.53-1.22s1.12-0.99 1.57-1.42c0.45-0.44 1.09-1.1 1.42-1.47 0.33-0.36 0.76-0.87 0.97-1.12s0.63-0.78 0.93-1.19c0.31-0.41 0.76-1.04 1.01-1.42 0.25-0.37 0.65-1 0.89-1.4s0.66-1.16 0.94-1.7 0.66-1.33 0.84-1.75c0.19-0.43 0.51-1.22 0.71-1.77 0.21-0.54 0.49-1.38 0.63-1.86 0.15-0.48 0.32-1.11 0.4-1.41 0.07-0.29 0.18-0.73 0.23-0.97l0.09-0.44h0.75c0.41 0 1.15-0.03 1.65-0.06s1.3-0.11 1.79-0.17c0.48-0.06 1.23-0.17 1.67-0.25 0.43-0.08 1.25-0.26 1.82-0.4s1.44-0.39 1.93-0.54c0.49-0.16 1.42-0.5 2.06-0.75 0.64-0.26 1.78-0.78 2.55-1.16 0.76-0.38 1.86-0.98 2.45-1.33 0.58-0.35 1.49-0.94 2.01-1.3 0.52-0.37 1.31-0.95 1.74-1.3 0.44-0.35 1.1-0.91 1.47-1.24 0.38-0.34 1.12-1.06 1.65-1.6s1.24-1.31 1.58-1.72c0.34-0.4 0.88-1.09 1.21-1.53 0.33-0.43 0.8-1.11 1.06-1.5s0.63-0.98 0.83-1.31c0.19-0.32 0.6-1.07 0.91-1.67 0.3-0.59 0.69-1.39 0.86-1.78s0.46-1.12 0.65-1.62c0.18-0.49 0.44-1.26 0.57-1.69s0.34-1.21 0.47-1.72c0.12-0.51 0.3-1.37 0.39-1.91 0.09-0.53 0.2-1.31 0.25-1.73 0.04-0.42 0.11-1.28 0.15-1.9 0.04-0.68 0.05-1.64 0.03-2.4-0.02-0.69-0.08-1.66-0.12-2.15-0.05-0.49-0.14-1.25-0.2-1.68-0.07-0.44-0.18-1.13-0.26-1.53-0.08-0.41-0.26-1.19-0.39-1.74-0.14-0.54-0.41-1.48-0.6-2.07-0.19-0.58-0.5-1.44-0.68-1.89s-0.48-1.17-0.67-1.59c-0.2-0.42-0.51-1.06-0.7-1.41-0.19-0.36-0.49-0.92-0.68-1.25s-0.61-1-0.93-1.49-0.81-1.19-1.08-1.56c-0.27-0.36-0.81-1.03-1.18-1.48-0.38-0.46-1.03-1.17-1.43-1.6-0.41-0.42-1.08-1.07-1.49-1.44s-1.1-0.96-1.54-1.31c-0.43-0.35-1.15-0.88-1.59-1.19s-1.07-0.73-1.4-0.94c-0.33-0.2-0.9-0.54-1.28-0.75-0.37-0.21-1.16-0.62-1.75-0.91s-1.46-0.68-1.94-0.87c-0.47-0.19-1.23-0.47-1.7-0.63-0.46-0.16-1.25-0.4-1.75-0.53-0.5-0.14-1.25-0.33-1.67-0.42-0.42-0.1-1.16-0.24-1.64-0.32s-1.22-0.18-1.64-0.23c-0.42-0.04-1.19-0.11-1.71-0.14-0.51-0.03-1.41-0.05-2.01-0.05zm0.46 12.77c0.75 0.01 1.6 0.06 2 0.11 0.39 0.05 1.04 0.16 1.44 0.24s1.09 0.24 1.53 0.37c0.43 0.12 1.1 0.34 1.48 0.48s1.05 0.43 1.49 0.64 1.05 0.53 1.36 0.71c0.3 0.18 0.85 0.53 1.21 0.77s0.93 0.67 1.27 0.94c0.35 0.27 1 0.87 1.45 1.32s1.08 1.15 1.4 1.55c0.32 0.39 0.75 0.98 0.97 1.3 0.21 0.32 0.55 0.86 0.75 1.21 0.19 0.34 0.5 0.92 0.68 1.3 0.18 0.37 0.42 0.95 0.55 1.27 0.13 0.33 0.34 0.94 0.46 1.36 0.13 0.43 0.31 1.14 0.4 1.59s0.21 1.14 0.26 1.53 0.1 1.23 0.12 1.87c0.02 0.7 0.01 1.5-0.03 2-0.04 0.46-0.11 1.09-0.15 1.39-0.05 0.3-0.14 0.79-0.2 1.09-0.07 0.29-0.2 0.8-0.29 1.13-0.1 0.33-0.29 0.9-0.43 1.28-0.14 0.37-0.41 1.01-0.6 1.41-0.2 0.41-0.55 1.07-0.79 1.46-0.24 0.4-0.6 0.95-0.79 1.22s-0.55 0.75-0.8 1.06c-0.25 0.32-0.9 1.02-1.45 1.56-0.55 0.55-1.25 1.21-1.56 1.45-0.32 0.25-0.75 0.58-0.97 0.74-0.21 0.16-0.65 0.46-0.96 0.66s-0.77 0.48-1.02 0.62-0.81 0.44-1.25 0.66c-0.43 0.21-1.15 0.53-1.58 0.7-0.44 0.18-1.01 0.39-1.28 0.47-0.26 0.08-0.79 0.23-1.16 0.32s-1.02 0.22-1.45 0.28c-0.44 0.07-1.22 0.13-1.87 0.15l-1.11 0.03-0.1-0.44c-0.06-0.25-0.16-0.69-0.23-0.99-0.08-0.3-0.25-0.93-0.4-1.41-0.14-0.48-0.42-1.32-0.63-1.86-0.2-0.54-0.51-1.33-0.7-1.74-0.18-0.42-0.5-1.09-0.7-1.49-0.2-0.41-0.57-1.08-0.8-1.5-0.24-0.42-0.71-1.16-1.03-1.66-0.33-0.5-0.85-1.24-1.15-1.64-0.31-0.41-0.73-0.95-0.94-1.2s-0.64-0.75-0.97-1.12-0.97-1.02-1.42-1.45c-0.44-0.44-1.12-1.06-1.5-1.38-0.39-0.32-0.93-0.77-1.21-0.99s-0.83-0.62-1.22-0.89-1.04-0.7-1.44-0.95c-0.41-0.26-1.11-0.67-1.56-0.91-0.45-0.25-1.11-0.6-1.47-0.76-0.36-0.17-0.66-0.32-0.68-0.33-0.01-0.01 0.06-0.38 0.17-0.81 0.1-0.43 0.3-1.15 0.45-1.6s0.4-1.13 0.56-1.5c0.16-0.38 0.46-0.99 0.65-1.36 0.2-0.38 0.52-0.94 0.72-1.27 0.2-0.32 0.57-0.85 0.81-1.19 0.25-0.33 0.66-0.85 0.92-1.14 0.25-0.3 0.7-0.78 1-1.08 0.29-0.29 0.78-0.75 1.09-1.01 0.31-0.27 0.84-0.69 1.16-0.92 0.33-0.24 0.9-0.62 1.25-0.84 0.36-0.22 0.95-0.55 1.3-0.74 0.36-0.18 0.94-0.45 1.28-0.59 0.34-0.15 0.96-0.38 1.37-0.52 0.42-0.14 1.07-0.33 1.45-0.42 0.38-0.1 0.98-0.22 1.32-0.28 0.35-0.06 0.91-0.14 1.25-0.17s0.71-0.07 0.81-0.08c0.11-0.02 0.79-0.02 1.51-0.01zm-31.84 25.5h-0.01c0.72 0.02 1.61 0.06 1.99 0.11s0.88 0.13 1.11 0.17c0.22 0.05 0.53 0.14 0.69 0.2 0.15 0.07 0.46 0.17 0.7 0.23s0.58 0.12 0.75 0.15c0.17 0.02 0.57 0.12 0.88 0.23s0.9 0.35 1.32 0.54c0.42 0.18 1.02 0.47 1.33 0.65 0.32 0.17 0.83 0.47 1.13 0.66 0.31 0.19 0.85 0.56 1.19 0.83 0.35 0.26 0.91 0.71 1.24 1s0.86 0.8 1.18 1.13c0.32 0.34 0.79 0.88 1.06 1.21 0.26 0.33 0.68 0.89 0.92 1.25 0.25 0.36 0.57 0.88 0.74 1.16 0.16 0.27 0.42 0.75 0.58 1.06 0.15 0.31 0.4 0.87 0.56 1.24 0.15 0.38 0.38 0.99 0.5 1.37 0.12 0.39 0.29 0.96 0.37 1.29 0.09 0.32 0.22 0.95 0.29 1.39 0.11 0.62 0.16 1.15 0.21 2.47 0.04 1.25 0.04 1.86-0.01 2.43-0.03 0.41-0.13 1.12-0.2 1.56-0.08 0.44-0.2 1.07-0.29 1.4-0.08 0.32-0.25 0.9-0.37 1.28s-0.35 1-0.5 1.37c-0.16 0.37-0.41 0.93-0.56 1.24-0.16 0.31-0.42 0.79-0.58 1.07-0.17 0.27-0.49 0.79-0.74 1.15-0.24 0.36-0.66 0.93-0.94 1.28-0.27 0.34-0.86 0.99-1.32 1.45-0.45 0.45-1.11 1.05-1.46 1.34-0.35 0.28-0.87 0.68-1.16 0.88s-0.77 0.51-1.06 0.69c-0.3 0.18-0.89 0.5-1.31 0.71s-0.99 0.48-1.27 0.6c-0.28 0.11-0.8 0.31-1.16 0.43s-0.88 0.28-1.16 0.35c-0.28 0.08-0.83 0.21-1.22 0.28-0.39 0.08-1.04 0.19-1.45 0.24-0.54 0.08-1.13 0.1-2.27 0.1-0.93 0-1.75-0.02-2.09-0.07-0.31-0.04-0.86-0.12-1.21-0.18s-0.95-0.19-1.33-0.28c-0.38-0.1-1.07-0.3-1.53-0.46-0.47-0.15-1.16-0.42-1.54-0.59-0.37-0.16-0.97-0.46-1.33-0.65s-0.89-0.5-1.19-0.69-0.82-0.55-1.17-0.81-0.9-0.7-1.22-0.98c-0.33-0.28-0.87-0.8-1.2-1.14-0.33-0.35-0.83-0.91-1.09-1.24-0.27-0.33-0.69-0.9-0.93-1.26s-0.57-0.88-0.74-1.15c-0.16-0.28-0.42-0.76-0.57-1.07-0.16-0.31-0.41-0.87-0.57-1.24-0.15-0.37-0.38-0.99-0.5-1.37-0.11-0.38-0.28-0.95-0.36-1.26-0.07-0.31-0.19-0.86-0.25-1.22-0.07-0.36-0.16-0.98-0.21-1.39-0.05-0.45-0.08-1.24-0.08-2.04 0-0.77 0.03-1.61 0.08-2.04 0.05-0.41 0.13-0.97 0.17-1.25 0.05-0.28 0.17-0.82 0.26-1.2s0.27-1.01 0.4-1.4c0.12-0.39 0.35-1.02 0.51-1.39 0.15-0.37 0.4-0.93 0.56-1.24 0.15-0.31 0.41-0.79 0.57-1.07 0.17-0.27 0.5-0.79 0.74-1.15s0.67-0.93 0.94-1.28c0.27-0.34 0.88-1 1.35-1.47s1.11-1.06 1.42-1.31 0.78-0.61 1.05-0.8c0.26-0.19 0.69-0.48 0.96-0.64 0.27-0.17 0.76-0.45 1.1-0.63 0.33-0.18 0.93-0.47 1.31-0.64 0.39-0.17 1.04-0.43 1.46-0.57 0.41-0.14 1.04-0.34 1.4-0.43s0.98-0.23 1.39-0.3c0.4-0.08 1.02-0.16 1.36-0.2 0.34-0.03 0.72-0.07 0.85-0.08 0.12-0.02 0.81-0.02 1.53-0.01zm-102.65 57.39c-7.47 0.01-13.66 0.02-13.76 0.03-0.09 0.01-0.42 0.06-0.73 0.11-0.32 0.05-0.86 0.16-1.22 0.26-0.36 0.09-0.9 0.26-1.19 0.37-0.3 0.11-0.86 0.36-1.26 0.56-0.39 0.2-0.92 0.5-1.16 0.66-0.24 0.15-0.64 0.44-0.89 0.63s-0.73 0.61-1.07 0.94c-0.34 0.32-0.8 0.82-1.03 1.1-0.23 0.29-0.59 0.77-0.8 1.09-0.2 0.31-0.53 0.89-0.73 1.3-0.2 0.4-0.45 0.98-0.56 1.28-0.12 0.3-0.27 0.8-0.35 1.11-0.08 0.3-0.2 0.86-0.27 1.24l-0.13 0.67-0.01 35.96c-0.01 25.92 0 36.16 0.04 36.67 0.04 0.39 0.13 1.03 0.21 1.42 0.07 0.39 0.25 1.05 0.39 1.47s0.4 1.06 0.57 1.41c0.17 0.36 0.44 0.87 0.6 1.14 0.16 0.26 0.5 0.77 0.77 1.12 0.26 0.35 0.75 0.92 1.08 1.25 0.33 0.34 0.81 0.77 1.06 0.97s0.72 0.54 1.05 0.75c0.32 0.22 0.94 0.57 1.37 0.78s1.13 0.51 1.57 0.65 1.11 0.32 1.49 0.4 1.01 0.17 1.4 0.2c0.5 0.05 3.85 0.06 11.39 0.04l10.69-0.02 0.56-0.1c0.32-0.05 0.83-0.16 1.14-0.24 0.31-0.07 0.79-0.22 1.07-0.31 0.29-0.1 0.74-0.28 1.02-0.4s0.74-0.36 1.02-0.51c0.28-0.16 0.7-0.41 0.92-0.56s0.6-0.43 0.85-0.62c0.24-0.2 0.68-0.59 0.97-0.87 0.3-0.29 0.73-0.77 0.98-1.07 0.24-0.3 0.57-0.74 0.72-0.96 0.16-0.23 0.41-0.65 0.57-0.93 0.15-0.28 0.4-0.78 0.54-1.1 0.14-0.33 0.33-0.84 0.43-1.13 0.09-0.3 0.22-0.76 0.29-1.03 0.06-0.27 0.15-0.74 0.19-1.05s0.25-2.83 0.46-5.6c0.21-2.78 0.41-5.07 0.43-5.1 0.02-0.02 2.1 0.83 4.62 1.91s5.07 2.16 5.66 2.4c0.59 0.23 1.74 0.68 2.55 0.99 0.81 0.3 2.16 0.79 3 1.09 0.85 0.29 2.13 0.73 2.86 0.96 0.74 0.24 1.8 0.57 2.36 0.74s1.55 0.47 2.21 0.65c0.65 0.19 1.66 0.48 2.24 0.63 0.57 0.16 2 0.53 3.17 0.82 1.17 0.3 2.75 0.67 3.51 0.85 0.77 0.17 2 0.44 2.75 0.6 0.75 0.15 2.04 0.41 2.86 0.57 0.83 0.16 2.47 0.45 3.66 0.65 1.18 0.2 2.85 0.47 3.71 0.59 0.86 0.13 2.15 0.3 2.86 0.4 0.72 0.09 1.75 0.22 2.3 0.28 0.54 0.06 1.62 0.18 2.38 0.26s1.97 0.19 2.69 0.25c0.72 0.07 2.06 0.17 2.97 0.23 0.92 0.06 2.21 0.14 2.87 0.17 0.65 0.04 1.86 0.08 2.69 0.11s2.96 0.06 4.73 0.06c1.78 0 3.86-0.03 4.62-0.06s1.82-0.08 2.35-0.11 1.46-0.1 2.07-0.14c0.61-0.05 1.64-0.14 2.3-0.2 0.65-0.06 1.73-0.18 2.4-0.25 0.67-0.08 1.86-0.24 2.64-0.35s1.96-0.29 2.63-0.4c0.67-0.1 1.85-0.31 2.61-0.45s1.89-0.36 2.5-0.48c0.6-0.13 1.71-0.37 2.46-0.53 0.75-0.17 1.85-0.43 2.44-0.57 0.59-0.15 1.68-0.43 2.43-0.62 0.75-0.2 1.87-0.51 2.5-0.68 0.62-0.18 1.64-0.47 2.26-0.66 0.63-0.19 1.85-0.57 2.72-0.85 0.88-0.27 2.25-0.73 3.06-1 0.81-0.28 2.16-0.76 2.99-1.06 0.83-0.29 2.21-0.81 3.06-1.13 0.85-0.33 2.31-0.89 3.22-1.25 0.92-0.37 2.51-1.02 3.54-1.45s2.55-1.07 3.37-1.43c0.83-0.36 2.33-1.02 3.35-1.47 1.01-0.45 2.43-1.09 3.14-1.42 0.72-0.32 2.4-1.1 3.74-1.73 1.34-0.62 3.32-1.55 4.39-2.05 1.08-0.51 2.41-1.15 2.96-1.42 0.55-0.28 1.34-0.7 1.76-0.94 0.41-0.24 1.05-0.62 1.41-0.85s0.93-0.61 1.27-0.85 1-0.74 1.47-1.12 1.32-1.15 1.88-1.71 1.23-1.27 1.49-1.58c0.26-0.32 0.65-0.82 0.88-1.14 0.22-0.31 0.58-0.84 0.8-1.19 0.21-0.34 0.55-0.93 0.74-1.3 0.2-0.38 0.48-0.97 0.64-1.33 0.15-0.36 0.38-0.97 0.51-1.36s0.33-1.07 0.43-1.5c0.11-0.44 0.25-1.16 0.31-1.59 0.07-0.44 0.13-1.23 0.15-1.76 0.03-0.58 0.01-1.32-0.03-1.84-0.04-0.48-0.13-1.24-0.2-1.68-0.08-0.43-0.21-1.1-0.31-1.48-0.09-0.37-0.29-1.02-0.44-1.44-0.14-0.41-0.4-1.08-0.58-1.47s-0.48-0.98-0.68-1.33c-0.2-0.34-0.52-0.86-0.73-1.16-0.2-0.29-0.56-0.78-0.8-1.07-0.23-0.3-0.75-0.86-1.14-1.25s-0.92-0.88-1.19-1.09c-0.26-0.2-0.73-0.53-1.05-0.74-0.31-0.2-0.86-0.52-1.22-0.71-0.37-0.19-0.99-0.47-1.39-0.62-0.4-0.16-1-0.36-1.33-0.46-0.33-0.09-0.89-0.24-1.25-0.31-0.35-0.08-1-0.2-1.44-0.26-0.43-0.06-1.22-0.14-1.75-0.18-0.6-0.04-1.47-0.05-2.3-0.03-0.73 0.02-1.8 0.08-2.38 0.14s-1.48 0.18-2.01 0.26c-0.53 0.09-1.4 0.24-1.93 0.35s-1.5 0.34-2.15 0.5c-0.66 0.17-1.63 0.44-2.16 0.59-0.52 0.16-1.44 0.46-2.03 0.67-0.6 0.2-1.66 0.57-2.38 0.82-0.71 0.24-1.75 0.57-2.32 0.73-0.57 0.15-1.61 0.42-2.33 0.59s-1.9 0.43-2.64 0.59c-0.73 0.16-2 0.42-2.83 0.58-0.83 0.15-2.42 0.43-3.54 0.62-1.13 0.18-2.58 0.41-3.23 0.5-0.66 0.1-1.8 0.25-2.54 0.35-0.74 0.09-2.11 0.26-3.06 0.37-0.94 0.1-1.72 0.18-1.73 0.17s0.1-0.34 0.24-0.73 0.34-1.05 0.45-1.47c0.11-0.41 0.24-0.95 0.28-1.2 0.05-0.25 0.13-0.75 0.18-1.11 0.04-0.36 0.1-1.06 0.12-1.56 0.02-0.53 0.01-1.26-0.03-1.78-0.04-0.49-0.13-1.24-0.2-1.68-0.08-0.44-0.21-1.06-0.29-1.39-0.08-0.32-0.25-0.89-0.37-1.26-0.13-0.37-0.37-0.99-0.54-1.39-0.17-0.39-0.47-1.02-0.68-1.39-0.2-0.37-0.56-0.96-0.79-1.3-0.23-0.35-0.63-0.9-0.89-1.23-0.26-0.32-0.72-0.85-1.01-1.15-0.3-0.31-0.78-0.78-1.07-1.04s-0.82-0.69-1.16-0.95c-0.35-0.26-0.88-0.62-1.18-0.81s-0.86-0.52-1.24-0.72c-0.39-0.2-0.99-0.49-1.35-0.64-0.36-0.16-0.97-0.39-1.35-0.52-0.38-0.12-1.04-0.32-1.47-0.42-0.43-0.11-1.01-0.23-1.29-0.28s-1.53-0.22-2.78-0.38-2.85-0.36-3.57-0.46c-0.71-0.09-2.22-0.29-3.34-0.45-1.13-0.15-2.83-0.39-3.8-0.53-0.96-0.14-2.52-0.37-3.46-0.52-0.93-0.14-2.63-0.41-3.78-0.59-1.14-0.19-2.89-0.48-3.88-0.65-0.99-0.18-2.22-0.39-2.74-0.49-0.51-0.09-1.67-0.31-2.58-0.48-0.9-0.17-2.21-0.43-2.91-0.57-0.71-0.14-2-0.41-2.89-0.59-0.89-0.19-2.35-0.51-3.24-0.71-0.88-0.2-2.11-0.48-2.71-0.62-0.61-0.14-1.5-0.35-1.99-0.45-0.48-0.11-1.44-0.3-2.12-0.42-0.69-0.13-1.84-0.32-2.55-0.43-0.72-0.11-1.69-0.25-2.16-0.31-0.46-0.07-1.39-0.18-2.06-0.25-0.67-0.08-1.8-0.2-2.5-0.26-0.7-0.07-1.82-0.16-2.49-0.2-0.67-0.05-2-0.11-2.95-0.15-1.03-0.04-2.51-0.05-3.65-0.03-1.06 0.02-2.31 0.06-2.78 0.09-0.47 0.04-1.36 0.11-1.99 0.18-0.62 0.06-1.66 0.19-2.32 0.28-0.65 0.1-1.75 0.28-2.44 0.42s-1.72 0.37-2.29 0.51c-0.58 0.14-1.52 0.39-2.1 0.55-0.57 0.16-1.93 0.59-3.02 0.95l-1.97 0.66-0.06-0.23c-0.03-0.12-0.11-0.45-0.19-0.71-0.07-0.27-0.25-0.78-0.4-1.14-0.14-0.35-0.38-0.89-0.54-1.18-0.16-0.3-0.45-0.79-0.66-1.1-0.2-0.31-0.55-0.78-0.78-1.05-0.22-0.27-0.69-0.76-1.03-1.08-0.33-0.34-0.76-0.72-0.95-0.86-0.19-0.15-0.6-0.43-0.92-0.64s-0.94-0.56-1.39-0.77c-0.44-0.21-1.09-0.48-1.43-0.6-0.34-0.11-0.88-0.27-1.2-0.34-0.31-0.07-0.87-0.17-1.23-0.22-0.58-0.08-2.33-0.09-14.25-0.08zm-12.43 12.69h12.51 12.5l-0.04 0.35c-0.02 0.2-1.13 14.65-2.47 32.12s-2.54 33.09-2.66 34.7c-0.13 1.62-0.23 2.95-0.23 2.96s-4.41 0.02-9.8 0.02h-9.81v-70.15zm57.19 6.41c0.79-0.01 2.04 0.02 2.77 0.05 0.74 0.03 1.73 0.08 2.21 0.11 0.49 0.04 1.44 0.11 2.13 0.17 0.68 0.07 1.79 0.18 2.46 0.26s1.76 0.22 2.41 0.32c0.66 0.09 1.64 0.24 2.18 0.33 0.55 0.09 1.45 0.26 2.02 0.37 0.56 0.11 1.82 0.39 2.8 0.62s2.6 0.6 3.6 0.82 2.6 0.56 3.57 0.76 2.48 0.51 3.37 0.68 2.52 0.48 3.63 0.68c1.1 0.2 2.83 0.51 3.82 0.68 1 0.18 2.93 0.49 4.28 0.71 1.36 0.22 3.68 0.57 5.16 0.79s3.9 0.57 5.38 0.77 3.61 0.48 4.73 0.63c1.13 0.14 2.72 0.34 3.55 0.45 0.82 0.11 1.69 0.25 1.92 0.31 0.23 0.07 0.64 0.23 0.91 0.37 0.26 0.14 0.65 0.39 0.85 0.55 0.2 0.17 0.5 0.47 0.67 0.67 0.16 0.2 0.39 0.56 0.52 0.8 0.12 0.23 0.29 0.65 0.38 0.93 0.13 0.44 0.15 0.61 0.15 1.3 0.01 0.66-0.01 0.87-0.12 1.24-0.07 0.24-0.22 0.62-0.33 0.85-0.11 0.22-0.34 0.59-0.52 0.82-0.17 0.22-0.47 0.54-0.67 0.7-0.19 0.17-0.53 0.41-0.74 0.53-0.22 0.13-0.62 0.33-0.9 0.44s-0.89 0.28-1.36 0.38c-0.47 0.09-1.28 0.26-1.81 0.37s-1.42 0.28-1.98 0.37c-0.55 0.09-1.49 0.23-2.09 0.31-0.6 0.07-1.47 0.18-1.94 0.22-0.47 0.05-1.17 0.11-1.56 0.14s-1.12 0.09-1.63 0.12c-0.5 0.03-1.88 0.08-3.05 0.11-1.41 0.04-2.89 0.04-4.38 0-1.23-0.03-2.92-0.09-3.74-0.14-0.83-0.05-2.14-0.14-2.92-0.2s-2.07-0.18-2.87-0.25c-0.79-0.08-1.87-0.2-2.4-0.26s-1.26-0.12-1.62-0.12-0.86 0.04-1.11 0.09-0.64 0.15-0.86 0.23c-0.22 0.07-0.58 0.22-0.8 0.33-0.23 0.12-0.56 0.31-0.75 0.44s-0.52 0.4-0.74 0.61c-0.21 0.2-0.55 0.58-0.73 0.83-0.19 0.25-0.46 0.68-0.59 0.96-0.14 0.29-0.3 0.67-0.36 0.85-0.06 0.19-0.16 0.55-0.21 0.8-0.06 0.27-0.1 0.73-0.1 1.16 0 0.39 0.03 0.9 0.07 1.13 0.04 0.24 0.15 0.66 0.24 0.94s0.28 0.72 0.42 0.97c0.13 0.26 0.38 0.66 0.55 0.88 0.18 0.23 0.46 0.56 0.65 0.73 0.18 0.18 0.48 0.43 0.67 0.57s0.55 0.36 0.8 0.49 0.68 0.31 0.96 0.4c0.28 0.1 0.9 0.24 1.38 0.32s1.58 0.24 2.44 0.37c0.86 0.12 1.97 0.27 2.46 0.34 0.5 0.06 1.47 0.17 2.16 0.25 0.68 0.08 1.75 0.2 2.38 0.26 0.62 0.06 1.74 0.16 2.49 0.22 0.75 0.07 1.9 0.16 2.55 0.2 0.66 0.05 1.89 0.13 2.75 0.17 0.86 0.05 2.2 0.12 2.97 0.15 0.78 0.03 2.48 0.08 3.77 0.11 1.3 0.03 3.29 0.06 4.42 0.06 1.14 0 3.17-0.03 4.51-0.06s3.1-0.08 3.91-0.11c0.81-0.04 2.39-0.11 3.51-0.18 1.13-0.06 2.57-0.15 3.21-0.19 0.63-0.05 1.78-0.14 2.55-0.2 0.76-0.06 2.16-0.19 3.11-0.29 0.95-0.09 2.5-0.25 3.43-0.36 0.94-0.11 2.36-0.29 3.17-0.4s2.08-0.29 2.81-0.4 1.94-0.3 2.69-0.42c0.75-0.13 1.78-0.31 2.3-0.4 0.51-0.09 1.65-0.31 2.52-0.48 0.87-0.18 2.27-0.47 3.12-0.66 0.84-0.18 2.2-0.5 3.03-0.71 0.82-0.2 1.9-0.48 2.38-0.62s1.39-0.42 2.01-0.64c0.62-0.21 1.54-0.53 2.04-0.71s1.26-0.44 1.69-0.57c0.43-0.14 1.26-0.38 1.84-0.54s1.49-0.37 2.02-0.48c0.53-0.1 1.34-0.24 1.79-0.3 0.45-0.07 1.24-0.14 1.76-0.18 0.65-0.04 1.16-0.04 1.7 0 0.42 0.03 0.94 0.1 1.16 0.14 0.22 0.05 0.56 0.17 0.76 0.27 0.28 0.14 0.44 0.27 0.64 0.53 0.15 0.18 0.36 0.51 0.47 0.73s0.25 0.6 0.32 0.85c0.09 0.35 0.12 0.63 0.12 1.22 0.01 0.57-0.02 0.86-0.09 1.13-0.06 0.2-0.24 0.65-0.41 1-0.16 0.34-0.46 0.84-0.65 1.1-0.2 0.26-0.59 0.71-0.87 1.01-0.29 0.29-0.77 0.74-1.07 0.98-0.31 0.25-0.83 0.63-1.15 0.84-0.33 0.22-0.91 0.58-1.29 0.8s-1 0.55-1.37 0.73c-0.38 0.18-1.7 0.81-2.95 1.39-1.25 0.59-2.93 1.37-3.74 1.74-0.81 0.38-2.2 1.02-3.09 1.42-0.89 0.41-2.41 1.09-3.38 1.52s-2.45 1.08-3.28 1.45c-0.84 0.36-2.38 1.01-3.43 1.45-1.04 0.44-2.53 1.05-3.31 1.36s-1.81 0.72-2.3 0.91c-0.48 0.18-1.49 0.57-2.23 0.85-0.75 0.28-1.94 0.71-2.64 0.96s-1.87 0.66-2.61 0.9c-0.73 0.25-2 0.67-2.83 0.93s-2.03 0.62-2.66 0.81c-0.64 0.19-1.69 0.49-2.33 0.67-0.64 0.17-1.87 0.49-2.75 0.71-0.87 0.22-2.21 0.53-2.97 0.7-0.77 0.17-1.98 0.42-2.69 0.56-0.72 0.14-1.91 0.36-2.64 0.49-0.73 0.12-1.86 0.3-2.52 0.4-0.65 0.09-1.8 0.24-2.55 0.33-0.75 0.1-1.9 0.22-2.55 0.29-0.66 0.06-1.73 0.15-2.38 0.19-0.66 0.05-1.64 0.12-2.18 0.15-0.55 0.04-2.65 0.08-4.67 0.1-2.29 0.01-4.36 0-5.52-0.04-1.02-0.04-2.29-0.09-2.82-0.12s-1.37-0.08-1.87-0.11-1.39-0.1-1.98-0.15c-0.6-0.04-1.64-0.13-2.33-0.19-0.68-0.07-1.93-0.19-2.77-0.29-0.84-0.09-2.12-0.24-2.84-0.34-0.71-0.09-1.66-0.22-2.09-0.28-0.44-0.06-1.38-0.2-2.1-0.31-0.72-0.12-2.09-0.34-3.06-0.51s-2.64-0.49-3.73-0.71c-1.08-0.22-2.69-0.56-3.58-0.76-0.88-0.2-2.19-0.51-2.9-0.69-0.71-0.17-1.96-0.49-2.77-0.71s-1.96-0.54-2.55-0.71-1.53-0.45-2.1-0.62c-0.56-0.17-1.68-0.53-2.49-0.79-0.81-0.27-1.98-0.67-2.61-0.89-0.62-0.22-1.69-0.61-2.38-0.86-0.68-0.26-1.73-0.67-2.32-0.91s-3.97-1.67-7.51-3.19c-3.54-1.51-6.44-2.76-6.45-2.76-0.01-0.01 0.61-8.24 1.39-18.29 0.85-11.09 1.42-18.28 1.46-18.3 0.03-0.03 0.71-0.31 1.5-0.62 0.8-0.32 1.86-0.73 2.36-0.92 0.49-0.18 1.49-0.54 2.2-0.78 0.72-0.25 1.77-0.59 2.35-0.76s1.46-0.41 1.96-0.54c0.5-0.12 1.36-0.31 1.91-0.42s1.44-0.26 1.98-0.34 1.4-0.18 1.89-0.23c0.5-0.05 1.29-0.11 1.76-0.14 0.47-0.02 1.5-0.05 2.3-0.05zm-161.12 113.71l-37.42 92c-0.98 2.4-1.85 4.36-2.62 5.88-0.65 1.53-1.47 2.73-2.45 3.6-0.87 0.87-1.96 1.47-3.27 1.8-1.3 0.32-3.05 0.49-5.22 0.49h-3.11v5.22h34.48v-5.22h-5.88c-2.73 0-4.74-0.28-6.05-0.82-1.31-0.65-1.96-1.8-1.96-3.43 0-1.31 0.27-2.89 0.82-4.74 0.65-1.96 1.25-3.54 1.8-4.74l4.57-10.95h33.66l9.32 24.68h-14.22v5.22h52.62v-5.22h-11.11l-39.22-103.77h-4.74zm125.54 0.49c-0.43 0-1.14 0.06-2.12 0.16-0.88 0-1.86 0.06-2.94 0.17l-2.95 0.32h-1.79c-1.31 0.11-2.73 0.22-4.25 0.33-1.42 0.11-2.78 0.22-4.09 0.33-1.3 0-2.45 0.05-3.43 0.16h-1.63-11.44v4.9h12.91v44.12c-1.64-1.85-3.65-3.65-6.05-5.39-2.29-1.85-5.55-2.78-9.8-2.78-3.27 0-6.54 0.82-9.81 2.46-3.16 1.52-5.99 3.7-8.5 6.53-2.39 2.83-4.35 6.32-5.88 10.46-1.52 4.14-2.29 8.71-2.29 13.73 0 5.12 0.71 9.86 2.13 14.21 1.52 4.25 3.48 7.96 5.88 11.11 2.51 3.05 5.28 5.45 8.33 7.19 3.16 1.64 6.43 2.45 9.81 2.45 2.5 0 4.63-0.38 6.37-1.14 1.85-0.76 3.38-1.69 4.58-2.78 1.31-1.2 2.34-2.39 3.1-3.59s1.37-2.23 1.8-3.11h0.33v9.64h2.28c1.31-0.21 2.84-0.43 4.58-0.65l5.23-0.33h4.74 3.59 9.97v-4.73h-8.66v-103.77zm-134.37 35.95l14.06 37.09h-29.25l15.19-37.09zm182.78 6.37c-5.01 0-9.53 1.04-13.56 3.11-3.93 1.96-7.3 4.57-10.14 7.84-2.72 3.16-4.84 6.76-6.37 10.79-1.52 3.92-2.29 7.9-2.29 11.93 0 3.81 0.66 7.73 1.96 11.76 1.31 4.03 3.33 7.74 6.05 11.11 2.72 3.38 6.21 6.16 10.46 8.34s9.26 3.26 15.03 3.26c2.62 0 5.45-0.32 8.5-0.98 3.05-0.65 5.94-1.85 8.66-3.59 2.83-1.85 5.39-4.36 7.68-7.52s4.03-7.19 5.23-12.09h-4.74c-1.52 4.58-3.49 8.12-5.88 10.62-2.29 2.51-4.58 4.36-6.87 5.56-2.28 1.09-4.35 1.74-6.2 1.96-1.75 0.11-2.84 0.16-3.27 0.16-2.84 0-5.07-0.43-6.7-1.3-1.64-0.88-2.89-2.18-3.76-3.93-0.76-1.85-1.25-4.08-1.47-6.7-0.22-2.72-0.33-5.93-0.33-9.64v-10.29h39.22c-0.55-6.54-2.07-11.77-4.58-15.69-2.39-4.03-5.23-7.13-8.49-9.31-3.16-2.18-6.43-3.6-9.81-4.25-3.27-0.77-6.04-1.15-8.33-1.15zm69.89 0c-5.01 0-9.53 1.04-13.56 3.11-3.92 1.96-7.3 4.57-10.13 7.84-2.72 3.16-4.85 6.76-6.37 10.79-1.53 3.92-2.29 7.9-2.29 11.93 0 3.81 0.65 7.73 1.96 11.76s3.32 7.74 6.05 11.11c2.72 3.38 6.2 6.16 10.45 8.34s9.26 3.26 15.04 3.26c2.61 0 5.44-0.32 8.49-0.98 3.06-0.65 5.94-1.85 8.66-3.59 2.84-1.85 5.4-4.36 7.69-7.52 2.28-3.16 4.03-7.19 5.23-12.09h-4.74c-1.53 4.58-3.49 8.12-5.89 10.62-2.28 2.51-4.57 4.36-6.86 5.56-2.29 1.09-4.36 1.74-6.21 1.96-1.74 0.11-2.83 0.16-3.27 0.16-2.83 0-5.06-0.43-6.7-1.3-1.63-0.88-2.89-2.18-3.76-3.93-0.76-1.85-1.25-4.08-1.47-6.7-0.22-2.72-0.32-5.93-0.32-9.64v-10.29h39.22c-0.55-6.54-2.08-11.77-4.58-15.69-2.4-4.03-5.23-7.13-8.5-9.31-3.16-2.18-6.42-3.6-9.8-4.25-3.27-0.77-6.05-1.15-8.34-1.15zm64.67 0c-3.27 0.55-6.64 1.04-10.13 1.48-3.38 0.32-7.57 0.49-12.58 0.49h-5.89v4.9h9.15v54.41h-9.31v4.9h40.36v-4.9h-9.31v-31.7-2.94c0.11-1.2 0.27-2.45 0.49-3.76s0.49-2.61 0.82-3.92c0.43-1.31 1.03-2.51 1.79-3.6 1.64-2.5 3.71-4.52 6.21-6.04 2.51-1.64 4.69-2.45 6.54-2.45 1.52 0 2.72 0.32 3.59 0.98 0.87 0.54 1.47 1.3 1.8 2.29 0.44 0.98 0.65 2.06 0.65 3.26 0.11 1.09 0.17 2.18 0.17 3.27v44.61h-9.32v4.9h40.2v-4.9h-9.15v-43.47c0-1.19-0.11-2.83-0.33-4.9-0.21-2.18-0.7-3.81-1.47-4.9-1.19-1.63-3.32-3.38-6.37-5.23-2.94-1.85-6.81-2.78-11.6-2.78-3.6 0-6.75 0.49-9.48 1.48-2.61 0.98-4.85 2.17-6.7 3.59-1.85 1.41-3.37 2.94-4.57 4.57-1.2 1.53-2.18 2.84-2.94 3.93h-0.33v-13.57h-2.29zm56.94 1.97v4.9h6.37l29.41 59.31-9.15 22.06c-0.21 0.55-0.54 1.26-0.98 2.13-0.32 0.87-0.76 1.74-1.3 2.61-0.55 0.87-1.15 1.64-1.8 2.29-0.66 0.66-1.31 0.98-1.96 0.98-0.33 0-0.66-0.11-0.98-0.33-0.33-0.21-0.71-0.7-1.15-1.47-0.76-1.3-1.79-2.66-3.1-4.08-1.2-1.42-3.16-2.13-5.88-2.13-2.51 0-4.69 0.99-6.54 2.95-1.74 1.96-2.62 4.24-2.62 6.86 0 2.5 1.09 4.79 3.27 6.86s5.01 3.11 8.5 3.11c2.94 0 5.39-0.55 7.35-1.64 2.07-0.98 3.76-2.23 5.07-3.75 1.31-1.42 2.34-2.95 3.1-4.58 0.88-1.63 1.53-3 1.97-4.09 0.21-0.43 0.32-0.7 0.32-0.81l34.15-78.93c0.66-1.52 1.26-2.78 1.8-3.76 0.55-0.98 1.2-1.74 1.96-2.29 0.76-0.54 1.69-0.87 2.78-0.98 1.09-0.21 2.51-0.32 4.25-0.32v-4.9h-24.84v4.9h2.94c0.55 0 1.2 0.05 1.96 0.16 0.77 0 1.47 0.11 2.13 0.33 0.65 0.11 1.2 0.38 1.63 0.81 0.55 0.33 0.82 0.88 0.82 1.64 0 0.87-0.27 1.96-0.82 3.27-0.43 1.19-0.82 2.23-1.14 3.1l-10.62 24.84-16.67-34.15h9.64v-4.9h-39.87zm-272.92 2.61c0.55 0 1.42 0.22 2.62 0.65 1.3 0.44 2.56 1.36 3.75 2.78 1.31 1.31 2.46 3.27 3.44 5.88 0.98 2.62 1.47 6.05 1.47 10.3v17.16c0 3.16-0.17 5.83-0.49 8-0.22 2.07-0.77 3.98-1.64 5.72-1.2 2.18-2.67 4.03-4.41 5.56-1.74 1.42-3.54 2.12-5.39 2.12-1.09 0-2.02-0.21-2.78-0.65-0.65-0.54-1.2-1.42-1.63-2.62-0.44-1.3-0.77-3.04-0.98-5.22-0.22-2.18-0.33-4.96-0.33-8.34v-24.02-5.56c0.11-2.07 0.38-3.97 0.82-5.71 0.43-1.75 1.03-3.16 1.79-4.25 0.88-1.2 2.13-1.8 3.76-1.8zm81.74 0c2.18 0 3.87 0.44 5.07 1.31s2.07 2.01 2.62 3.43c0.54 1.31 0.87 2.78 0.98 4.41 0.1 1.63 0.16 3.21 0.16 4.74v6.7h-17.16v-6.54c0-1.85 0.05-3.59 0.16-5.23 0.11-1.74 0.39-3.26 0.82-4.57 0.55-1.31 1.36-2.34 2.45-3.11 1.2-0.76 2.83-1.14 4.9-1.14zm69.9 0c2.18 0 3.87 0.44 5.07 1.31s2.07 2.01 2.61 3.43c0.54 1.31 0.87 2.78 0.98 4.41s0.16 3.21 0.16 4.74v6.7h-17.15v-6.54c0-1.85 0.05-3.59 0.16-5.23 0.11-1.74 0.38-3.26 0.82-4.57 0.54-1.31 1.36-2.34 2.45-3.11 1.2-0.76 2.83-1.14 4.9-1.14zm-269.79 130.35c-0.57 0-1.04 0.2-1.44 0.62-0.39 0.41-0.58 0.91-0.58 1.5 0 0.58 0.19 1.06 0.58 1.43 0.42 0.37 0.9 0.56 1.44 0.56 0.56 0 1.05-0.2 1.47-0.59 0.41-0.39 0.62-0.87 0.62-1.44 0-0.56-0.2-1.05-0.59-1.46-0.39-0.42-0.89-0.62-1.5-0.62zm29.18 0c-0.57 0-1.05 0.2-1.44 0.62-0.39 0.41-0.59 0.91-0.59 1.5 0 0.58 0.2 1.06 0.59 1.43 0.41 0.37 0.89 0.56 1.44 0.56 0.56 0 1.05-0.2 1.46-0.59 0.42-0.39 0.62-0.87 0.62-1.44 0-0.56-0.19-1.05-0.58-1.46-0.4-0.42-0.9-0.62-1.5-0.62zm51.92 0c-0.57 0-1.05 0.2-1.44 0.62-0.39 0.41-0.59 0.91-0.59 1.5 0 0.58 0.2 1.06 0.59 1.43 0.41 0.37 0.89 0.56 1.44 0.56 0.56 0 1.05-0.2 1.46-0.59s0.62-0.87 0.62-1.44c0-0.56-0.19-1.05-0.58-1.46-0.4-0.42-0.9-0.62-1.5-0.62zm58.66 0c-0.56 0-1.04 0.2-1.43 0.62-0.39 0.41-0.59 0.91-0.59 1.5 0 0.58 0.2 1.06 0.59 1.43 0.41 0.37 0.89 0.56 1.43 0.56 0.57 0 1.06-0.2 1.47-0.59 0.42-0.39 0.62-0.87 0.62-1.44 0-0.56-0.19-1.05-0.58-1.46-0.39-0.42-0.9-0.62-1.51-0.62zm102.64 0l-0.22 1.3c1.1 0.04 1.87 0.15 2.28 0.33 0.41 0.17 0.62 0.47 0.62 0.91 0 0.24-0.05 0.56-0.13 0.98-0.09 0.41-0.21 0.89-0.36 1.43l-6.46 22.12h2.74l0.75-2.25c0.8-2.4 1.57-4.45 2.28-6.17 0.72-1.72 1.41-3.13 2.06-4.24 0.67-1.11 1.34-1.92 1.99-2.44s1.31-0.79 1.99-0.79c0.39 0 0.66 0.11 0.81 0.33 0.18 0.2 0.26 0.54 0.26 1.04s-0.08 1.08-0.26 1.73c-0.15 0.65-0.41 1.53-0.78 2.64-0.48 1.37-0.87 2.51-1.17 3.43-0.29 0.89-0.52 1.65-0.69 2.28-0.15 0.61-0.26 1.12-0.33 1.53-0.06 0.42-0.09 0.81-0.09 1.18 0 0.72 0.13 1.24 0.39 1.56 0.26 0.33 0.68 0.49 1.27 0.49 0.54 0 1.12-0.12 1.73-0.35 0.63-0.27 1.24-0.6 1.83-1.02 0.6-0.43 1.16-0.93 1.66-1.5 0.52-0.56 0.96-1.16 1.3-1.79l-0.91-0.68c-0.65 0.91-1.3 1.63-1.96 2.15-0.63 0.5-1.16 0.75-1.59 0.75-0.42 0-0.63-0.25-0.63-0.75 0-0.09 0.02-0.2 0.04-0.33 0.04-0.13 0.12-0.37 0.23-0.72 0.1-0.37 0.28-0.89 0.52-1.56 0.24-0.68 0.57-1.6 1.01-2.77 0.46-1.24 0.79-2.34 1.01-3.3s0.33-1.79 0.33-2.51c0-1.15-0.28-2.03-0.82-2.64s-1.34-0.91-2.38-0.91c-1 0-1.96 0.28-2.87 0.84-0.91 0.55-1.72 1.33-2.41 2.35l-0.1-0.06 3.72-12.59h-6.66zm112.11 0l-0.36 1.3c1.13 0 1.92 0.07 2.35 0.2 0.44 0.13 0.66 0.36 0.66 0.68 0 0.18-0.05 0.46-0.14 0.85-0.08 0.39-0.21 0.88-0.39 1.47l-1.89 6.72c-0.37-0.61-0.75-1.06-1.14-1.34-0.37-0.28-0.92-0.42-1.66-0.42-0.76 0-1.55 0.18-2.35 0.55-0.79 0.37-1.56 0.88-2.32 1.53-0.74 0.63-1.44 1.37-2.12 2.22-0.67 0.85-1.27 1.75-1.79 2.71-0.5 0.93-0.9 1.91-1.21 2.93-0.28 1-0.42 1.97-0.42 2.9 0 0.77 0.1 1.46 0.29 2.09 0.22 0.61 0.5 1.14 0.85 1.6 0.35 0.44 0.76 0.78 1.24 1.05 0.48 0.23 1 0.35 1.56 0.35 1.07 0 2.19-0.38 3.36-1.14 1.18-0.78 2.18-1.89 3-3.32l0.26 0.06c-0.06 0.24-0.11 0.49-0.16 0.75-0.04 0.26-0.06 0.51-0.06 0.75 0 0.94 0.2 1.65 0.62 2.15 0.43 0.5 1.04 0.75 1.82 0.75 1.11 0 2.1-0.5 2.97-1.5 0.89-1.02 1.71-2.61 2.45-4.76l-1.24-0.29c-0.44 1.3-0.94 2.36-1.5 3.16-0.55 0.81-1.06 1.21-1.54 1.21-0.24 0-0.43-0.1-0.58-0.3-0.15-0.19-0.23-0.54-0.23-1.04 0-0.35 0.03-0.78 0.1-1.3 0.06-0.53 0.18-1.19 0.36-1.99 0.19-0.83 0.44-1.84 0.75-3.04 0.3-1.19 0.68-2.64 1.14-4.33l3.62-13.21h-6.3zm44.31 0c-0.85 0-1.64 0.2-2.38 0.62-0.74 0.39-1.43 1.03-2.09 1.92-0.65 0.87-1.26 1.99-1.82 3.36-0.57 1.37-1.09 3.03-1.57 4.99h-3.1l-0.42 1.5h3.13l-4.73 18.36c-0.22 0.85-0.53 1.54-0.95 2.06-0.41 0.52-0.87 0.78-1.37 0.78-0.43 0-0.72-0.12-0.88-0.36-0.15-0.24-0.28-0.5-0.39-0.78-0.13-0.28-0.28-0.54-0.45-0.78-0.18-0.24-0.49-0.36-0.95-0.36-0.5 0-0.89 0.15-1.17 0.45-0.29 0.33-0.43 0.76-0.43 1.31 0 0.69 0.3 1.28 0.88 1.76 0.59 0.48 1.34 0.72 2.25 0.72 0.94 0 1.79-0.15 2.55-0.46 0.74-0.3 1.43-0.86 2.08-1.66 0.66-0.81 1.27-1.91 1.83-3.33 0.57-1.39 1.13-3.2 1.7-5.41l3.06-12.3h3.2l0.46-1.5h-3.3c0.28-1.37 0.6-2.63 0.95-3.78 0.35-1.16 0.72-2.14 1.11-2.97 0.39-0.85 0.79-1.5 1.2-1.96 0.44-0.48 0.87-0.72 1.31-0.72 0.35 0 0.61 0.08 0.78 0.23s0.31 0.35 0.39 0.59c0.09 0.24 0.15 0.49 0.2 0.75 0.06 0.26 0.15 0.51 0.26 0.75 0.13 0.24 0.3 0.44 0.52 0.59 0.24 0.15 0.57 0.22 0.98 0.22 0.5 0 0.88-0.17 1.14-0.52 0.28-0.35 0.42-0.77 0.42-1.27 0-0.8-0.41-1.47-1.23-1.99-0.83-0.54-1.89-0.81-3.17-0.81zm25.38 0c-0.56 0-1.04 0.2-1.43 0.62-0.39 0.41-0.59 0.91-0.59 1.5 0 0.58 0.2 1.06 0.59 1.43 0.41 0.37 0.89 0.56 1.43 0.56 0.57 0 1.06-0.2 1.47-0.59 0.42-0.39 0.62-0.87 0.62-1.44 0-0.56-0.19-1.05-0.58-1.46-0.4-0.42-0.9-0.62-1.51-0.62zm24.16 0l-0.23 1.3c1.11 0.04 1.87 0.15 2.28 0.33 0.42 0.17 0.62 0.47 0.62 0.91 0 0.24-0.04 0.56-0.13 0.98-0.08 0.41-0.2 0.89-0.36 1.43l-6.45 22.12h2.74l0.75-2.25c0.8-2.4 1.56-4.45 2.28-6.17s1.4-3.13 2.05-4.24c0.68-1.11 1.34-1.92 1.99-2.44 0.66-0.52 1.32-0.79 1.99-0.79 0.4 0 0.67 0.11 0.82 0.33 0.17 0.2 0.26 0.54 0.26 1.04s-0.09 1.08-0.26 1.73c-0.15 0.65-0.42 1.53-0.78 2.64-0.48 1.37-0.87 2.51-1.18 3.43-0.28 0.89-0.51 1.65-0.68 2.28-0.16 0.61-0.27 1.12-0.33 1.53-0.07 0.42-0.1 0.81-0.1 1.18 0 0.72 0.13 1.24 0.39 1.56 0.27 0.33 0.69 0.49 1.28 0.49 0.54 0 1.12-0.12 1.72-0.35 0.64-0.27 1.24-0.6 1.83-1.02 0.61-0.43 1.16-0.93 1.66-1.5 0.53-0.56 0.96-1.16 1.31-1.79l-0.91-0.68c-0.66 0.91-1.31 1.63-1.96 2.15-0.63 0.5-1.16 0.75-1.6 0.75-0.41 0-0.62-0.25-0.62-0.75 0-0.09 0.01-0.2 0.03-0.33 0.05-0.13 0.12-0.37 0.23-0.72 0.11-0.37 0.29-0.89 0.52-1.56 0.24-0.68 0.58-1.6 1.01-2.77 0.46-1.24 0.8-2.34 1.02-3.3 0.21-0.96 0.32-1.79 0.32-2.51 0-1.15-0.27-2.03-0.81-2.64-0.55-0.61-1.34-0.91-2.38-0.91-1.01 0-1.96 0.28-2.87 0.84-0.92 0.55-1.72 1.33-2.42 2.35l-0.1-0.06 3.72-12.59h-6.65zm-376.32 0.03l-5.97 0.29-0.26 0.98c1.66 0 2.48 0.38 2.48 1.14 0 0.2-0.05 0.5-0.16 0.92l-0.33 1.17-4.34 15.95c-0.32 1.28-0.55 2.29-0.68 3.03s-0.19 1.33-0.19 1.76c0 0.76 0.17 1.31 0.52 1.63 0.37 0.33 0.93 0.49 1.69 0.49 0.5 0 1.05-0.15 1.63-0.45 0.61-0.33 1.21-0.75 1.8-1.28 0.58-0.52 1.14-1.11 1.66-1.79 0.52-0.69 0.95-1.41 1.27-2.15l-0.98-0.56c-0.13 0.24-0.33 0.58-0.62 1.02-0.28 0.41-0.61 0.82-0.97 1.23-0.35 0.4-0.72 0.74-1.11 1.05-0.4 0.28-0.76 0.42-1.11 0.42-0.24 0-0.42-0.07-0.53-0.23-0.1-0.15-0.16-0.32-0.16-0.52 0-0.3 0.05-0.67 0.13-1.11 0.09-0.45 0.22-0.98 0.39-1.56l5.84-21.43zm343.11 0l-5.97 0.29-0.25 0.98c1.65 0 2.47 0.38 2.47 1.14 0 0.2-0.05 0.5-0.16 0.92l-0.33 1.17-4.33 15.95c-0.33 1.28-0.56 2.29-0.69 3.03s-0.2 1.33-0.2 1.76c0 0.76 0.18 1.31 0.53 1.63 0.37 0.33 0.93 0.49 1.69 0.49 0.5 0 1.05-0.15 1.63-0.45 0.61-0.33 1.21-0.75 1.8-1.28 0.58-0.52 1.14-1.11 1.66-1.79 0.52-0.69 0.95-1.41 1.27-2.15l-0.98-0.56c-0.13 0.24-0.33 0.58-0.61 1.02-0.29 0.41-0.61 0.82-0.98 1.23-0.35 0.4-0.72 0.74-1.11 1.05-0.39 0.28-0.76 0.42-1.11 0.42-0.24 0-0.41-0.07-0.52-0.23-0.11-0.15-0.17-0.32-0.17-0.52 0-0.3 0.05-0.67 0.14-1.11 0.08-0.45 0.21-0.98 0.39-1.56l5.83-21.43zm-446.1 1.92l-0.43 1.31h0.62c0.26 0 0.55 0.01 0.85 0.03 0.33 0.02 0.62 0.09 0.88 0.2 0.28 0.08 0.51 0.21 0.69 0.39 0.19 0.17 0.29 0.42 0.29 0.75 0 0.19-0.03 0.42-0.1 0.68-0.04 0.26-0.11 0.53-0.19 0.82-0.09 0.28-0.18 0.54-0.26 0.78-0.07 0.24-0.12 0.44-0.17 0.59l-3.75 14.41c-0.22 0.85-0.44 1.53-0.68 2.03-0.22 0.5-0.49 0.89-0.82 1.17-0.3 0.26-0.69 0.44-1.17 0.52-0.46 0.09-1.03 0.13-1.73 0.13l-0.36 1.31h11.42c2.11 0 4.08-0.29 5.93-0.85 1.85-0.57 3.54-1.6 5.06-3.1 0.65-0.65 1.25-1.38 1.79-2.18 0.57-0.83 1.05-1.7 1.44-2.61 0.41-0.94 0.72-1.9 0.94-2.87 0.24-1.01 0.36-1.99 0.36-2.97 0-1.52-0.28-2.98-0.85-4.37-0.56-1.42-1.46-2.63-2.7-3.66-1.16-0.95-2.44-1.6-3.85-1.95-1.42-0.37-2.87-0.56-4.37-0.56h-8.84zm8.58 1.63c2.56 0 4.57 0.75 6.03 2.25 1.48 1.48 2.22 3.59 2.22 6.33 0 0.98-0.1 1.99-0.3 3.04-0.19 1.02-0.51 2.03-0.94 3.03-0.42 1-0.95 1.94-1.6 2.84-0.63 0.89-1.39 1.68-2.28 2.38-0.89 0.67-1.92 1.2-3.07 1.6-1.15 0.39-2.43 0.58-3.85 0.58-0.24 0-0.54-0.01-0.91-0.03-0.37-0.04-0.73-0.14-1.08-0.29-0.35-0.18-0.65-0.42-0.91-0.72-0.24-0.33-0.36-0.78-0.36-1.37 0-0.11 0.01-0.24 0.03-0.39s0.06-0.36 0.1-0.62c0.07-0.29 0.15-0.63 0.26-1.05 0.11-0.43 0.25-0.97 0.43-1.63l3.85-14.28c0.19-0.74 0.47-1.2 0.84-1.37 0.39-0.2 0.91-0.3 1.54-0.3zm60.51 1.8l-1.7 5.61h-2.84l-0.42 1.5h2.8l-2.41 7.99c-0.37 1.28-0.63 2.29-0.78 3.03s-0.23 1.33-0.23 1.76c0 0.76 0.16 1.31 0.49 1.63 0.35 0.33 0.9 0.49 1.66 0.49 0.52 0 1.1-0.15 1.73-0.45 0.65-0.33 1.29-0.75 1.92-1.28 0.64-0.52 1.23-1.11 1.8-1.79 0.56-0.69 1.03-1.41 1.4-2.15l-0.95-0.56c-0.15 0.24-0.39 0.58-0.71 1.02-0.31 0.41-0.67 0.82-1.08 1.23-0.39 0.4-0.8 0.74-1.24 1.05-0.43 0.28-0.85 0.42-1.24 0.42-0.24 0-0.41-0.07-0.52-0.23-0.09-0.15-0.13-0.32-0.13-0.52 0.02-0.61 0.22-1.5 0.59-2.67l2.7-8.97h3.56l0.46-1.5h-3.56l1.7-5.61h-3zm87.46 0l-1.69 5.61h-2.84l-0.43 1.5h2.81l-2.41 7.99c-0.37 1.28-0.63 2.29-0.79 3.03-0.15 0.74-0.23 1.33-0.23 1.76 0 0.76 0.17 1.31 0.49 1.63 0.35 0.33 0.91 0.49 1.67 0.49 0.52 0 1.09-0.15 1.73-0.45 0.65-0.33 1.29-0.75 1.92-1.28 0.63-0.52 1.23-1.11 1.79-1.79 0.57-0.69 1.04-1.41 1.41-2.15l-0.95-0.56c-0.15 0.24-0.39 0.58-0.72 1.02-0.3 0.41-0.66 0.82-1.07 1.23-0.39 0.4-0.81 0.74-1.24 1.05-0.44 0.28-0.85 0.42-1.24 0.42-0.24 0-0.41-0.07-0.52-0.23-0.09-0.15-0.13-0.32-0.13-0.52 0.02-0.61 0.21-1.5 0.58-2.67l2.71-8.97h3.56l0.45-1.5h-3.55l1.69-5.61h-3zm87.28 0l-1.7 5.61h-2.84l-0.42 1.5h2.8l-2.41 7.99c-0.37 1.28-0.63 2.29-0.78 3.03s-0.23 1.33-0.23 1.76c0 0.76 0.16 1.31 0.49 1.63 0.35 0.33 0.9 0.49 1.66 0.49 0.52 0 1.1-0.15 1.73-0.45 0.65-0.33 1.29-0.75 1.92-1.28 0.64-0.52 1.23-1.11 1.8-1.79 0.57-0.69 1.03-1.41 1.4-2.15l-0.94-0.56c-0.16 0.24-0.4 0.58-0.72 1.02-0.31 0.41-0.67 0.82-1.08 1.23-0.39 0.4-0.8 0.74-1.24 1.05-0.43 0.28-0.85 0.42-1.24 0.42-0.24 0-0.41-0.07-0.52-0.23-0.09-0.15-0.13-0.32-0.13-0.52 0.02-0.61 0.22-1.5 0.59-2.67l2.71-8.97h3.55l0.46-1.5h-3.56l1.7-5.61h-3zm20.38 0l-1.69 5.61h-2.84l-0.43 1.5h2.81l-2.41 7.99c-0.37 1.28-0.63 2.29-0.79 3.03-0.15 0.74-0.23 1.33-0.23 1.76 0 0.76 0.17 1.31 0.5 1.63 0.34 0.33 0.9 0.49 1.66 0.49 0.52 0 1.1-0.15 1.73-0.45 0.65-0.33 1.29-0.75 1.92-1.28 0.63-0.52 1.23-1.11 1.79-1.79 0.57-0.69 1.04-1.41 1.41-2.15l-0.95-0.56c-0.15 0.24-0.39 0.58-0.72 1.02-0.3 0.41-0.66 0.82-1.07 1.23-0.39 0.4-0.81 0.74-1.24 1.05-0.44 0.28-0.85 0.42-1.24 0.42-0.24 0-0.41-0.07-0.52-0.23-0.09-0.15-0.13-0.32-0.13-0.52 0.02-0.61 0.21-1.5 0.58-2.67l2.71-8.97h3.56l0.45-1.5h-3.55l1.69-5.61h-3zm67.97 0l-1.54 5.22c-1.1 0.45-2.16 1.05-3.16 1.79-1 0.72-1.9 1.53-2.71 2.45l0.88 0.91c0.66-0.7 1.36-1.34 2.13-1.93 0.76-0.6 1.55-1.13 2.38-1.56l-5.91 20.16c-0.17 0.56-0.47 0.95-0.88 1.17s-1.07 0.33-1.99 0.33l-0.19 1.3h9.23l0.19-1.3c-1.13-0.03-1.92-0.14-2.38-0.36-0.43-0.22-0.65-0.6-0.65-1.14 0-0.18 0.01-0.37 0.03-0.59 0.04-0.22 0.12-0.49 0.23-0.82l1.21-4.53c1.61-0.22 3.15-0.65 4.63-1.3 1.5-0.68 2.81-1.52 3.95-2.52 1.15-1 2.06-2.13 2.74-3.39 0.69-1.28 1.04-2.64 1.04-4.07 0-1.81-0.51-3.21-1.53-4.21-1.03-1-2.46-1.5-4.31-1.5-0.35 0-0.69 0.02-1.04 0.06-0.33 0.05-0.67 0.1-1.01 0.16l1.14-4.33h-2.48zm168.63 0l-1.7 5.61h-2.83l-0.43 1.5h2.81l-2.42 7.99c-0.37 1.28-0.63 2.29-0.78 3.03s-0.23 1.33-0.23 1.76c0 0.76 0.17 1.31 0.49 1.63 0.35 0.33 0.9 0.49 1.66 0.49 0.53 0 1.1-0.15 1.73-0.45 0.66-0.33 1.3-0.75 1.93-1.28 0.63-0.52 1.23-1.11 1.79-1.79 0.57-0.69 1.03-1.41 1.4-2.15l-0.94-0.56c-0.15 0.24-0.39 0.58-0.72 1.02-0.3 0.41-0.66 0.82-1.08 1.23-0.39 0.4-0.8 0.74-1.23 1.05-0.44 0.28-0.85 0.42-1.24 0.42-0.24 0-0.42-0.07-0.53-0.23-0.08-0.15-0.13-0.32-0.13-0.52 0.03-0.61 0.22-1.5 0.59-2.67l2.71-8.97h3.55l0.46-1.5h-3.55l1.69-5.61h-3zm-457.96 4.04c-1.05 0-2.05 0.2-3 0.59-0.94 0.39-1.77 0.93-2.48 1.63-0.7 0.67-1.25 1.47-1.67 2.38-0.41 0.89-0.62 1.84-0.62 2.84 0 1.85 0.83 3.36 2.48 4.53l-0.06 0.13c-1.44 0.44-2.44 0.87-3 1.31-0.55 0.43-0.82 0.97-0.82 1.6 0 0.97 0.55 1.74 1.66 2.28s2.85 1.02 5.22 1.43c1.33 0.24 2.35 0.6 3.07 1.08 0.74 0.5 1.11 1.05 1.11 1.66 0 0.37-0.15 0.74-0.46 1.11-0.28 0.39-0.7 0.74-1.24 1.05-0.52 0.3-1.15 0.55-1.89 0.75-0.74 0.19-1.54 0.29-2.41 0.29-1.61 0-2.89-0.26-3.82-0.78-0.91-0.52-1.37-1.24-1.37-2.16 0-1.39 0.61-2.33 1.83-2.83-0.37-0.18-0.68-0.3-0.92-0.36-0.24-0.07-0.49-0.1-0.75-0.1-0.89 0-1.62 0.29-2.18 0.88-0.59 0.59-0.88 1.33-0.88 2.22 0 0.7 0.19 1.32 0.58 1.86 0.37 0.56 0.92 1.05 1.64 1.47 0.69 0.41 1.53 0.72 2.51 0.94s2.06 0.33 3.26 0.33c1.33 0 2.52-0.14 3.59-0.43 1.06-0.28 1.96-0.69 2.7-1.24 0.76-0.52 1.34-1.16 1.73-1.92 0.42-0.74 0.62-1.58 0.62-2.51 0-0.87-0.25-1.57-0.75-2.09-0.48-0.5-1.09-0.89-1.82-1.17-0.74-0.31-1.54-0.54-2.39-0.69-0.84-0.15-1.64-0.3-2.38-0.45-0.74-0.16-1.36-0.34-1.86-0.56-0.47-0.24-0.71-0.59-0.71-1.04 0-0.35 0.21-0.61 0.65-0.79 0.45-0.17 1.21-0.3 2.25-0.39 2.33-0.17 4.15-0.96 5.48-2.38 1.32-1.43 1.99-3.35 1.99-5.74 0-0.41-0.02-0.75-0.07-1.01-0.04-0.28-0.12-0.58-0.22-0.88 0.34-0.24 0.58-0.38 0.71-0.42 0.13-0.07 0.27-0.1 0.43-0.1 0.28 0 0.5 0.07 0.65 0.23 0.17 0.13 0.32 0.28 0.46 0.45 0.13 0.18 0.28 0.34 0.45 0.49 0.2 0.13 0.46 0.2 0.78 0.2 0.44 0 0.8-0.14 1.08-0.43 0.31-0.3 0.46-0.67 0.46-1.11 0-0.56-0.26-1.05-0.78-1.46-0.53-0.44-1.14-0.65-1.83-0.65-0.96 0-1.95 0.57-2.97 1.72-1.09-1.17-2.44-1.76-4.04-1.76zm424.2 0c-1.04 0-2.04 0.2-3 0.59-0.93 0.39-1.76 0.93-2.48 1.63-0.69 0.67-1.25 1.47-1.66 2.38-0.41 0.89-0.62 1.84-0.62 2.84 0 1.85 0.83 3.36 2.48 4.53l-0.07 0.13c-1.43 0.44-2.43 0.87-3 1.31-0.54 0.43-0.81 0.97-0.81 1.6 0 0.97 0.55 1.74 1.66 2.28s2.85 1.02 5.22 1.43c1.33 0.24 2.35 0.6 3.06 1.08 0.74 0.5 1.11 1.05 1.11 1.66 0 0.37-0.15 0.74-0.45 1.11-0.29 0.39-0.7 0.74-1.24 1.05-0.52 0.3-1.16 0.55-1.89 0.75-0.74 0.19-1.55 0.29-2.42 0.29-1.61 0-2.88-0.26-3.81-0.78-0.92-0.52-1.37-1.24-1.37-2.16 0-1.39 0.6-2.33 1.82-2.83-0.37-0.18-0.67-0.3-0.91-0.36-0.24-0.07-0.49-0.1-0.75-0.1-0.89 0-1.62 0.29-2.19 0.88-0.58 0.59-0.88 1.33-0.88 2.22 0 0.7 0.2 1.32 0.59 1.86 0.37 0.56 0.91 1.05 1.63 1.47 0.7 0.41 1.53 0.72 2.51 0.94s2.07 0.33 3.26 0.33c1.33 0 2.53-0.14 3.59-0.43 1.07-0.28 1.97-0.69 2.71-1.24 0.76-0.52 1.34-1.16 1.73-1.92 0.41-0.74 0.62-1.58 0.62-2.51 0-0.87-0.25-1.57-0.75-2.09-0.48-0.5-1.09-0.89-1.83-1.17-0.74-0.31-1.53-0.54-2.38-0.69s-1.64-0.3-2.38-0.45c-0.74-0.16-1.36-0.34-1.86-0.56-0.48-0.24-0.72-0.59-0.72-1.04 0-0.35 0.22-0.61 0.65-0.79 0.46-0.17 1.21-0.3 2.25-0.39 2.33-0.17 4.16-0.96 5.49-2.38 1.32-1.43 1.99-3.35 1.99-5.74 0-0.41-0.03-0.75-0.07-1.01-0.04-0.28-0.12-0.58-0.23-0.88 0.35-0.24 0.59-0.38 0.72-0.42 0.13-0.07 0.27-0.1 0.42-0.1 0.29 0 0.5 0.07 0.66 0.23 0.17 0.13 0.32 0.28 0.45 0.45 0.13 0.18 0.28 0.34 0.46 0.49 0.19 0.13 0.45 0.2 0.78 0.2 0.44 0 0.79-0.14 1.08-0.43 0.3-0.3 0.45-0.67 0.45-1.11 0-0.56-0.26-1.05-0.78-1.46-0.52-0.44-1.13-0.65-1.83-0.65-0.95 0-1.94 0.57-2.96 1.72-1.09-1.17-2.44-1.76-4.05-1.76zm-437.99 0.04c-0.57 0-1.17 0.17-1.8 0.52-0.63 0.32-1.24 0.74-1.82 1.24-0.59 0.5-1.12 1.04-1.6 1.63-0.46 0.58-0.82 1.12-1.08 1.6l0.95 0.58c0.08-0.17 0.24-0.41 0.45-0.72 0.22-0.3 0.47-0.61 0.75-0.91 0.29-0.3 0.57-0.56 0.85-0.78 0.28-0.24 0.55-0.36 0.79-0.36 0.1 0 0.2 0.05 0.29 0.16 0.11 0.09 0.16 0.29 0.16 0.59s-0.06 0.72-0.19 1.24-0.35 1.21-0.66 2.05l-1.46 4.18c-0.4 1.11-0.7 2.03-0.92 2.77-0.19 0.72-0.29 1.39-0.29 2.02 0 0.76 0.15 1.31 0.46 1.63 0.32 0.33 0.8 0.49 1.43 0.49 0.72 0 1.41-0.17 2.09-0.52 0.67-0.37 1.29-0.81 1.86-1.33 0.56-0.55 1.06-1.14 1.5-1.77 0.46-0.63 0.81-1.2 1.07-1.72l-0.97-0.56c-0.13 0.22-0.33 0.52-0.59 0.91-0.26 0.37-0.56 0.74-0.88 1.11-0.33 0.37-0.66 0.7-1.01 0.98-0.35 0.26-0.69 0.39-1.01 0.39-0.24 0-0.42-0.07-0.53-0.23-0.1-0.15-0.16-0.32-0.16-0.52 0-0.15 0.02-0.35 0.07-0.58l0.19-0.72c0.09-0.26 0.17-0.5 0.23-0.72 0.09-0.24 0.15-0.41 0.2-0.52l1.2-3.3c0.61-1.67 1.1-3.04 1.47-4.11 0.39-1.06 0.59-1.91 0.59-2.54 0-0.83-0.14-1.39-0.43-1.7-0.26-0.32-0.66-0.48-1.2-0.48zm29.17 0c-0.56 0-1.16 0.17-1.79 0.52-0.63 0.32-1.24 0.74-1.83 1.24-0.58 0.5-1.12 1.04-1.59 1.63-0.46 0.58-0.82 1.12-1.08 1.6l0.94 0.58c0.09-0.17 0.24-0.41 0.46-0.72 0.22-0.3 0.47-0.61 0.75-0.91s0.57-0.56 0.85-0.78c0.28-0.24 0.54-0.36 0.78-0.36 0.11 0 0.21 0.05 0.3 0.16 0.1 0.09 0.16 0.29 0.16 0.59s-0.07 0.72-0.2 1.24-0.35 1.21-0.65 2.05l-1.47 4.18c-0.39 1.11-0.69 2.03-0.91 2.77-0.2 0.72-0.29 1.39-0.29 2.02 0 0.76 0.15 1.31 0.45 1.63 0.33 0.33 0.81 0.49 1.44 0.49 0.71 0 1.41-0.17 2.08-0.52 0.68-0.37 1.3-0.81 1.86-1.33 0.57-0.55 1.07-1.14 1.5-1.77 0.46-0.63 0.82-1.2 1.08-1.72l-0.98-0.56c-0.13 0.22-0.32 0.52-0.58 0.91-0.26 0.37-0.56 0.74-0.88 1.11-0.33 0.37-0.67 0.7-1.02 0.98-0.34 0.26-0.68 0.39-1.01 0.39-0.24 0-0.41-0.07-0.52-0.23-0.11-0.15-0.16-0.32-0.16-0.52 0-0.15 0.02-0.35 0.06-0.58l0.2-0.72c0.08-0.26 0.16-0.5 0.23-0.72 0.08-0.24 0.15-0.41 0.19-0.52l1.21-3.3c0.61-1.67 1.1-3.04 1.47-4.11 0.39-1.06 0.58-1.91 0.58-2.54 0-0.83-0.14-1.39-0.42-1.7-0.26-0.32-0.66-0.48-1.21-0.48zm26.58 0c-1.17 0-2.36 0.41-3.58 1.23-1.22 0.81-2.33 1.85-3.33 3.13-1 1.27-1.81 2.68-2.44 4.24-0.64 1.57-0.95 3.1-0.95 4.6 0 1.48 0.3 2.65 0.91 3.49 0.63 0.83 1.5 1.24 2.61 1.24 0.54 0 1.1-0.1 1.67-0.32 0.56-0.2 1.1-0.48 1.63-0.85 0.52-0.39 0.99-0.84 1.43-1.34 0.46-0.52 0.85-1.09 1.18-1.69l0.12 0.03c-0.04 0.43-0.07 0.78-0.09 1.04v0.69c0 0.87 0.13 1.5 0.39 1.89 0.28 0.37 0.67 0.55 1.17 0.55 0.98 0 1.99-0.43 3.04-1.3 1.06-0.89 2.05-2.14 2.97-3.75l-0.85-0.69c-0.72 1-1.37 1.82-1.96 2.45-0.57 0.63-1 0.95-1.31 0.95-0.41 0-0.62-0.32-0.62-0.95 0-0.35 0.07-0.88 0.2-1.6s0.31-1.51 0.52-2.38c0.24-0.87 0.5-1.77 0.78-2.71 0.31-0.93 0.61-1.81 0.92-2.64l1.86-4.99h-2.71l-0.68 1.83c-0.29-0.76-0.66-1.31-1.11-1.63-0.46-0.35-1.05-0.52-1.77-0.52zm25.34 0c-0.56 0-1.16 0.17-1.79 0.52-0.63 0.32-1.24 0.74-1.83 1.24s-1.12 1.04-1.6 1.63c-0.45 0.58-0.81 1.12-1.07 1.6l0.94 0.58c0.09-0.17 0.24-0.41 0.46-0.72 0.22-0.3 0.47-0.61 0.75-0.91s0.56-0.56 0.85-0.78c0.28-0.24 0.54-0.36 0.78-0.36 0.11 0 0.21 0.05 0.29 0.16 0.11 0.09 0.17 0.29 0.17 0.59s-0.07 0.72-0.2 1.24-0.35 1.21-0.65 2.05l-1.47 4.18c-0.39 1.11-0.69 2.03-0.91 2.77-0.2 0.72-0.3 1.39-0.3 2.02 0 0.76 0.16 1.31 0.46 1.63 0.33 0.33 0.81 0.49 1.44 0.49 0.71 0 1.41-0.17 2.08-0.52 0.68-0.37 1.3-0.81 1.86-1.33 0.57-0.55 1.07-1.14 1.5-1.77 0.46-0.63 0.82-1.2 1.08-1.72l-0.98-0.56c-0.13 0.22-0.33 0.52-0.59 0.91-0.26 0.37-0.55 0.74-0.88 1.11-0.32 0.37-0.66 0.7-1.01 0.98-0.34 0.26-0.68 0.39-1.01 0.39-0.24 0-0.41-0.07-0.52-0.23-0.11-0.15-0.16-0.32-0.16-0.52 0-0.15 0.02-0.35 0.06-0.58l0.2-0.72c0.08-0.26 0.16-0.5 0.23-0.72 0.08-0.24 0.15-0.41 0.19-0.52l1.21-3.3c0.61-1.67 1.1-3.04 1.47-4.11 0.39-1.06 0.58-1.91 0.58-2.54 0-0.83-0.14-1.39-0.42-1.7-0.26-0.32-0.66-0.48-1.21-0.48zm10.82 0c-0.71 0-1.39 0.11-2.02 0.35s-1.18 0.57-1.66 0.98c-0.46 0.41-0.82 0.9-1.08 1.47-0.26 0.54-0.39 1.14-0.39 1.79 0 0.79 0.18 1.41 0.55 1.86 0.39 0.44 0.94 0.65 1.63 0.65 1.07 0 1.6-0.5 1.6-1.5 0-0.39-0.08-0.68-0.26-0.88-0.17-0.19-0.37-0.35-0.58-0.48-0.2-0.16-0.38-0.31-0.56-0.46-0.17-0.15-0.26-0.38-0.26-0.69 0-0.3 0.1-0.54 0.29-0.71 0.22-0.2 0.51-0.3 0.88-0.3 0.46 0 0.94 0.14 1.44 0.43 0.52 0.28 1.03 0.59 1.53 0.94 0.52 0.35 1.02 0.66 1.5 0.95 0.5 0.28 0.97 0.42 1.4 0.42l0.07 0.1-9 8.71c-0.74 0.72-1.29 1.29-1.63 1.73-0.35 0.43-0.53 0.86-0.53 1.27 0 0.65 0.36 0.98 1.08 0.98 0.48 0 0.8-0.13 0.95-0.39 0.17-0.29 0.31-0.59 0.42-0.92 0.11-0.34 0.24-0.65 0.39-0.91 0.18-0.28 0.49-0.42 0.95-0.42 0.48 0 0.92 0.15 1.34 0.45 0.43 0.31 0.88 0.65 1.33 1.05 0.46 0.37 0.96 0.7 1.5 1.01 0.57 0.3 1.23 0.45 1.99 0.45 0.63 0 1.24-0.13 1.83-0.39 0.61-0.26 1.16-0.63 1.66-1.11 0.53-0.48 0.98-1.04 1.37-1.69 0.39-0.68 0.7-1.42 0.92-2.22l-1.11-0.43c-0.39 1.05-0.82 1.77-1.28 2.16-0.45 0.39-1 0.58-1.63 0.58-0.5 0-1.01-0.1-1.53-0.32-0.52-0.24-1.04-0.49-1.56-0.75-0.53-0.28-1.05-0.53-1.57-0.75-0.5-0.24-0.99-0.36-1.47-0.36l-0.06-0.1 8.61-8.25 1.14-1.14c0.3-0.31 0.52-0.57 0.65-0.78 0.15-0.22 0.25-0.41 0.3-0.56 0.04-0.15 0.06-0.31 0.06-0.49 0-0.67-0.31-1.01-0.95-1.01-0.36 0-0.64 0.12-0.81 0.36-0.15 0.22-0.3 0.47-0.46 0.75-0.13 0.28-0.29 0.54-0.49 0.78-0.17 0.22-0.44 0.33-0.81 0.33-0.39 0-0.76-0.13-1.11-0.39s-0.73-0.56-1.14-0.88c-0.39-0.33-0.86-0.62-1.41-0.88-0.54-0.27-1.21-0.39-2.02-0.39zm20.8 0c-1.18 0-2.37 0.41-3.59 1.23-1.22 0.81-2.33 1.85-3.33 3.13-1 1.27-1.81 2.68-2.44 4.24-0.63 1.57-0.95 3.1-0.95 4.6 0 1.48 0.3 2.65 0.91 3.49 0.63 0.83 1.5 1.24 2.61 1.24 0.55 0 1.1-0.1 1.67-0.32 0.56-0.2 1.11-0.48 1.63-0.85 0.52-0.39 1-0.84 1.43-1.34 0.46-0.52 0.85-1.09 1.18-1.69l0.13 0.03c-0.05 0.43-0.08 0.78-0.1 1.04v0.69c0 0.87 0.13 1.5 0.39 1.89 0.28 0.37 0.67 0.55 1.17 0.55 0.98 0 1.99-0.43 3.04-1.3 1.06-0.89 2.05-2.14 2.97-3.75l-0.85-0.69c-0.72 1-1.37 1.82-1.96 2.45-0.56 0.63-1 0.95-1.3 0.95-0.42 0-0.62-0.32-0.62-0.95 0-0.35 0.06-0.88 0.19-1.6s0.31-1.51 0.52-2.38c0.24-0.87 0.51-1.77 0.79-2.71 0.3-0.93 0.61-1.81 0.91-2.64l1.86-4.99h-2.71l-0.68 1.83c-0.29-0.76-0.66-1.31-1.11-1.63-0.46-0.35-1.04-0.52-1.76-0.52zm27.05 0c-0.56 0-1.16 0.17-1.79 0.52-0.63 0.32-1.24 0.74-1.83 1.24-0.58 0.5-1.12 1.04-1.59 1.63-0.46 0.58-0.82 1.12-1.08 1.6l0.94 0.58c0.09-0.17 0.24-0.41 0.46-0.72 0.22-0.3 0.47-0.61 0.75-0.91s0.57-0.56 0.85-0.78c0.28-0.24 0.54-0.36 0.78-0.36 0.11 0 0.21 0.05 0.3 0.16 0.1 0.09 0.16 0.29 0.16 0.59s-0.07 0.72-0.2 1.24-0.34 1.21-0.65 2.05l-1.47 4.18c-0.39 1.11-0.69 2.03-0.91 2.77-0.2 0.72-0.29 1.39-0.29 2.02 0 0.76 0.15 1.31 0.45 1.63 0.33 0.33 0.81 0.49 1.44 0.49 0.72 0 1.41-0.17 2.09-0.52 0.67-0.37 1.29-0.81 1.85-1.33 0.57-0.55 1.07-1.14 1.51-1.77 0.45-0.63 0.81-1.2 1.07-1.72l-0.98-0.56c-0.13 0.22-0.32 0.52-0.58 0.91-0.27 0.37-0.56 0.74-0.89 1.11-0.32 0.37-0.66 0.7-1 0.98-0.35 0.26-0.69 0.39-1.02 0.39-0.24 0-0.41-0.07-0.52-0.23-0.11-0.15-0.16-0.32-0.16-0.52 0-0.15 0.02-0.35 0.06-0.58l0.2-0.72c0.09-0.26 0.16-0.5 0.23-0.72 0.09-0.24 0.15-0.41 0.19-0.52l1.21-3.3c0.61-1.67 1.1-3.04 1.47-4.11 0.39-1.06 0.59-1.91 0.59-2.54 0-0.83-0.15-1.39-0.43-1.7-0.26-0.32-0.66-0.48-1.21-0.48zm14.18 0c-1.19 0-2.36 0.32-3.49 0.97-1.11 0.66-2.1 1.51-2.96 2.58-0.87 1.07-1.58 2.28-2.12 3.65-0.53 1.37-0.79 2.76-0.79 4.18 0 1.02 0.14 1.94 0.43 2.77 0.28 0.8 0.66 1.49 1.14 2.05 0.48 0.57 1.03 1 1.66 1.31 0.65 0.28 1.35 0.42 2.09 0.42 1.17 0 2.33-0.34 3.46-1.04 1.13-0.72 2.13-1.63 3-2.74 0.89-1.11 1.61-2.36 2.15-3.75s0.81-2.77 0.81-4.14c0-0.94-0.14-1.79-0.42-2.55-0.26-0.78-0.63-1.44-1.11-1.99-0.45-0.56-1.02-0.99-1.69-1.27-0.66-0.3-1.37-0.45-2.16-0.45zm13.29 0c-1.21 0-2.3 0.53-3.26 1.59-0.93 1.07-1.78 2.72-2.54 4.96l0.98 0.49c0.21-0.65 0.47-1.29 0.78-1.92 0.3-0.63 0.62-1.19 0.95-1.67 0.34-0.5 0.68-0.9 1.01-1.2 0.32-0.31 0.61-0.46 0.84-0.46 0.37 0 0.56 0.29 0.56 0.88 0 0.22-0.03 0.51-0.1 0.88-0.07 0.35-0.18 0.82-0.36 1.4-0.15 0.57-0.36 1.28-0.62 2.12-0.26 0.85-0.59 1.87-0.98 3.07l-2.41 7.47h2.87l2.41-6.52c0.44-1.18 0.97-2.33 1.6-3.46s1.28-2.13 1.96-3c0.69-0.9 1.37-1.6 2.02-2.12 0.68-0.55 1.27-0.82 1.79-0.82 0.59 0 0.89 0.4 0.89 1.21 0 0.19-0.03 0.4-0.07 0.62-0.02 0.21-0.08 0.48-0.16 0.78-0.07 0.28-0.17 0.62-0.3 1.01s-0.29 0.87-0.49 1.44c-0.58 1.63-1.05 2.94-1.4 3.94-0.32 0.98-0.57 1.76-0.75 2.35-0.17 0.59-0.29 1.05-0.36 1.37-0.04 0.31-0.06 0.61-0.06 0.92 0 0.78 0.15 1.41 0.46 1.89 0.32 0.47 0.76 0.71 1.3 0.71 0.43 0 0.95-0.15 1.53-0.45 0.59-0.31 1.18-0.71 1.76-1.21 0.61-0.5 1.19-1.05 1.73-1.66 0.57-0.63 1.02-1.28 1.37-1.93l-0.85-0.45c-1 1.1-1.79 1.91-2.38 2.41-0.58 0.5-1.03 0.75-1.33 0.75-0.22 0-0.33-0.16-0.33-0.49 0-0.41 0.16-1.12 0.49-2.12 0.32-1 0.74-2.24 1.24-3.72 0.32-0.98 0.6-1.8 0.81-2.48 0.24-0.67 0.43-1.25 0.56-1.73 0.13-0.5 0.22-0.92 0.26-1.27 0.06-0.34 0.1-0.66 0.1-0.94 0-0.85-0.25-1.5-0.75-1.96s-1.23-0.68-2.19-0.68c-1.35 0-2.6 0.45-3.75 1.36-1.13 0.9-2.25 2.32-3.36 4.28l-0.1-0.1c0.37-0.87 0.56-1.86 0.56-2.97 0-0.93-0.15-1.6-0.46-1.99-0.28-0.39-0.77-0.58-1.47-0.58zm32.75 0c-1.17 0-2.37 0.41-3.59 1.23-1.21 0.81-2.32 1.85-3.32 3.13-1 1.27-1.82 2.68-2.45 4.24-0.63 1.57-0.95 3.1-0.95 4.6 0 1.48 0.31 2.65 0.92 3.49 0.63 0.83 1.5 1.24 2.61 1.24 0.54 0 1.1-0.1 1.66-0.32 0.57-0.2 1.11-0.48 1.63-0.85 0.52-0.39 1-0.84 1.44-1.34 0.45-0.52 0.84-1.09 1.17-1.69l0.13 0.03c-0.04 0.43-0.07 0.78-0.1 1.04v0.69c0 0.87 0.14 1.5 0.4 1.89 0.28 0.37 0.67 0.55 1.17 0.55 0.98 0 1.99-0.43 3.03-1.3 1.07-0.89 2.06-2.14 2.97-3.75l-0.85-0.69c-0.72 1-1.37 1.82-1.95 2.45-0.57 0.63-1.01 0.95-1.31 0.95-0.41 0-0.62-0.32-0.62-0.95 0-0.35 0.07-0.88 0.2-1.6s0.3-1.51 0.52-2.38c0.24-0.87 0.5-1.77 0.78-2.71 0.31-0.93 0.61-1.81 0.92-2.64l1.85-4.99h-2.7l-0.69 1.83c-0.28-0.76-0.65-1.31-1.11-1.63-0.45-0.35-1.04-0.52-1.76-0.52zm69.89 0c-1.24 0-2.48 0.37-3.72 1.14-1.24 0.74-2.36 1.71-3.36 2.93-1 1.2-1.81 2.55-2.44 4.05-0.61 1.5-0.92 3-0.92 4.5 0 1.69 0.41 3.01 1.21 3.94 0.81 0.92 1.96 1.37 3.46 1.37 2.76 0 5.09-1.55 6.98-4.66l-1.05-0.68c-0.74 1.1-1.54 1.97-2.41 2.6-0.85 0.63-1.67 0.95-2.48 0.95-1.67 0-2.51-1.18-2.51-3.55 0-0.31 0.01-0.6 0.03-0.89 0.02-0.3 0.06-0.61 0.1-0.91 1.46-0.33 2.83-0.78 4.11-1.37 1.3-0.59 2.44-1.24 3.39-1.96 0.98-0.71 1.75-1.47 2.32-2.28 0.56-0.8 0.85-1.59 0.85-2.35 0-0.82-0.34-1.5-1.02-2.02-0.65-0.54-1.49-0.81-2.54-0.81zm20.86 0c-0.78 0-1.51 0.12-2.19 0.39-0.65 0.23-1.21 0.58-1.69 1.04-0.48 0.44-0.86 0.96-1.14 1.57-0.27 0.6-0.39 1.27-0.39 1.99 0 0.97 0.21 1.82 0.65 2.54 0.43 0.72 0.91 1.4 1.43 2.05 0.52 0.63 1 1.29 1.44 1.96 0.43 0.67 0.65 1.45 0.65 2.32 0 0.82-0.23 1.48-0.69 1.95-0.45 0.46-1.07 0.69-1.85 0.69-0.5 0-0.84-0.11-1.02-0.33-0.15-0.24-0.26-0.7-0.32-1.4-0.13-1.28-0.66-1.93-1.6-1.93-0.5 0-0.9 0.19-1.21 0.56-0.28 0.35-0.42 0.84-0.42 1.47 0 0.91 0.38 1.65 1.14 2.22 0.78 0.56 1.83 0.84 3.13 0.84 0.74 0 1.46-0.14 2.15-0.42 0.7-0.28 1.31-0.66 1.83-1.14 0.55-0.5 0.97-1.08 1.27-1.73 0.33-0.65 0.49-1.35 0.49-2.09 0-1.09-0.22-2.03-0.65-2.84-0.41-0.8-0.88-1.54-1.4-2.21-0.53-0.68-1-1.32-1.44-1.93-0.41-0.63-0.62-1.3-0.62-2.02 0-0.61 0.17-1.12 0.49-1.53 0.33-0.42 0.73-0.62 1.21-0.62 0.41 0 0.71 0.15 0.88 0.45 0.17 0.31 0.34 0.64 0.49 1.01 0.15 0.35 0.34 0.68 0.55 0.98 0.22 0.29 0.58 0.43 1.08 0.43 0.43 0 0.77-0.13 1.01-0.39 0.26-0.26 0.39-0.62 0.39-1.08 0-0.83-0.35-1.5-1.04-2.02-0.7-0.52-1.57-0.78-2.61-0.78zm33.74 0c-1.24 0-2.48 0.37-3.72 1.14-1.24 0.74-2.36 1.71-3.36 2.93-1 1.2-1.82 2.55-2.45 4.05-0.61 1.5-0.91 3-0.91 4.5 0 1.69 0.4 3.01 1.2 3.94 0.81 0.92 1.96 1.37 3.46 1.37 2.76 0 5.09-1.55 6.98-4.66l-1.04-0.68c-0.74 1.1-1.54 1.97-2.41 2.6-0.85 0.63-1.68 0.95-2.48 0.95-1.68 0-2.51-1.18-2.51-3.55 0-0.31 0.01-0.6 0.03-0.89 0.02-0.3 0.05-0.61 0.1-0.91 1.45-0.33 2.82-0.78 4.11-1.37 1.3-0.59 2.43-1.24 3.39-1.96 0.98-0.71 1.75-1.47 2.31-2.28 0.57-0.8 0.85-1.59 0.85-2.35 0-0.82-0.34-1.5-1.01-2.02-0.65-0.54-1.5-0.81-2.54-0.81zm14.84 0c-1.24 0-2.48 0.37-3.72 1.14-1.24 0.74-2.36 1.71-3.36 2.93-1 1.2-1.81 2.55-2.44 4.05-0.61 1.5-0.92 3-0.92 4.5 0 1.69 0.4 3.01 1.21 3.94 0.8 0.92 1.96 1.37 3.46 1.37 2.76 0 5.08-1.55 6.98-4.66l-1.05-0.68c-0.74 1.1-1.54 1.97-2.41 2.6-0.85 0.63-1.68 0.95-2.48 0.95-1.68 0-2.51-1.18-2.51-3.55 0-0.31 0.01-0.6 0.03-0.89 0.02-0.3 0.05-0.61 0.1-0.91 1.45-0.33 2.83-0.78 4.11-1.37 1.3-0.59 2.43-1.24 3.39-1.96 0.98-0.71 1.75-1.47 2.32-2.28 0.56-0.8 0.84-1.59 0.84-2.35 0-0.82-0.33-1.5-1.01-2.02-0.65-0.54-1.5-0.81-2.54-0.81zm41.55 0c-1.2 0-2.36 0.32-3.49 0.97-1.11 0.66-2.1 1.51-2.97 2.58s-1.58 2.28-2.12 3.65c-0.52 1.37-0.78 2.76-0.78 4.18 0 1.02 0.14 1.94 0.42 2.77 0.28 0.8 0.66 1.49 1.14 2.05 0.48 0.57 1.04 1 1.67 1.31 0.65 0.28 1.34 0.42 2.08 0.42 1.18 0 2.33-0.34 3.46-1.04 1.13-0.72 2.13-1.63 3-2.74 0.89-1.11 1.61-2.36 2.15-3.75 0.55-1.39 0.82-2.77 0.82-4.14 0-0.94-0.14-1.79-0.42-2.55-0.26-0.78-0.63-1.44-1.11-1.99-0.46-0.56-1.03-0.99-1.7-1.27-0.65-0.3-1.37-0.45-2.15-0.45zm43.34 0c-0.56 0-1.16 0.17-1.79 0.52-0.63 0.32-1.24 0.74-1.83 1.24-0.58 0.5-1.12 1.04-1.59 1.63-0.46 0.58-0.82 1.12-1.08 1.6l0.94 0.58c0.09-0.17 0.24-0.41 0.46-0.72 0.22-0.3 0.47-0.61 0.75-0.91s0.57-0.56 0.85-0.78c0.28-0.24 0.54-0.36 0.78-0.36 0.11 0 0.21 0.05 0.3 0.16 0.1 0.09 0.16 0.29 0.16 0.59s-0.07 0.72-0.2 1.24-0.34 1.21-0.65 2.05l-1.47 4.18c-0.39 1.11-0.69 2.03-0.91 2.77-0.2 0.72-0.29 1.39-0.29 2.02 0 0.76 0.15 1.31 0.45 1.63 0.33 0.33 0.81 0.49 1.44 0.49 0.72 0 1.41-0.17 2.08-0.52 0.68-0.37 1.3-0.81 1.86-1.33 0.57-0.55 1.07-1.14 1.51-1.77 0.45-0.63 0.81-1.2 1.07-1.72l-0.98-0.56c-0.13 0.22-0.32 0.52-0.58 0.91-0.27 0.37-0.56 0.74-0.89 1.11-0.32 0.37-0.66 0.7-1.01 0.98-0.35 0.26-0.68 0.39-1.01 0.39-0.24 0-0.41-0.07-0.52-0.23-0.11-0.15-0.16-0.32-0.16-0.52 0-0.15 0.02-0.35 0.06-0.58l0.2-0.72c0.09-0.26 0.16-0.5 0.23-0.72 0.08-0.24 0.15-0.41 0.19-0.52l1.21-3.3c0.61-1.67 1.1-3.04 1.47-4.11 0.39-1.06 0.58-1.91 0.58-2.54 0-0.83-0.14-1.39-0.42-1.7-0.26-0.32-0.66-0.48-1.21-0.48zm-410.74 1.27c0.63 0 1.14 0.26 1.53 0.78 0.39 0.5 0.59 1.18 0.59 2.05 0 0.92-0.12 1.81-0.36 2.68s-0.56 1.65-0.98 2.35c-0.39 0.67-0.83 1.22-1.34 1.63-0.5 0.41-1.01 0.62-1.53 0.62-0.69 0-1.25-0.25-1.66-0.75-0.42-0.52-0.62-1.2-0.62-2.03 0-0.84 0.13-1.7 0.39-2.57 0.26-0.89 0.6-1.69 1.01-2.38 0.44-0.7 0.91-1.26 1.44-1.7 0.52-0.45 1.03-0.68 1.53-0.68zm424.21 0c0.63 0 1.14 0.26 1.53 0.78 0.39 0.5 0.59 1.18 0.59 2.05 0 0.92-0.12 1.81-0.36 2.68s-0.57 1.65-0.98 2.35c-0.39 0.67-0.84 1.22-1.34 1.63s-1.01 0.62-1.53 0.62c-0.7 0-1.25-0.25-1.67-0.75-0.41-0.52-0.61-1.2-0.61-2.03 0-0.84 0.13-1.7 0.39-2.57 0.26-0.89 0.59-1.69 1.01-2.38 0.43-0.7 0.91-1.26 1.43-1.7 0.53-0.45 1.04-0.68 1.54-0.68zm-283.73 0.26c0.7 0 1.24 0.22 1.63 0.65 0.42 0.44 0.62 1.23 0.62 2.38 0 1.24-0.18 2.55-0.55 3.92-0.35 1.37-0.82 2.64-1.4 3.81-0.57 1.15-1.22 2.11-1.96 2.87-0.72 0.76-1.45 1.14-2.19 1.14-0.6 0-1.1-0.25-1.5-0.75-0.39-0.5-0.58-1.36-0.58-2.57 0-0.81 0.07-1.65 0.23-2.52 0.15-0.89 0.37-1.76 0.65-2.61 0.28-0.84 0.61-1.65 0.98-2.41 0.39-0.76 0.8-1.43 1.24-2.02 0.43-0.59 0.89-1.04 1.37-1.37 0.5-0.35 0.99-0.52 1.46-0.52zm115.28 0c0.76 0 1.14 0.45 1.14 1.37 0 0.65-0.19 1.3-0.55 1.95-0.37 0.64-0.88 1.24-1.54 1.83-0.63 0.57-1.39 1.08-2.28 1.53-0.89 0.46-1.86 0.83-2.9 1.11 0.28-1 0.65-1.96 1.11-2.9 0.45-0.93 0.95-1.76 1.5-2.48 0.56-0.74 1.15-1.32 1.76-1.76 0.61-0.43 1.19-0.65 1.76-0.65zm54.59 0c0.76 0 1.15 0.45 1.15 1.37 0 0.65-0.19 1.3-0.56 1.95-0.37 0.64-0.88 1.24-1.53 1.83-0.63 0.57-1.39 1.08-2.29 1.53-0.89 0.46-1.85 0.83-2.9 1.11 0.28-1 0.66-1.96 1.11-2.9 0.46-0.93 0.96-1.76 1.5-2.48 0.57-0.74 1.15-1.32 1.76-1.76 0.61-0.43 1.2-0.65 1.76-0.65zm14.85 0c0.76 0 1.14 0.45 1.14 1.37 0 0.65-0.19 1.3-0.56 1.95-0.36 0.64-0.88 1.24-1.53 1.83-0.63 0.57-1.39 1.08-2.28 1.53-0.89 0.46-1.86 0.83-2.91 1.11 0.29-1 0.66-1.96 1.11-2.9 0.46-0.93 0.96-1.76 1.5-2.48 0.57-0.74 1.16-1.32 1.77-1.76 0.6-0.43 1.19-0.65 1.76-0.65zm42.2 0c0.69 0 1.24 0.22 1.63 0.65 0.41 0.44 0.62 1.23 0.62 2.38 0 1.24-0.19 2.55-0.55 3.92-0.35 1.37-0.82 2.64-1.41 3.81-0.56 1.15-1.21 2.11-1.95 2.87-0.72 0.76-1.45 1.14-2.19 1.14-0.61 0-1.11-0.25-1.5-0.75s-0.59-1.36-0.59-2.57c0-0.81 0.08-1.65 0.23-2.52 0.15-0.89 0.37-1.76 0.65-2.61 0.29-0.84 0.61-1.65 0.98-2.41 0.39-0.76 0.81-1.43 1.24-2.02 0.44-0.59 0.89-1.04 1.37-1.37 0.5-0.35 0.99-0.52 1.47-0.52zm-75.2 0.1c1 0 1.8 0.39 2.38 1.17 0.61 0.78 0.92 1.83 0.92 3.13 0 1.17-0.25 2.31-0.75 3.39-0.48 1.07-1.12 2.04-1.93 2.91-0.8 0.87-1.73 1.59-2.77 2.18-1.02 0.59-2.08 0.99-3.16 1.21l3.68-13.83c0.26-0.05 0.52-0.08 0.79-0.1 0.28-0.04 0.56-0.06 0.84-0.06zm-249.71 0.06c0.41 0 0.74 0.16 0.98 0.49s0.36 0.77 0.36 1.34c0 0.69-0.1 1.48-0.3 2.35-0.19 0.87-0.46 1.76-0.81 2.67-0.35 0.89-0.75 1.76-1.21 2.61-0.45 0.85-0.94 1.61-1.47 2.28-0.5 0.65-1.02 1.19-1.56 1.6-0.54 0.39-1.07 0.59-1.57 0.59-0.56 0-1.01-0.23-1.33-0.69-0.33-0.48-0.49-1.11-0.49-1.89 0-1.13 0.23-2.35 0.68-3.65 0.46-1.33 1.05-2.56 1.76-3.69 0.72-1.15 1.51-2.11 2.38-2.87 0.9-0.76 1.76-1.14 2.58-1.14zm56.95 0c0.42 0 0.74 0.16 0.98 0.49s0.36 0.77 0.36 1.34c0 0.69-0.1 1.48-0.29 2.35-0.2 0.87-0.47 1.76-0.82 2.67-0.35 0.89-0.75 1.76-1.21 2.61-0.45 0.85-0.94 1.61-1.46 2.28-0.5 0.65-1.03 1.19-1.57 1.6-0.54 0.39-1.07 0.59-1.57 0.59-0.56 0-1-0.23-1.33-0.69-0.33-0.48-0.49-1.11-0.49-1.89 0-1.13 0.23-2.35 0.68-3.65 0.46-1.33 1.05-2.56 1.77-3.69 0.71-1.15 1.51-2.11 2.38-2.87 0.89-0.76 1.75-1.14 2.57-1.14zm87.28 0c0.41 0 0.74 0.16 0.98 0.49s0.35 0.77 0.35 1.34c0 0.69-0.09 1.48-0.29 2.35-0.19 0.87-0.47 1.76-0.82 2.67-0.34 0.89-0.74 1.76-1.2 2.61s-0.95 1.61-1.47 2.28c-0.5 0.65-1.02 1.19-1.57 1.6-0.54 0.39-1.06 0.59-1.56 0.59-0.57 0-1.01-0.23-1.34-0.69-0.32-0.48-0.49-1.11-0.49-1.89 0-1.13 0.23-2.35 0.69-3.65 0.45-1.33 1.04-2.56 1.76-3.69 0.72-1.15 1.51-2.11 2.38-2.87 0.89-0.76 1.75-1.14 2.58-1.14zm153.87 0.03c0.57 0 0.98 0.2 1.24 0.59 0.26 0.37 0.39 0.89 0.39 1.57 0 0.69-0.09 1.47-0.29 2.34-0.19 0.85-0.47 1.72-0.81 2.61-0.33 0.87-0.72 1.73-1.18 2.58-0.43 0.83-0.9 1.57-1.4 2.22s-1.01 1.18-1.53 1.6c-0.52 0.39-1.04 0.58-1.54 0.58-0.65 0-1.17-0.23-1.56-0.68-0.39-0.48-0.59-1.11-0.59-1.89 0-0.76 0.1-1.58 0.29-2.45 0.22-0.87 0.5-1.73 0.85-2.58 0.35-0.84 0.75-1.66 1.21-2.44 0.48-0.78 0.99-1.47 1.53-2.06 0.55-0.61 1.1-1.08 1.66-1.43 0.59-0.37 1.17-0.56 1.73-0.56z" />
</svg>