<?xml version="1.0" encoding="utf-8"?>
<svg version="1.1" xmlns:cc="http://creativecommons.org/ns#" xmlns:dc="http://purl.org/dc/elements/1.1/" xmlns:rdf="http://www.w3.org/1999/02/22-rdf-syntax-ns#" xmlns="http://www.w3.org/2000/svg" xmlns:xlink="http://www.w3.org/1999/xlink" x="0px" y="0px" viewBox="0 0 1024 768" xml:space="preserve">

 
 <g id="logo-group" transform="translate(-183.82 -137.79) scale(1.359)">
  <path id="path206381" style="font-variant-ligatures:none" d="m328.29 521.75h6.504q1.656 0 3.216 0.408 1.56 0.384 2.832 1.44 1.368 1.128 1.992 2.688 0.62401 1.536 0.62401 3.216 0 1.08-0.26401 2.184-0.24 1.08-0.69599 2.112-0.432 1.008-1.056 1.92-0.6 0.888-1.32 1.608-1.68 1.656-3.72 2.28t-4.368 0.624h-8.4l0.264-0.96q0.768 0 1.272-0.096 0.52801-0.096 0.86401-0.384 0.36-0.312 0.59999-0.864 0.264-0.552 0.50401-1.488l2.76-10.608q0.048-0.168 0.12-0.432 0.096-0.264 0.192-0.576t0.144-0.6q0.072-0.288 0.072-0.504 0-0.36-0.216-0.552-0.192-0.192-0.50401-0.288-0.288-0.12-0.64799-0.144-0.336-0.024-0.62401-0.024h-0.456zm1.728 12.936q-0.192 0.72-0.312 1.2-0.12 0.456-0.192 0.768-0.048 0.288-0.072 0.456t-0.024 0.288q0 0.648 0.264 1.008 0.288 0.336 0.672 0.528 0.384 0.168 0.792 0.216 0.408 0.024 0.67201 0.024 1.56 0 2.832-0.432t2.256-1.176q0.98401-0.768 1.68-1.752 0.72-0.984 1.176-2.088 0.48-1.104 0.69601-2.232 0.216-1.152 0.216-2.232 0-3.024-1.632-4.656-1.608-1.656-4.44-1.656-0.69601 0-1.128 0.216-0.408 0.192-0.624 1.008z" stroke-miterlimit="2" stroke-width="0" fill="#443e39"/>
  <path id="path206383" style="font-variant-ligatures:none" d="m347.53 532.31q0.336-0.936 0.48-1.512t0.144-0.912-0.12-0.432q-0.096-0.12-0.216-0.12-0.264 0-0.576 0.264-0.312 0.24-0.624 0.576-0.31199 0.336-0.55199 0.672t-0.336 0.528l-0.69601-0.432q0.288-0.528 0.79201-1.176 0.528-0.648 1.176-1.2t1.344-0.912q0.696-0.384 1.32-0.384 0.6 0 0.888 0.36 0.312 0.336 0.312 1.248 0 0.696-0.432 1.872-0.408 1.176-1.08 3.024l-0.888 2.424q-0.048 0.12-0.144 0.384-0.072 0.24-0.168 0.528-0.072 0.264-0.144 0.528-0.048 0.264-0.048 0.432 0 0.216 0.12 0.384t0.384 0.168q0.36 0 0.744-0.288 0.384-0.312 0.744-0.72t0.648-0.816q0.288-0.432 0.432-0.672l0.72 0.408q-0.288 0.576-0.792 1.272-0.48 0.696-1.104 1.296-0.62399 0.576-1.368 0.984-0.744 0.384-1.536 0.384-0.696 0-1.056-0.36-0.33599-0.36-0.33599-1.2 0-0.696 0.216-1.488 0.24-0.816 0.672-2.04zm3.528-8.976q-0.6 0-1.056-0.408-0.432-0.408-0.432-1.056t0.432-1.104 1.056-0.456q0.67201 0 1.104 0.456 0.432 0.456 0.432 1.08t-0.456 1.056-1.08 0.432z" stroke-miterlimit="2" stroke-width="0" fill="#443e39"/>
  <path id="path206385" style="font-variant-ligatures:none" d="m363.08 541.98q0 1.032-0.45601 1.848-0.432 0.84-1.272 1.416-0.816 0.6-1.992 0.912t-2.64 0.312q-1.32 0-2.4-0.24t-1.848-0.696q-0.79199-0.456-1.2-1.08-0.432-0.6-0.432-1.368 0-0.984 0.64799-1.632 0.624-0.648 1.608-0.648 0.288 0 0.552 0.072t0.672 0.264q-1.344 0.552-1.344 2.088 0 1.008 1.008 1.584 1.032 0.576 2.808 0.576 0.95999 0 1.776-0.216 0.816-0.216 1.392-0.552 0.6-0.336 0.91199-0.768 0.336-0.408 0.336-0.816 0-0.672-0.816-1.224-0.792-0.528-2.256-0.792-2.616-0.456-3.84-1.056t-1.224-1.68q0-0.696 0.6-1.176 0.624-0.48 2.208-0.96l0.048-0.096q-1.824-1.296-1.824-3.336 0-1.104 0.456-2.088 0.45599-1.008 1.224-1.752 0.792-0.768 1.824-1.2 1.056-0.432 2.208-0.432 1.776 0 2.976 1.296 1.128-1.272 2.184-1.272 0.768 0 1.344 0.48 0.57599 0.456 0.57599 1.08 0 0.48-0.33599 0.816-0.312 0.312-0.792 0.312-0.36001 0-0.57601-0.144-0.19199-0.168-0.33599-0.36t-0.336-0.336q-0.168-0.168-0.48-0.168-0.168 0-0.312 0.072-0.144 0.048-0.528 0.312 0.12 0.336 0.168 0.648 0.048 0.288 0.048 0.744 0 2.64-1.464 4.224-1.464 1.56-4.032 1.752-1.152 0.096-1.656 0.288-0.48 0.192-0.48 0.576 0 0.504 0.528 0.768 0.552 0.24 1.368 0.408t1.752 0.336 1.752 0.504q0.816 0.312 1.344 0.864 0.552 0.576 0.552 1.536zm-5.04-6.336q0.576 0 1.128-0.456t0.98401-1.2q0.456-0.768 0.71999-1.728 0.264-0.96 0.264-1.968 0-0.96-0.432-1.512-0.432-0.576-1.128-0.576-0.552 0-1.128 0.504-0.576 0.48-1.056 1.248-0.456 0.768-0.744 1.752-0.288 0.96-0.288 1.896 0 0.912 0.456 1.488 0.456 0.552 1.224 0.552z" stroke-miterlimit="2" stroke-width="0" fill="#443e39"/>
  <path id="path206387" style="font-variant-ligatures:none" d="m369 532.31q0.336-0.936 0.48-1.512t0.144-0.912-0.12-0.432q-0.096-0.12-0.216-0.12-0.264 0-0.576 0.264-0.312 0.24-0.624 0.576-0.31199 0.336-0.55199 0.672t-0.336 0.528l-0.69601-0.432q0.288-0.528 0.79201-1.176 0.528-0.648 1.176-1.2t1.344-0.912q0.696-0.384 1.32-0.384 0.6 0 0.888 0.36 0.312 0.336 0.312 1.248 0 0.696-0.432 1.872-0.408 1.176-1.08 3.024l-0.888 2.424q-0.048 0.12-0.144 0.384-0.072 0.24-0.168 0.528-0.072 0.264-0.144 0.528-0.048 0.264-0.048 0.432 0 0.216 0.12 0.384t0.384 0.168q0.36 0 0.744-0.288 0.384-0.312 0.744-0.72t0.648-0.816q0.288-0.432 0.432-0.672l0.72 0.408q-0.288 0.576-0.792 1.272-0.48 0.696-1.104 1.296-0.62399 0.576-1.368 0.984-0.744 0.384-1.536 0.384-0.696 0-1.056-0.36-0.33599-0.36-0.33599-1.2 0-0.696 0.216-1.488 0.24-0.816 0.672-2.04zm3.528-8.976q-0.6 0-1.056-0.408-0.432-0.408-0.432-1.056t0.432-1.104 1.056-0.456q0.67201 0 1.104 0.456 0.432 0.456 0.432 1.08t-0.456 1.056-1.08 0.432z" stroke-miterlimit="2" stroke-width="0" fill="#443e39"/>
  <path id="path206389" style="font-variant-ligatures:none" d="m379.75 529.5-1.992 6.6q-0.408 1.296-0.432 1.968 0 0.216 0.096 0.384 0.12 0.168 0.384 0.168 0.43201 0 0.912-0.312 0.48-0.336 0.912-0.768 0.456-0.456 0.792-0.912 0.36-0.48 0.528-0.744l0.696 0.408q-0.40799 0.816-1.032 1.584-0.624 0.744-1.32 1.32-0.69599 0.576-1.416 0.936-0.696 0.336-1.272 0.336-0.84 0-1.224-0.36-0.36001-0.36-0.36001-1.2 0-0.48 0.168-1.296t0.576-2.232l1.776-5.88h-2.064l0.312-1.104h2.088l1.248-4.128h2.208l-1.248 4.128h2.616l-0.336 1.104z" stroke-miterlimit="2" stroke-width="0" fill="#443e39"/>
  <path id="path206391" style="font-variant-ligatures:none" d="m390.84 528.52q-0.912 0-1.896 0.84-0.96 0.84-1.752 2.112-0.792 1.248-1.296 2.712-0.504 1.44-0.504 2.688 0 0.864 0.36 1.392 0.36 0.504 0.984 0.504 0.552 0 1.152-0.432 0.6-0.456 1.152-1.176 0.576-0.744 1.08-1.68t0.888-1.92q0.384-1.008 0.6-1.968t0.216-1.728q0-0.624-0.264-0.984t-0.72-0.36zm2.472-1.008h1.992l-1.368 3.672q-0.336 0.912-0.672 1.944-0.312 1.032-0.576 1.992-0.24 0.96-0.384 1.752t-0.144 1.176q0 0.696 0.456 0.696 0.336 0 0.96-0.696 0.648-0.696 1.44-1.8l0.624 0.504q-1.008 1.776-2.184 2.76-1.152 0.96-2.232 0.96-0.552 0-0.864-0.408-0.288-0.432-0.288-1.392 0-0.216 0-0.504 0.024-0.288 0.072-0.768l-0.096-0.024q-0.36 0.672-0.864 1.248-0.48 0.552-1.056 0.984-0.576 0.408-1.2 0.624-0.624 0.24-1.224 0.24-1.224 0-1.92-0.912-0.672-0.936-0.672-2.568 0-1.656 0.696-3.384t1.8-3.12q1.104-1.416 2.448-2.304 1.344-0.912 2.64-0.912 0.792 0 1.296 0.384 0.504 0.36 0.816 1.2z" stroke-miterlimit="2" stroke-width="0" fill="#443e39"/>
  <path id="path206393" style="font-variant-ligatures:none" d="m400.95 523.65q0.12-0.432 0.24-0.864 0.12-0.456 0.12-0.672 0-0.84-1.824-0.84l0.192-0.72 4.392-0.216-4.296 15.768q-0.192 0.648-0.288 1.152-0.096 0.48-0.096 0.816 0 0.216 0.12 0.384t0.384 0.168q0.384 0 0.816-0.312 0.432-0.336 0.816-0.768 0.408-0.456 0.72-0.912 0.312-0.48 0.456-0.744l0.72 0.408q-0.36 0.816-0.936 1.584-0.576 0.744-1.224 1.32t-1.32 0.936q-0.648 0.336-1.2 0.336-0.84 0-1.248-0.36-0.384-0.36-0.384-1.2 0-0.48 0.144-1.296t0.504-2.232z" stroke-miterlimit="2" stroke-width="0" fill="#443e39"/>
  <path id="path206395" style="font-variant-ligatures:none" d="m407.2 532.31q0.336-0.936 0.48-1.512t0.144-0.912-0.12-0.432q-0.096-0.12-0.216-0.12-0.264 0-0.576 0.264-0.312 0.24-0.624 0.576t-0.552 0.672-0.336 0.528l-0.696-0.432q0.288-0.528 0.792-1.176 0.528-0.648 1.176-1.2t1.344-0.912q0.696-0.384 1.32-0.384 0.6 0 0.888 0.36 0.312 0.336 0.312 1.248 0 0.696-0.432 1.872-0.408 1.176-1.08 3.024l-0.888 2.424q-0.048 0.12-0.144 0.384-0.072 0.24-0.168 0.528-0.072 0.264-0.144 0.528-0.048 0.264-0.048 0.432 0 0.216 0.12 0.384t0.384 0.168q0.36 0 0.744-0.288 0.384-0.312 0.744-0.72t0.648-0.816q0.288-0.432 0.432-0.672l0.72 0.408q-0.288 0.576-0.792 1.272-0.48 0.696-1.104 1.296-0.624 0.576-1.368 0.984-0.744 0.384-1.536 0.384-0.696 0-1.056-0.36-0.336-0.36-0.336-1.2 0-0.696 0.216-1.488 0.24-0.816 0.672-2.04zm3.528-8.976q-0.6 0-1.056-0.408-0.432-0.408-0.432-1.056t0.432-1.104 1.056-0.456q0.672 0 1.104 0.456t0.432 1.08-0.456 1.056-1.08 0.432z" stroke-miterlimit="2" stroke-width="0" fill="#443e39"/>
  <path id="path206397" style="font-variant-ligatures:none" d="m416.15 536.51 0.048 0.072q0.528 0 1.08 0.264 0.576 0.24 1.152 0.552 0.576 0.288 1.152 0.552 0.576 0.24 1.128 0.24 0.696 0 1.2-0.432t0.936-1.584l0.816 0.312q-0.24 0.888-0.672 1.632-0.432 0.72-1.008 1.248-0.552 0.528-1.224 0.816-0.648 0.288-1.344 0.288-0.84 0-1.464-0.336-0.6-0.336-1.104-0.744-0.504-0.432-0.984-0.768-0.456-0.336-0.984-0.336-0.504 0-0.696 0.312-0.168 0.288-0.288 0.672-0.12 0.36-0.312 0.672-0.168 0.288-0.696 0.288-0.792 0-0.792-0.72 0-0.456 0.384-0.936t1.2-1.272l6.624-6.408-0.048-0.072q-0.48 0-1.032-0.312-0.528-0.312-1.104-0.696-0.552-0.384-1.128-0.696-0.552-0.312-1.056-0.312-0.408 0-0.648 0.216-0.216 0.192-0.216 0.528t0.192 0.504 0.408 0.336q0.24 0.144 0.432 0.36t0.192 0.648q0 1.104-1.176 1.104-0.768 0-1.2-0.48-0.408-0.504-0.408-1.368 0-0.72 0.288-1.32 0.288-0.624 0.792-1.08 0.528-0.456 1.224-0.72t1.488-0.264q0.888 0 1.488 0.288t1.032 0.648q0.456 0.36 0.84 0.648t0.816 0.288q0.408 0 0.6-0.24 0.216-0.264 0.36-0.576 0.168-0.312 0.336-0.552 0.192-0.264 0.6-0.264 0.696 0 0.696 0.744 0 0.192-0.048 0.36t-0.216 0.408q-0.144 0.24-0.48 0.576-0.312 0.312-0.84 0.84z" stroke-miterlimit="2" stroke-width="0" fill="#443e39"/>
  <path id="path206399" style="font-variant-ligatures:none" d="m432.75 528.52q-0.912 0-1.896 0.84-0.96 0.84-1.752 2.112-0.792 1.248-1.296 2.712-0.504 1.44-0.504 2.688 0 0.864 0.36 1.392 0.36 0.504 0.984 0.504 0.552 0 1.152-0.432 0.6-0.456 1.152-1.176 0.576-0.744 1.08-1.68t0.888-1.92q0.384-1.008 0.6-1.968t0.216-1.728q0-0.624-0.264-0.984t-0.72-0.36zm2.472-1.008h1.992l-1.368 3.672q-0.336 0.912-0.672 1.944-0.312 1.032-0.576 1.992-0.24 0.96-0.384 1.752t-0.144 1.176q0 0.696 0.456 0.696 0.336 0 0.96-0.696 0.648-0.696 1.44-1.8l0.624 0.504q-1.008 1.776-2.184 2.76-1.152 0.96-2.232 0.96-0.552 0-0.864-0.408-0.288-0.432-0.288-1.392 0-0.216 0-0.504 0.024-0.288 0.072-0.768l-0.096-0.024q-0.36 0.672-0.864 1.248-0.48 0.552-1.056 0.984-0.576 0.408-1.2 0.624-0.624 0.24-1.224 0.24-1.224 0-1.92-0.912-0.672-0.936-0.672-2.568 0-1.656 0.696-3.384t1.8-3.12q1.104-1.416 2.448-2.304 1.344-0.912 2.64-0.912 0.792 0 1.296 0.384 0.504 0.36 0.816 1.2z" stroke-miterlimit="2" stroke-width="0" fill="#443e39"/>
  <path id="path206401" style="font-variant-ligatures:none" d="m444.11 529.5-1.992 6.6q-0.408 1.296-0.432 1.968 0 0.216 0.096 0.384 0.12 0.168 0.384 0.168 0.432 0 0.912-0.312 0.48-0.336 0.912-0.768 0.456-0.456 0.792-0.912 0.36-0.48 0.528-0.744l0.696 0.408q-0.408 0.816-1.032 1.584-0.624 0.744-1.32 1.32t-1.416 0.936q-0.696 0.336-1.272 0.336-0.84 0-1.224-0.36-0.36-0.36-0.36-1.2 0-0.48 0.168-1.296t0.576-2.232l1.776-5.88h-2.064l0.312-1.104h2.088l1.248-4.128h2.208l-1.248 4.128h2.616l-0.336 1.104z" stroke-miterlimit="2" stroke-width="0" fill="#443e39"/>
  <path id="path206403" style="font-variant-ligatures:none" d="m450.38 532.31q0.336-0.936 0.48-1.512t0.144-0.912-0.12-0.432q-0.096-0.12-0.216-0.12-0.264 0-0.576 0.264-0.312 0.24-0.624 0.576-0.31199 0.336-0.55199 0.672t-0.336 0.528l-0.69601-0.432q0.288-0.528 0.79201-1.176 0.528-0.648 1.176-1.2t1.344-0.912q0.696-0.384 1.32-0.384 0.6 0 0.888 0.36 0.312 0.336 0.312 1.248 0 0.696-0.432 1.872-0.408 1.176-1.08 3.024l-0.888 2.424q-0.048 0.12-0.144 0.384-0.072 0.24-0.168 0.528-0.072 0.264-0.144 0.528-0.048 0.264-0.048 0.432 0 0.216 0.12 0.384t0.384 0.168q0.36 0 0.744-0.288 0.384-0.312 0.744-0.72t0.648-0.816q0.288-0.432 0.432-0.672l0.72 0.408q-0.288 0.576-0.792 1.272-0.48 0.696-1.104 1.296-0.62399 0.576-1.368 0.984-0.744 0.384-1.536 0.384-0.696 0-1.056-0.36-0.33599-0.36-0.33599-1.2 0-0.696 0.216-1.488 0.24-0.816 0.672-2.04zm3.528-8.976q-0.6 0-1.056-0.408-0.432-0.408-0.432-1.056t0.432-1.104 1.056-0.456q0.67201 0 1.104 0.456 0.432 0.456 0.432 1.08t-0.456 1.056-1.08 0.432z" stroke-miterlimit="2" stroke-width="0" fill="#443e39"/>
  <path id="path206405" style="font-variant-ligatures:none" d="m459.97 540.47q-0.81601 0-1.536-0.312-0.696-0.336-1.224-0.96-0.52799-0.624-0.84-1.512-0.312-0.912-0.312-2.04 0-1.56 0.576-3.072 0.6-1.512 1.56-2.688t2.184-1.896q1.248-0.72 2.568-0.72 0.864 0 1.584 0.336 0.744 0.312 1.248 0.936 0.528 0.6 0.816 1.464 0.312 0.84 0.312 1.872 0 1.512-0.6 3.048t-1.584 2.76q-0.96 1.224-2.208 2.016-1.248 0.768-2.544 0.768zm0.144-1.2q0.81599 0 1.608-0.84 0.816-0.84 1.44-2.112 0.64799-1.296 1.032-2.808 0.408-1.512 0.408-2.88 0-1.272-0.456-1.752-0.432-0.48-1.2-0.48-0.528 0-1.08 0.384-0.528 0.36-1.008 1.008t-0.912 1.488q-0.408 0.84-0.72 1.776t-0.48 1.92q-0.168 0.96-0.168 1.848 0 1.344 0.432 1.896t1.104 0.552z" stroke-miterlimit="2" stroke-width="0" fill="#443e39"/>
  <path id="path206407" style="font-variant-ligatures:none" d="m478.24 528.52q-0.57601 0-1.32 0.6-0.71999 0.576-1.488 1.56-0.74401 0.96-1.44 2.208t-1.176 2.544l-1.776 4.8h-2.112l1.776-5.496q0.432-1.32 0.71999-2.256 0.288-0.936 0.456-1.56 0.192-0.648 0.264-1.032 0.072-0.408 0.072-0.648 0-0.648-0.40801-0.648-0.26399 0-0.62399 0.336t-0.744 0.888q-0.36 0.528-0.696 1.224t-0.576 1.416l-0.72-0.36q0.84-2.472 1.872-3.648 1.056-1.176 2.4-1.176 0.768 0 1.08 0.432 0.33599 0.432 0.33599 1.464 0 1.224-0.40799 2.184l0.072 0.072q1.224-2.16 2.472-3.144 1.272-1.008 2.76-1.008 1.056 0 1.608 0.504 0.55201 0.504 0.55201 1.44 0 0.312-0.072 0.696-0.048 0.384-0.192 0.936-0.144 0.528-0.40799 1.272-0.24 0.744-0.6 1.824-0.552 1.632-0.912 2.736t-0.36 1.56q0 0.36 0.24 0.36 0.336 0 0.984-0.552 0.64799-0.552 1.752-1.776l0.624 0.336q-0.384 0.72-1.008 1.416-0.60001 0.672-1.272 1.224-0.648 0.552-1.296 0.888-0.64801 0.336-1.128 0.336-0.6 0-0.95999-0.528-0.336-0.528-0.336-1.392 0-0.336 0.048-0.672 0.072-0.36 0.264-1.008t0.552-1.728q0.38399-1.104 1.032-2.904 0.21601-0.624 0.36001-1.056t0.216-0.744q0.096-0.336 0.12-0.576 0.048-0.24 0.048-0.456 0-0.888-0.648-0.888z" stroke-miterlimit="2" stroke-width="0" fill="#443e39"/>
  <path id="path206409" style="font-variant-ligatures:none" d="m496.97 528.52q-0.912 0-1.896 0.84-0.96 0.84-1.752 2.112-0.792 1.248-1.296 2.712-0.504 1.44-0.504 2.688 0 0.864 0.36 1.392 0.36 0.504 0.984 0.504 0.552 0 1.152-0.432 0.6-0.456 1.152-1.176 0.576-0.744 1.08-1.68t0.888-1.92q0.384-1.008 0.6-1.968t0.216-1.728q0-0.624-0.264-0.984t-0.72-0.36zm2.472-1.008h1.992l-1.368 3.672q-0.336 0.912-0.672 1.944-0.312 1.032-0.576 1.992-0.24 0.96-0.384 1.752t-0.144 1.176q0 0.696 0.456 0.696 0.336 0 0.96-0.696 0.648-0.696 1.44-1.8l0.624 0.504q-1.008 1.776-2.184 2.76-1.152 0.96-2.232 0.96-0.552 0-0.864-0.408-0.288-0.432-0.288-1.392 0-0.216 0-0.504 0.024-0.288 0.072-0.768l-0.096-0.024q-0.36 0.672-0.864 1.248-0.48 0.552-1.056 0.984-0.576 0.408-1.2 0.624-0.624 0.24-1.224 0.24-1.224 0-1.92-0.912-0.672-0.936-0.672-2.568 0-1.656 0.696-3.384t1.8-3.12q1.104-1.416 2.448-2.304 1.344-0.912 2.64-0.912 0.792 0 1.296 0.384 0.504 0.36 0.816 1.2z" stroke-miterlimit="2" stroke-width="0" fill="#443e39"/>
  <path id="path206411" style="font-variant-ligatures:none" d="m508.32 529.5-1.992 6.6q-0.408 1.296-0.432 1.968 0 0.216 0.096 0.384 0.12 0.168 0.384 0.168 0.432 0 0.912-0.312 0.48-0.336 0.912-0.768 0.456-0.456 0.792-0.912 0.36-0.48 0.528-0.744l0.696 0.408q-0.408 0.816-1.032 1.584-0.624 0.744-1.32 1.32t-1.416 0.936q-0.696 0.336-1.272 0.336-0.84 0-1.224-0.36-0.36-0.36-0.36-1.2 0-0.48 0.168-1.296t0.576-2.232l1.776-5.88h-2.064l0.312-1.104h2.088l1.248-4.128h2.208l-1.248 4.128h2.616l-0.336 1.104z" stroke-miterlimit="2" stroke-width="0" fill="#443e39"/>
  <path id="path206413" style="font-variant-ligatures:none" d="m523.32 529.5-1.992 6.6q-0.408 1.296-0.432 1.968 0 0.216 0.096 0.384 0.12 0.168 0.384 0.168 0.432 0 0.912-0.312 0.48-0.336 0.912-0.768 0.456-0.456 0.792-0.912 0.36-0.48 0.528-0.744l0.696 0.408q-0.408 0.816-1.032 1.584-0.624 0.744-1.32 1.32t-1.416 0.936q-0.696 0.336-1.272 0.336-0.84 0-1.224-0.36-0.36-0.36-0.36-1.2 0-0.48 0.168-1.296t0.576-2.232l1.776-5.88h-2.064l0.312-1.104h2.088l1.248-4.128h2.208l-1.248 4.128h2.616l-0.336 1.104z" stroke-miterlimit="2" stroke-width="0" fill="#443e39"/>
  <path id="path206415" style="font-variant-ligatures:none" d="m534.99 532.77q0.40799-1.224 0.576-1.944 0.19199-0.72 0.19199-1.272t-0.19199-0.768q-0.16801-0.24-0.6-0.24-0.744 0-1.464 0.576t-1.464 1.8q-0.72 1.224-1.512 3.12t-1.68 4.536l-0.552 1.656h-2.016l4.752-16.272q0.168-0.6 0.264-1.056t0.096-0.72q0-0.48-0.456-0.672t-1.68-0.24l0.168-0.96h4.896l-2.736 9.264 0.072 0.048q0.768-1.128 1.776-1.728 1.008-0.624 2.112-0.624 1.152 0 1.752 0.672t0.6 1.944q0 0.792-0.24 1.848t-0.744 2.424q-0.48 1.296-0.744 2.04t-0.384 1.152q-0.12 0.384-0.168 0.528-0.024 0.144-0.024 0.24 0 0.552 0.456 0.552 0.48 0 1.176-0.552 0.72-0.576 1.44-1.584l0.67199 0.504q-0.38399 0.696-0.95999 1.32-0.552 0.624-1.224 1.104-0.648 0.456-1.344 0.744-0.672 0.264-1.272 0.264-0.648 0-0.936-0.36-0.28801-0.36-0.28801-1.152 0-0.408 0.072-0.864t0.24001-1.128q0.192-0.696 0.504-1.68 0.336-1.008 0.864-2.52z" stroke-miterlimit="2" stroke-width="0" fill="#443e39"/>
  <path id="path206417" style="font-variant-ligatures:none" d="m549.14 537.04q-2.088 3.432-5.136 3.432-1.656 0-2.544-1.008-0.888-1.032-0.888-2.904 0-1.656 0.672-3.312 0.696-1.656 1.8-2.976 1.104-1.344 2.472-2.16 1.368-0.84 2.736-0.84 1.152 0 1.872 0.6 0.744 0.576 0.744 1.488 0 0.84-0.624 1.728t-1.704 1.68q-1.056 0.792-2.496 1.44-1.416 0.648-3.024 1.008-0.048 0.336-0.072 0.672-0.024 0.312-0.024 0.648 0 2.616 1.848 2.616 0.888 0 1.824-0.696 0.96-0.696 1.776-1.92zm-1.368-8.64q-0.62401 0-1.296 0.48t-1.296 1.296q-0.6 0.792-1.104 1.824t-0.816 2.136q1.152-0.312 2.136-0.816t1.68-1.128q0.72-0.648 1.128-1.344 0.408-0.72 0.408-1.44 0-1.008-0.84-1.008z" stroke-miterlimit="2" stroke-width="0" fill="#443e39"/>
  <path id="path206419" style="font-variant-ligatures:none" d="m559.61 530.94q0-0.792 0.288-1.464 0.312-0.672 0.84-1.152 0.52799-0.504 1.248-0.768 0.744-0.288 1.608-0.288 1.152 0 1.92 0.576 0.76799 0.576 0.76799 1.488 0 0.504-0.288 0.792-0.26399 0.288-0.74399 0.288-0.55201 0-0.79201-0.312-0.24-0.336-0.408-0.72-0.168-0.408-0.36-0.744t-0.648-0.336q-0.52799 0-0.88799 0.456-0.36001 0.456-0.36001 1.128 0 0.792 0.456 1.488 0.48 0.672 1.056 1.416t1.032 1.632q0.48 0.888 0.48 2.088 0 0.816-0.36 1.536-0.336 0.72-0.936 1.272-0.576 0.528-1.344 0.84t-1.584 0.312q-1.44 0-2.304-0.624-0.84-0.624-0.84-1.632 0-0.696 0.312-1.08 0.336-0.408 0.888-0.408 1.032 0 1.176 1.416 0.072 0.768 0.24 1.032 0.192 0.24 0.744 0.24 0.864 0 1.368-0.504 0.504-0.528 0.504-1.44 0-0.96-0.48-1.704t-1.056-1.44q-0.576-0.72-1.056-1.512t-0.47999-1.872z" stroke-miterlimit="2" stroke-width="0" fill="#443e39"/>
  <path id="path206421" style="font-variant-ligatures:none" d="m567.26 531.23q0.888-1.008 1.992-1.8 1.104-0.816 2.328-1.32l1.128-3.84h1.824l-0.84 3.192q0.384-0.072 0.744-0.12 0.384-0.048 0.768-0.048 2.04 0 3.168 1.104t1.128 3.096q0 1.584-0.768 3-0.744 1.392-2.016 2.496-1.248 1.104-2.904 1.848-1.632 0.72-3.408 0.96l-0.888 3.336q-0.12 0.36-0.168 0.6-0.024 0.24-0.024 0.432 0 0.6 0.48 0.84 0.504 0.24 1.752 0.264l-0.144 0.96h-6.792l0.144-0.96q1.008 0 1.464-0.24t0.648-0.864l4.344-14.832q-0.912 0.48-1.752 1.152-0.84 0.648-1.56 1.416zm7.32-2.76q-0.312 0-0.624 0.048-0.288 0.024-0.576 0.072l-2.712 10.176q1.2-0.24 2.328-0.888 1.152-0.648 2.04-1.608t1.416-2.136q0.552-1.2 0.552-2.496 0-1.44-0.672-2.304-0.648-0.864-1.752-0.864z" stroke-miterlimit="2" stroke-width="0" fill="#443e39"/>
  <path id="path206423" style="font-variant-ligatures:none" d="m589.31 537.04q-2.088 3.432-5.136 3.432-1.656 0-2.544-1.008-0.888-1.032-0.888-2.904 0-1.656 0.672-3.312 0.696-1.656 1.8-2.976 1.104-1.344 2.472-2.16 1.368-0.84 2.736-0.84 1.152 0 1.872 0.6 0.744 0.576 0.744 1.488 0 0.84-0.624 1.728t-1.704 1.68q-1.056 0.792-2.496 1.44-1.416 0.648-3.024 1.008-0.048 0.336-0.072 0.672-0.024 0.312-0.024 0.648 0 2.616 1.848 2.616 0.888 0 1.824-0.696 0.96-0.696 1.776-1.92zm-1.368-8.64q-0.624 0-1.296 0.48t-1.296 1.296q-0.6 0.792-1.104 1.824t-0.816 2.136q1.152-0.312 2.136-0.816t1.68-1.128q0.72-0.648 1.128-1.344 0.408-0.72 0.408-1.44 0-1.008-0.84-1.008z" stroke-miterlimit="2" stroke-width="0" fill="#443e39"/>
  <path id="path206425" style="font-variant-ligatures:none" d="m600.23 537.04q-2.088 3.432-5.136 3.432-1.656 0-2.544-1.008-0.888-1.032-0.888-2.904 0-1.656 0.672-3.312 0.696-1.656 1.8-2.976 1.104-1.344 2.472-2.16 1.368-0.84 2.736-0.84 1.152 0 1.872 0.6 0.744 0.576 0.744 1.488 0 0.84-0.624 1.728t-1.704 1.68q-1.056 0.792-2.496 1.44-1.416 0.648-3.024 1.008-0.048 0.336-0.072 0.672-0.024 0.312-0.024 0.648 0 2.616 1.848 2.616 0.888 0 1.824-0.696 0.96-0.696 1.776-1.92zm-1.368-8.64q-0.62401 0-1.296 0.48t-1.296 1.296q-0.6 0.792-1.104 1.824t-0.816 2.136q1.152-0.312 2.136-0.816t1.68-1.128q0.72-0.648 1.128-1.344 0.408-0.72 0.408-1.44 0-1.008-0.84-1.008z" stroke-miterlimit="2" stroke-width="0" fill="#443e39"/>
  <path id="path206427" style="font-variant-ligatures:none" d="m613.48 523.62q0.192-0.648 0.288-1.08t0.096-0.624q0-0.36-0.48-0.504t-1.728-0.144l0.264-0.96h4.632l-2.664 9.72q-0.504 1.872-0.84 3.192t-0.552 2.232q-0.192 0.888-0.264 1.464t-0.072 0.96q0 0.552 0.168 0.768t0.432 0.216q0.528 0 1.128-0.888 0.624-0.888 1.104-2.328l0.912 0.216q-0.816 2.376-1.8 3.504-0.96 1.104-2.184 1.104-0.864 0-1.344-0.552-0.456-0.552-0.456-1.584 0-0.264 0.048-0.552t0.12-0.552l-0.192-0.048q-0.912 1.584-2.208 2.448-1.296 0.84-2.472 0.84-0.624 0-1.152-0.264-0.528-0.288-0.912-0.768-0.384-0.504-0.624-1.176-0.216-0.696-0.216-1.536 0-1.032 0.312-2.136 0.336-1.128 0.888-2.16 0.576-1.056 1.32-1.992t1.56-1.632q0.84-0.72 1.704-1.128 0.888-0.408 1.728-0.408 0.816 0 1.224 0.312 0.432 0.312 0.84 0.984zm-3.288 4.92q-0.624 0-1.272 0.408-0.624 0.384-1.224 1.056-0.6 0.648-1.128 1.512-0.504 0.864-0.888 1.8t-0.624 1.896q-0.216 0.96-0.216 1.8 0 0.864 0.432 1.392 0.432 0.504 1.152 0.504 0.552 0 1.128-0.432 0.576-0.456 1.128-1.176t1.032-1.632q0.504-0.936 0.864-1.896 0.384-0.984 0.6-1.92 0.216-0.96 0.216-1.728 0-0.744-0.288-1.152-0.288-0.432-0.912-0.432z" stroke-miterlimit="2" stroke-width="0" fill="#443e39"/>
  <path id="path206429" style="font-variant-ligatures:none" d="m626.94 540.47q-0.81601 0-1.536-0.312-0.69599-0.336-1.224-0.96-0.528-0.624-0.84001-1.512-0.312-0.912-0.312-2.04 0-1.56 0.57601-3.072 0.6-1.512 1.56-2.688 0.95999-1.176 2.184-1.896 1.248-0.72 2.568-0.72 0.864 0 1.584 0.336 0.74399 0.312 1.248 0.936 0.528 0.6 0.816 1.464 0.312 0.84 0.312 1.872 0 1.512-0.6 3.048t-1.584 2.76q-0.96 1.224-2.208 2.016-1.248 0.768-2.544 0.768zm0.144-1.2q0.81599 0 1.608-0.84 0.816-0.84 1.44-2.112 0.648-1.296 1.032-2.808 0.408-1.512 0.408-2.88 0-1.272-0.456-1.752-0.432-0.48-1.2-0.48-0.52801 0-1.08 0.384-0.528 0.36-1.008 1.008t-0.912 1.488q-0.408 0.84-0.72 1.776t-0.48 1.92q-0.168 0.96-0.168 1.848 0 1.344 0.432 1.896t1.104 0.552z" stroke-miterlimit="2" stroke-width="0" fill="#443e39"/>
  <path id="path206431" style="font-variant-ligatures:none" d="m638.43 538.48q-0.624 2.448-1.248 3.984-0.624 1.56-1.344 2.448t-1.536 1.224q-0.84 0.336-1.872 0.336-1.008 0-1.656-0.528t-0.648-1.296q0-0.6 0.312-0.96 0.312-0.336 0.864-0.336 0.504 0 0.696 0.264t0.336 0.576q0.12 0.312 0.288 0.576t0.648 0.264q0.552 0 1.008-0.576t0.696-1.512l3.48-13.512h-2.304l0.312-1.104h2.28q0.528-2.16 1.152-3.672t1.344-2.472q0.72-0.984 1.536-1.416 0.816-0.456 1.752-0.456 1.416 0 2.328 0.6 0.912 0.576 0.912 1.464 0 0.552-0.312 0.936-0.288 0.384-0.84 0.384-0.456 0-0.72-0.168-0.24-0.168-0.384-0.432-0.12-0.264-0.192-0.552-0.048-0.288-0.144-0.552t-0.288-0.432-0.576-0.168q-0.48 0-0.96 0.528-0.456 0.504-0.888 1.44-0.432 0.912-0.816 2.184t-0.696 2.784h2.424l-0.336 1.104h-2.352z" stroke-miterlimit="2" stroke-width="0" fill="#443e39"/>
  <path id="path206433" style="font-variant-ligatures:none" d="m653.42 523.65q0.12-0.432 0.24-0.864 0.12-0.456 0.12-0.672 0-0.84-1.824-0.84l0.192-0.72 4.392-0.216-4.296 15.768q-0.192 0.648-0.288 1.152-0.096 0.48-0.096 0.816 0 0.216 0.12 0.384t0.384 0.168q0.384 0 0.816-0.312 0.432-0.336 0.816-0.768 0.408-0.456 0.72-0.912 0.312-0.48 0.456-0.744l0.72 0.408q-0.36 0.816-0.936 1.584-0.576 0.744-1.224 1.32t-1.32 0.936q-0.648 0.336-1.2 0.336-0.84 0-1.248-0.36-0.384-0.36-0.384-1.2 0-0.48 0.144-1.296t0.504-2.232z" stroke-miterlimit="2" stroke-width="0" fill="#443e39"/>
  <path id="path206435" style="font-variant-ligatures:none" d="m659.67 532.31q0.336-0.936 0.48-1.512t0.144-0.912-0.12-0.432q-0.096-0.12-0.216-0.12-0.264 0-0.576 0.264-0.312 0.24-0.624 0.576t-0.552 0.672-0.336 0.528l-0.696-0.432q0.288-0.528 0.792-1.176 0.528-0.648 1.176-1.2t1.344-0.912q0.696-0.384 1.32-0.384 0.6 0 0.888 0.36 0.312 0.336 0.312 1.248 0 0.696-0.432 1.872-0.408 1.176-1.08 3.024l-0.888 2.424q-0.048 0.12-0.144 0.384-0.072 0.24-0.168 0.528-0.072 0.264-0.144 0.528-0.048 0.264-0.048 0.432 0 0.216 0.12 0.384t0.384 0.168q0.36 0 0.744-0.288 0.384-0.312 0.744-0.72t0.648-0.816q0.288-0.432 0.432-0.672l0.72 0.408q-0.288 0.576-0.792 1.272-0.48 0.696-1.104 1.296-0.624 0.576-1.368 0.984-0.744 0.384-1.536 0.384-0.696 0-1.056-0.36-0.336-0.36-0.336-1.2 0-0.696 0.216-1.488 0.24-0.816 0.672-2.04zm3.528-8.976q-0.6 0-1.056-0.408-0.432-0.408-0.432-1.056t0.432-1.104 1.056-0.456q0.672 0 1.104 0.456t0.432 1.08-0.456 1.056-1.08 0.432z" stroke-miterlimit="2" stroke-width="0" fill="#443e39"/>
  <path id="path206437" style="font-variant-ligatures:none" d="m675.22 541.98q0 1.032-0.456 1.848-0.432 0.84-1.272 1.416-0.816 0.6-1.992 0.912t-2.64 0.312q-1.32 0-2.4-0.24t-1.848-0.696q-0.792-0.456-1.2-1.08-0.432-0.6-0.432-1.368 0-0.984 0.648-1.632 0.624-0.648 1.608-0.648 0.288 0 0.552 0.072t0.672 0.264q-1.344 0.552-1.344 2.088 0 1.008 1.008 1.584 1.032 0.576 2.808 0.576 0.96 0 1.776-0.216t1.392-0.552q0.6-0.336 0.912-0.768 0.336-0.408 0.336-0.816 0-0.672-0.816-1.224-0.792-0.528-2.256-0.792-2.616-0.456-3.84-1.056t-1.224-1.68q0-0.696 0.6-1.176 0.624-0.48 2.208-0.96l0.048-0.096q-1.824-1.296-1.824-3.336 0-1.104 0.456-2.088 0.456-1.008 1.224-1.752 0.792-0.768 1.824-1.2 1.056-0.432 2.208-0.432 1.776 0 2.976 1.296 1.128-1.272 2.184-1.272 0.768 0 1.344 0.48 0.576 0.456 0.576 1.08 0 0.48-0.336 0.816-0.312 0.312-0.792 0.312-0.36 0-0.576-0.144-0.192-0.168-0.336-0.36t-0.336-0.336q-0.168-0.168-0.48-0.168-0.168 0-0.312 0.072-0.144 0.048-0.528 0.312 0.12 0.336 0.168 0.648 0.048 0.288 0.048 0.744 0 2.64-1.464 4.224-1.464 1.56-4.032 1.752-1.152 0.096-1.656 0.288-0.48 0.192-0.48 0.576 0 0.504 0.528 0.768 0.552 0.24 1.368 0.408t1.752 0.336 1.752 0.504q0.816 0.312 1.344 0.864 0.552 0.576 0.552 1.536zm-5.04-6.336q0.576 0 1.128-0.456t0.984-1.2q0.456-0.768 0.72-1.728t0.264-1.968q0-0.96-0.432-1.512-0.432-0.576-1.128-0.576-0.552 0-1.128 0.504-0.576 0.48-1.056 1.248-0.456 0.768-0.744 1.752-0.288 0.96-0.288 1.896 0 0.912 0.456 1.488 0.456 0.552 1.224 0.552z" stroke-miterlimit="2" stroke-width="0" fill="#443e39"/>
  <path id="path206439" style="font-variant-ligatures:none" d="m686.54 532.77q0.408-1.224 0.576-1.944 0.192-0.72 0.192-1.272t-0.192-0.768q-0.168-0.24-0.6-0.24-0.744 0-1.464 0.576t-1.464 1.8q-0.72 1.224-1.512 3.12t-1.68 4.536l-0.552 1.656h-2.016l4.752-16.272q0.168-0.6 0.264-1.056t0.096-0.72q0-0.48-0.456-0.672t-1.68-0.24l0.168-0.96h4.896l-2.736 9.264 0.072 0.048q0.768-1.128 1.776-1.728 1.008-0.624 2.112-0.624 1.152 0 1.752 0.672t0.6 1.944q0 0.792-0.24 1.848t-0.744 2.424q-0.48 1.296-0.744 2.04t-0.384 1.152q-0.12 0.384-0.168 0.528-0.024 0.144-0.024 0.24 0 0.552 0.456 0.552 0.48 0 1.176-0.552 0.72-0.576 1.44-1.584l0.672 0.504q-0.384 0.696-0.96 1.32-0.552 0.624-1.224 1.104-0.648 0.456-1.344 0.744-0.672 0.264-1.272 0.264-0.648 0-0.936-0.36t-0.288-1.152q0-0.408 0.072-0.864t0.24-1.128q0.192-0.696 0.504-1.68 0.336-1.008 0.864-2.52z" stroke-miterlimit="2" stroke-width="0" fill="#443e39"/>
  <path id="path206441" style="font-variant-ligatures:none" d="m697.42 529.5-1.992 6.6q-0.408 1.296-0.432 1.968 0 0.216 0.096 0.384 0.12 0.168 0.384 0.168 0.432 0 0.912-0.312 0.48-0.336 0.912-0.768 0.456-0.456 0.792-0.912 0.36-0.48 0.528-0.744l0.696 0.408q-0.408 0.816-1.032 1.584-0.624 0.744-1.32 1.32t-1.416 0.936q-0.696 0.336-1.272 0.336-0.84 0-1.224-0.36-0.36-0.36-0.36-1.2 0-0.48 0.168-1.296t0.576-2.232l1.776-5.88h-2.064l0.312-1.104h2.088l1.248-4.128h2.208l-1.248 4.128h2.616l-0.336 1.104z" stroke-miterlimit="2" stroke-width="0" fill="#443e39"/>
  <path id="path206444" style="font-variant-ligatures:none" d="m350.55 447.73-3.3667 8.0561q-0.6012 1.3226-1.3226 3.487-0.6012 2.0441-0.6012 3.487 0 1.8036 1.4429 2.525 1.4429 0.6012 4.4489 0.6012h4.3286v3.8477h-25.371v-3.8477h2.2846q2.4048 0 3.8477-0.36072t2.4048-1.3226q1.0822-0.96192 1.8036-2.6453 0.84168-1.6834 1.9238-4.3286l27.535-67.695h3.487l28.858 76.352h8.1763v3.8477h-38.717v-3.8477h10.461l-6.8537-18.156zm23.206-4.0882-10.341-27.294-11.182 27.294z" stroke-miterlimit="2" stroke-width="0" fill="#443e39"/>
  <path id="path206446" style="font-variant-ligatures:none" d="m462.29 466.24h6.3727v3.487h-7.3346q-0.96192 0-2.6453 0-1.5631 0-3.487 0-1.9238 0.12024-3.8477 0.24048-1.9238 0.24048-3.3667 0.48096h-1.6834v-7.0942h-0.24048q-0.48096 0.96192-1.3226 2.2846-0.84168 1.3226-2.2846 2.6453-1.3226 1.2024-3.3667 2.0441-1.9238 0.84168-4.6894 0.84168-3.7274 0-7.2144-1.8036-3.3667-1.9238-6.1322-5.2906-2.6453-3.487-4.3286-8.1763-1.5631-4.8096-1.5631-10.461 0-5.531 1.6834-10.1 1.6834-4.5691 4.3286-7.6954 2.7655-3.1262 6.2525-4.8096 3.6072-1.8036 7.2144-1.8036 4.6894 0 7.2144 2.0441 2.6453 1.9238 4.4489 3.9679v-32.465h-9.499v-3.6072h8.4168q0.24048 0 1.2024 0 1.0822-0.12024 2.525-0.12024 1.4429-0.12024 3.006-0.24048 1.6834-0.12024 3.1262-0.24048 0.36072 0 1.3226 0 1.0822-0.12024 2.1643-0.24048 1.2024-0.12024 2.1643-0.12024 1.0822-0.12024 1.5631-0.12024zm-15.992-27.415q0-4.6894-1.0822-7.5751-1.0822-2.8858-2.525-4.3286-1.3226-1.5631-2.7655-2.0441-1.3226-0.48096-1.9238-0.48096-1.8036 0-2.7655 1.3226-0.84168 1.2024-1.3226 3.1262-0.48096 1.9238-0.6012 4.2084 0 2.1643 0 4.0882v17.675q0 3.7274 0.24048 6.1322t0.72144 3.8477q0.48096 1.3226 1.2024 1.9238 0.84168 0.48096 2.0441 0.48096 2.0441 0 3.9679-1.5631 1.9238-1.6834 3.2465-4.0882 0.96192-1.9238 1.2024-4.2084 0.36072-2.4048 0.36072-5.8918z" stroke-miterlimit="2" stroke-width="0" fill="#443e39"/>
  <path id="path206448" style="font-variant-ligatures:none" d="m492.02 443.4v7.5751q0 4.0882 0.24048 7.0942 0.24048 2.8858 1.0822 4.9298 0.96192 1.9238 2.7655 2.8858 1.8036 0.96192 4.9298 0.96192 0.48096 0 2.4048-0.12024 2.0441-0.24048 4.5691-1.4429 2.525-1.3226 5.0501-4.0882 2.6453-2.7655 4.3286-7.8156h3.487q-1.3226 5.4108-3.8477 8.8978-2.525 3.487-5.6513 5.531-3.006 1.9238-6.3727 2.6453-3.3667 0.72144-6.2525 0.72144-6.3727 0-11.062-2.4048-4.6894-2.4048-7.6954-6.1322t-4.4489-8.1763-1.4429-8.6573q0-4.4489 1.6834-8.7775 1.6834-4.4489 4.6894-7.9358 3.1262-3.6072 7.4549-5.7715 4.4489-2.2846 9.9799-2.2846 2.525 0 6.1322 0.84168 3.7274 0.72144 7.2144 3.1262 3.6072 2.4048 6.2525 6.8537 2.7655 4.3286 3.3667 11.543zm12.625-3.8477v-4.9298q0-1.6834-0.12024-3.487t-0.72144-3.2465q-0.6012-1.5631-1.9238-2.525-1.3226-0.96192-3.7274-0.96192-2.2846 0-3.6072 0.84168-1.2024 0.84168-1.8036 2.2846-0.48096 1.4429-0.6012 3.3667-0.12024 1.8036-0.12024 3.8477v4.8096z" stroke-miterlimit="2" stroke-width="0" fill="#443e39"/>
  <path id="path206450" style="font-variant-ligatures:none" d="m543.45 443.4v7.5751q0 4.0882 0.24048 7.0942 0.24048 2.8858 1.0822 4.9298 0.96192 1.9238 2.7655 2.8858 1.8036 0.96192 4.9298 0.96192 0.48096 0 2.4048-0.12024 2.0441-0.24048 4.5691-1.4429 2.525-1.3226 5.0501-4.0882 2.6453-2.7655 4.3286-7.8156h3.487q-1.3226 5.4108-3.8477 8.8978-2.525 3.487-5.6513 5.531-3.006 1.9238-6.3727 2.6453-3.3667 0.72144-6.2525 0.72144-6.3727 0-11.062-2.4048-4.6894-2.4048-7.6954-6.1322t-4.4489-8.1763-1.4429-8.6573q0-4.4489 1.6834-8.7775 1.6834-4.4489 4.6894-7.9358 3.1262-3.6072 7.4549-5.7715 4.4489-2.2846 9.9799-2.2846 2.525 0 6.1322 0.84168 3.7274 0.72144 7.2144 3.1262 3.6072 2.4048 6.2525 6.8537 2.7655 4.3286 3.3667 11.543zm12.625-3.8477v-4.9298q0-1.6834-0.12024-3.487t-0.72144-3.2465q-0.6012-1.5631-1.9238-2.525-1.3226-0.96192-3.7274-0.96192-2.2846 0-3.6072 0.84168-1.2024 0.84168-1.8036 2.2846-0.48096 1.4429-0.6012 3.3667-0.12024 1.8036-0.12024 3.8477v4.8096z" stroke-miterlimit="2" stroke-width="0" fill="#443e39"/>
  <path id="path206452" style="font-variant-ligatures:none" d="m598.6 431.01h0.24048q0.84168-1.2024 2.1643-2.8858 1.3226-1.8036 3.3667-3.3667t4.9298-2.6453q3.006-1.0822 6.9739-1.0822 5.2906 0 8.537 2.0441 3.3667 2.0441 4.6894 3.8477 0.84168 1.2024 1.0822 3.6072 0.24048 2.2846 0.24048 3.6072v31.984h6.7334v3.6072h-29.579v-3.6072h6.8537v-32.82q0-1.2024-0.12024-2.4048 0-1.3226-0.48096-2.4048-0.36072-1.0822-1.3226-1.6834-0.96192-0.72144-2.6453-0.72144-2.0441 0-4.8096 1.8036-2.7655 1.6834-4.5691 4.4489-0.84168 1.2024-1.3226 2.6453-0.36072 1.4429-0.6012 2.8858t-0.36072 2.7655q0 1.3226 0 2.1643v23.327h6.8537v3.6072h-29.699v-3.6072h6.8537v-40.05h-6.7334v-3.6072h4.3286q5.531 0 9.2585-0.36072 3.8477-0.48096 7.4549-1.0822h1.6834z" stroke-miterlimit="2" stroke-width="0" fill="#443e39"/>
  <path id="path206454" style="font-variant-ligatures:none" d="m668.16 422.48v3.6072h-7.0942l12.264 25.13 7.8156-18.276q0.36072-0.96192 0.84168-2.2846 0.6012-1.4429 0.6012-2.4048 0-0.84168-0.6012-1.2024-0.48096-0.48096-1.2024-0.6012-0.72144-0.24048-1.5631-0.24048-0.84168-0.12024-1.4429-0.12024h-2.1643v-3.6072h18.276v3.6072q-1.9238 0-3.1262 0.24048-1.2024 0.12024-2.0441 0.72144-0.84168 0.6012-1.4429 1.6834-0.6012 1.0822-1.3226 2.7655l-25.13 58.076q0 0.12024-0.24048 0.6012-0.48096 1.2024-1.4429 3.006-0.84168 1.8036-2.2846 3.3667-1.4429 1.6834-3.7274 2.7655-2.1643 1.2024-5.4108 1.2024-3.8477 0-6.2525-2.2846t-2.4048-5.0501q0-2.8858 1.9238-5.0501 2.0441-2.1643 4.8096-2.1643 3.006 0 4.3286 1.5631 1.4429 1.5631 2.2846 3.006 0.48096 0.84168 0.84168 1.0822 0.36072 0.24048 0.72144 0.24048 0.72144 0 1.4429-0.72144 0.72144-0.72144 1.3226-1.6834 0.6012-0.96192 0.96192-1.9238 0.48096-0.96192 0.72144-1.5631l6.7334-16.232-21.643-43.647h-4.6894v-3.6072z" stroke-miterlimit="2" stroke-width="0" fill="#443e39"/>
  <path id="icon" stroke-width=".75" fill="#c8bc67" d="m554.16 221.42c-0.43577 0.005-0.92363 0.0138-1.0842 0.0209-0.16054 0.007-0.60131 0.0417-0.97995 0.0771-0.37822 0.0354-0.9975 0.11176-1.3761 0.16931-0.37822 0.058-0.95077 0.16054-1.2718 0.2281-0.32109 0.068-0.83565 0.19015-1.1434 0.27147-0.30775 0.0817-0.85193 0.24311-1.2093 0.35862-0.35737 0.1155-0.8382 0.28147-1.0688 0.36862-0.2306 0.0876-0.68596 0.27314-1.012 0.41241-0.32609 0.1397-0.84105 0.37822-1.1446 0.53001-0.30358 0.15179-0.78608 0.40866-1.073 0.57046-0.28648 0.16221-0.75562 0.44285-1.0425 0.62425-0.28648 0.18139-0.76605 0.50415-1.065 0.71766-0.29941 0.2135-0.74977 0.55252-1.0008 0.75352-0.25145 0.20141-0.67179 0.55503-0.93405 0.78645-0.26188 0.23102-0.75682 0.70098-1.0992 1.0438-0.34236 0.34277-0.85612 0.89527-1.1417 1.2277-0.28565 0.33235-0.71766 0.8682-0.95993 1.1906-0.24269 0.32234-0.63301 0.87698-0.8682 1.2326-0.23519 0.35528-0.58672 0.92782-0.7815 1.2718-0.19474 0.34402-0.47871 0.8736-0.6305 1.1772-0.15179 0.30357-0.3899 0.81855-0.52959 1.1446-0.13928 0.32609-0.32484 0.78142-0.41241 1.012-0.0876 0.2306-0.26354 0.74351-0.39115 1.1401-0.1276 0.39615-0.31984 1.0813-0.42659 1.522-0.10675 0.44036-0.19974 0.82148-0.20642 0.84653-0.008 0.03-0.35236 0.0546-1.027 0.073-0.55836 0.015-1.2868 0.0546-1.6196 0.0872-0.33235 0.0329-0.8298 0.0905-1.105 0.12802-0.27522 0.0375-0.79103 0.12427-1.1468 0.19307-0.35528 0.0684-0.98415 0.21017-1.397 0.314-0.41283 0.10425-1.0788 0.29816-1.4804 0.43077-0.40115 0.13302-1.0112 0.35403-1.3552 0.49164-0.34403 0.13761-0.87735 0.36612-1.1855 0.50748-0.30774 0.14136-0.84232 0.40908-1.1884 0.59506-0.34569 0.18599-0.8724 0.48706-1.1705 0.66929-0.29816 0.18222-0.74852 0.47329-1.0008 0.64718-0.25229 0.17347-0.64635 0.45661-0.8757 0.62884-0.22935 0.17263-0.5763 0.44493-0.77145 0.60548-0.19474 0.16054-0.5888 0.50165-0.8757 0.7581-0.28648 0.25645-0.77438 0.72683-1.0842 1.0454-0.30941 0.31859-0.7548 0.80438-0.9891 1.0792-0.23435 0.2748-0.58714 0.70598-0.78353 0.95827-0.1964 0.25229-0.57921 0.7869-0.85027 1.1884-0.27147 0.40116-0.64677 0.99248-0.83483 1.3136-0.18765 0.32109-0.47913 0.85568-0.6476 1.1884-0.16888 0.33235-0.41866 0.85778-0.55544 1.1676-0.13678 0.30942-0.33777 0.79733-0.44702 1.0842-0.10926 0.28648-0.25354 0.68055-0.32067 0.8757-0.0667 0.19474-0.21393 0.67846-0.32693 1.0742-0.11301 0.39615-0.27105 1.025-0.35111 1.3982-0.0801 0.3728-0.19307 0.9687-0.25062 1.3235-0.0575 0.35487-0.13469 0.91695-0.1718 1.2497-0.0425 0.37697-0.0759 1.1392-0.0897 2.0258-0.0133 0.89153-0.004 1.6609 0.0263 2.0642 0.0267 0.35362 0.0863 0.94283 0.13261 1.3094 0.0463 0.36654 0.13094 0.91988 0.18807 1.2302 0.0567 0.31025 0.16097 0.8169 0.23144 1.1267 0.0705 0.30983 0.23018 0.9099 0.35528 1.3344 0.12468 0.42451 0.34945 1.0976 0.49873 1.4966 0.1497 0.39866 0.38198 0.97373 0.51625 1.2777 0.13469 0.30358 0.36696 0.7965 0.51625 1.0946 0.14929 0.29815 0.41491 0.79312 0.59047 1.0992 0.17514 0.30649 0.56879 0.9324 0.87488 1.3911 0.30607 0.4587 0.71765 1.0404 0.91447 1.2927 0.19724 0.25228 0.54294 0.67471 0.76853 0.93825 0.2256 0.26354 0.62383 0.70306 0.88485 0.97665 0.26146 0.27313 0.70765 0.7114 0.99202 0.97372 0.28482 0.26229 0.72558 0.64969 0.97995 0.86071 0.25479 0.211 0.65052 0.52458 0.8799 0.69722 0.22935 0.17222 0.62342 0.45536 0.8757 0.62883 0.25229 0.17389 0.70265 0.46496 1.0008 0.64719 0.29816 0.18222 0.82485 0.4833 1.1705 0.66928 0.34611 0.18599 0.8715 0.4487 1.1676 0.58422 0.29649 0.13553 0.78315 0.34528 1.0813 0.46662 0.29816 0.12093 0.77228 0.30149 1.0534 0.40157 0.28105 0.0997 0.76897 0.25563 1.0842 0.34653 0.31525 0.0905 0.76935 0.21434 1.0091 0.2748 0.24019 0.0605 0.65302 0.15387 0.9174 0.20767 0.2648 0.0538 0.6597 0.12719 0.87735 0.16346 0.2181 0.0359 0.61216 0.093 0.8757 0.12636 0.26355 0.0334 0.7235 0.0847 1.0216 0.11384 0.33069 0.0329 1.1034 0.0525 1.9808 0.0513 1.0392-0.002 1.6296-0.0217 2.1267-0.0725 0.37822-0.0388 0.94913-0.10884 1.2681-0.15513 0.31942-0.0467 0.81645-0.13218 1.105-0.18973 0.28898-0.058 0.8628-0.19016 1.2756-0.29441 0.41283-0.10383 1.1072-0.30732 1.5429-0.45202 0.43577-0.14429 1.0454-0.36571 1.3552-0.49164 0.30983-0.12635 0.81443-0.34403 1.1222-0.48414 0.30733-0.14011 0.82358-0.39782 1.1468-0.57254 0.32318-0.17514 0.8223-0.45912 1.1088-0.63176 0.2869-0.17222 0.70932-0.43951 0.93953-0.59339 0.22976-0.15429 0.68012-0.47621 1.0008-0.71599 0.32026-0.23935 0.82897-0.64426 1.1301-0.89902 0.30107-0.25521 0.81855-0.72684 1.15-1.0484 0.33192-0.32193 0.8019-0.80603 1.0446-1.0767 0.24269-0.27022 0.56628-0.64176 0.71932-0.82523 0.15262-0.18348 0.46037-0.57754 0.6843-0.8757 0.22351-0.29815 0.55711-0.76725 0.74059-1.0425 0.18389-0.27522 0.47872-0.74017 0.6551-1.0329 0.1764-0.29273 0.48748-0.85567 0.69139-1.251 0.20392-0.39532 0.48372-0.97537 0.62175-1.289 0.13844-0.314 0.37363-0.8982 0.52291-1.2986 0.14929-0.40074 0.35737-1.0162 0.46246-1.3686 0.10508-0.35236 0.23561-0.819 0.28982-1.0366 0.0542-0.21809 0.13051-0.54168 0.1693-0.71932l0.07-0.32318h0.54919c0.30191 0 0.849-0.0196 1.2155-0.043 0.36654-0.0238 0.95745-0.0797 1.3127-0.12385 0.3557-0.0442 0.90908-0.12843 1.2302-0.18723 0.32109-0.0588 0.92535-0.19099 1.3432-0.29398 0.41741-0.10259 1.0554-0.2819 1.4178-0.39866 0.36195-0.11676 1.0433-0.36404 1.5133-0.55044 0.47038-0.18598 1.3148-0.56754 1.8765-0.84817 0.56212-0.28065 1.374-0.72267 1.8048-0.98205 0.43118-0.25938 1.0971-0.69097 1.4804-0.95865 0.38364-0.26813 0.95993-0.69765 1.281-0.95453 0.32109-0.25687 0.80895-0.66886 1.0842-0.91492 0.27522-0.24603 0.81938-0.77393 1.2093-1.1726 0.3899-0.39907 0.91283-0.96907 1.1622-1.2668 0.24937-0.29816 0.65052-0.80438 0.89153-1.1254 0.24102-0.32109 0.59256-0.81855 0.78142-1.105 0.18891-0.2869 0.46163-0.7185 0.60633-0.9591 0.14469-0.24103 0.44618-0.7944 0.67011-1.2302 0.22393-0.43577 0.50957-1.027 0.63426-1.3136 0.12468-0.2869 0.33944-0.82148 0.47705-1.1884 0.13761-0.36696 0.32859-0.92738 0.4245-1.2456 0.0959-0.31817 0.24937-0.88778 0.34111-1.2656 0.0917-0.3778 0.22059-1.0091 0.28648-1.4024 0.0659-0.39323 0.14887-0.9687 0.18389-1.2781 0.035-0.30983 0.0859-0.93825 0.11259-1.397 0.0292-0.49874 0.038-1.2072 0.0217-1.7623-0.0146-0.5104-0.0551-1.2235-0.0897-1.5846-0.0342-0.36112-0.1005-0.91905-0.1472-1.2401-0.0467-0.32109-0.13219-0.82778-0.18974-1.1259-0.0575-0.29816-0.18681-0.87195-0.28773-1.2752-0.1005-0.40324-0.29857-1.088-0.43993-1.522-0.14137-0.4341-0.36571-1.0612-0.49832-1.3936-0.1326-0.33277-0.35653-0.85815-0.49748-1.1676-0.14095-0.30983-0.37029-0.77895-0.50957-1.0425-0.1397-0.26396-0.36655-0.6768-0.50457-0.9174-0.13803-0.24103-0.44494-0.73434-0.68222-1.0963-0.23769-0.36195-0.59589-0.87817-0.79605-1.1468-0.20058-0.26854-0.59213-0.76057-0.87067-1.093-0.27814-0.33277-0.75188-0.86025-1.0525-1.1726-0.30065-0.31233-0.79312-0.79102-1.0942-1.0634-0.30149-0.2723-0.80985-0.70473-1.1296-0.96075-0.31983-0.25603-0.8478-0.65135-1.1734-0.87862-0.32526-0.22727-0.78855-0.53585-1.0296-0.68597-0.2406-0.15012-0.66303-0.40115-0.93825-0.55711-0.27522-0.15638-0.85695-0.45704-1.2927-0.66845-0.43576-0.21142-1.0759-0.49832-1.4228-0.63759-0.34653-0.13928-0.90945-0.34862-1.251-0.46496-0.34111-0.11634-0.9207-0.29356-1.2877-0.39406-0.36696-0.10009-0.92032-0.23853-1.2302-0.30775-0.30941-0.0688-0.85357-0.17264-1.2093-0.23102-0.35528-0.058-0.89947-0.13427-1.2093-0.16888-0.30941-0.0346-0.8724-0.0821-1.251-0.10592-0.37821-0.0233-1.0446-0.0388-1.4804-0.0346zm0.3336 9.396c0.55169 0.008 1.1788 0.0421 1.4766 0.0809 0.2848 0.0367 0.76057 0.11426 1.0575 0.17223 0.2969 0.058 0.80235 0.18056 1.1234 0.27271 0.32108 0.0922 0.81149 0.25271 1.09 0.35696 0.27856 0.10425 0.77146 0.31608 1.0954 0.47079 0.32401 0.15512 0.77438 0.39031 1.0008 0.52291 0.22644 0.13261 0.62801 0.38739 0.89153 0.56546 0.26396 0.17847 0.68596 0.48955 0.93825 0.69096 0.25228 0.20142 0.73141 0.63927 1.0646 0.97245 0.33317 0.33318 0.79687 0.84443 1.03 1.1359 0.23352 0.29148 0.55378 0.72307 0.71224 0.9591 0.15846 0.23602 0.40657 0.6355 0.55168 0.8874 0.14512 0.25186 0.3703 0.68346 0.5004 0.9591 0.13011 0.27522 0.31275 0.69764 0.40617 0.9387 0.0934 0.24061 0.24644 0.69097 0.34026 1.0008 0.0934 0.30941 0.2256 0.83482 0.29357 1.1676 0.0679 0.33235 0.15346 0.83902 0.19015 1.1259 0.0371 0.28648 0.0776 0.90652 0.0905 1.3774 0.0142 0.51542 0.004 1.1008-0.0263 1.4712-0.0271 0.33819-0.0767 0.79733-0.10968 1.0204-0.0329 0.22267-0.0992 0.58338-0.14761 0.80145-0.0479 0.21767-0.14345 0.59297-0.21226 0.834-0.0688 0.24061-0.21058 0.66303-0.31441 0.93825-0.10384 0.27522-0.30525 0.74434-0.44702 1.0425-0.14221 0.29815-0.40241 0.78105-0.57839 1.0733-0.17639 0.2919-0.43701 0.69556-0.57879 0.89655-0.1422 0.201-0.40783 0.55295-0.59048 0.78233-0.18264 0.22935-0.66219 0.74643-1.0658 1.1492-0.40324 0.40324-0.92115 0.88193-1.1505 1.065-0.22935 0.18265-0.54836 0.42785-0.7089 0.54502-0.16054 0.11718-0.47955 0.3336-0.7089 0.4808-0.22935 0.14721-0.56712 0.35362-0.7506 0.45828-0.18348 0.10467-0.59631 0.32151-0.9174 0.48206-0.32109 0.16096-0.84652 0.39573-1.1676 0.5225-0.32109 0.12677-0.74309 0.28022-0.93825 0.34152-0.19474 0.0613-0.57963 0.16638-0.85485 0.23394-0.27522 0.0676-0.75353 0.16097-1.0634 0.20725-0.32901 0.0496-0.90277 0.0955-1.3811 0.11008l-0.81772 0.025-0.0717-0.32901c-0.0396-0.18139-0.11634-0.5079-0.17055-0.72558-0.0542-0.21809-0.18473-0.68429-0.28982-1.0366-0.10509-0.35237-0.31316-0.96788-0.46245-1.3686-0.14929-0.40032-0.38197-0.97785-0.51708-1.2836-0.13511-0.30524-0.36821-0.79942-0.5175-1.0976-0.14928-0.29815-0.41575-0.79312-0.5913-1.0992-0.17598-0.30649-0.51583-0.85612-0.756-1.2214-0.2402-0.3653-0.62091-0.90945-0.84653-1.2093-0.2256-0.29982-0.53501-0.69514-0.68763-0.87863-0.15304-0.18348-0.47663-0.55503-0.71932-0.82522-0.2427-0.27063-0.70974-0.75225-1.0383-1.0705-0.32819-0.31817-0.82695-0.77392-1.1084-1.0125-0.2819-0.23852-0.68097-0.56545-0.8874-0.72683-0.20642-0.16138-0.60966-0.45745-0.89655-0.65803-0.28648-0.20058-0.76523-0.51624-1.0634-0.70139-0.29816-0.18556-0.81398-0.48664-1.1468-0.6697-0.33235-0.18306-0.8202-0.43452-1.0838-0.55878-0.26355-0.12427-0.48665-0.2331-0.4954-0.24186-0.008-0.009 0.045-0.2748 0.11968-0.59131 0.0743-0.31609 0.22476-0.84735 0.33443-1.1797 0.10967-0.33276 0.29607-0.8298 0.41408-1.105 0.11843-0.27522 0.33235-0.72558 0.47621-1.0008 0.14387-0.27522 0.38198-0.69388 0.52959-0.9303 0.14763-0.23685 0.41617-0.63092 0.59757-0.8757 0.18097-0.24519 0.48372-0.62508 0.67262-0.84442 0.18932-0.21893 0.51958-0.57421 0.73433-0.789 0.21476-0.21518 0.57797-0.55211 0.8073-0.74894 0.22935-0.19682 0.61466-0.50165 0.85613-0.67762 0.24144-0.17556 0.65427-0.45287 0.9174-0.61633 0.26312-0.16346 0.6943-0.40699 0.95782-0.54127 0.26396-0.13427 0.68597-0.33193 0.93825-0.43951 0.25229-0.10717 0.70724-0.27856 1.0112-0.37989 0.30441-0.10175 0.7827-0.24103 1.0638-0.30983 0.28063-0.0688 0.7189-0.16138 0.9741-0.206 0.25479-0.0446 0.66762-0.1005 0.9174-0.12468 0.24936-0.0242 0.51958-0.0513 0.59964-0.0605 0.0805-0.01 0.57755-0.0109 1.105-0.003zm-23.435 18.766c0.53501 0.008 1.1839 0.0429 1.4674 0.0792 0.27981 0.0363 0.64552 0.0922 0.81315 0.12427 0.16764 0.0325 0.39532 0.098 0.50624 0.14595 0.11092 0.0475 0.34528 0.12259 0.52125 0.16638 0.17598 0.0442 0.42326 0.0934 0.54919 0.10967 0.12635 0.0163 0.417 0.0947 0.64593 0.17431 0.22894 0.0796 0.66804 0.25645 0.97493 0.3924 0.30732 0.13594 0.7481 0.35236 0.9795 0.48038 0.23184 0.12844 0.60548 0.34819 0.83107 0.48872 0.22518 0.14053 0.61967 0.41325 0.87653 0.6059 0.25645 0.19266 0.66552 0.52459 0.90862 0.73851 0.24353 0.21351 0.63384 0.58839 0.86737 0.83318 0.23395 0.2452 0.58506 0.64468 0.78061 0.88777 0.19515 0.24353 0.50123 0.65844 0.67929 0.92243 0.17847 0.26354 0.42201 0.64552 0.54126 0.84862 0.11885 0.20308 0.31025 0.55587 0.42493 0.78398 0.11425 0.2281 0.30024 0.63926 0.41283 0.91365 0.113 0.27439 0.2798 0.7285 0.37113 1.0091 0.0909 0.28065 0.21517 0.70557 0.27522 0.94448 0.0605 0.23894 0.15638 0.69848 0.21308 1.0216 0.0813 0.46287 0.11301 0.84817 0.14888 1.8177 0.0342 0.92197 0.0334 1.3702-0.003 1.7885-0.0267 0.30733-0.0938 0.82523-0.14887 1.151-0.0554 0.32567-0.1497 0.78772-0.21016 1.0262-0.0601 0.23852-0.18432 0.66345-0.27522 0.9441-0.0913 0.28064-0.25813 0.73475-0.37113 1.0091-0.11259 0.27439-0.29858 0.68555-0.41284 0.91366-0.11467 0.22809-0.30608 0.58088-0.42492 0.78397-0.11926 0.20308-0.36279 0.58505-0.54126 0.84862-0.17807 0.26355-0.48873 0.68597-0.69014 0.93825-0.20141 0.25229-0.63926 0.73226-0.97245 1.0667-0.3336 0.33443-0.81817 0.77977-1.0767 0.98909-0.25895 0.20976-0.64343 0.50166-0.85485 0.64886-0.21142 0.14678-0.56253 0.37572-0.7806 0.50791-0.21767 0.1326-0.64927 0.36779-0.9591 0.5225s-0.73183 0.35153-0.93825 0.43702c-0.20641 0.0855-0.58963 0.22768-0.85192 0.31608s-0.64676 0.20684-0.85485 0.26355c-0.20808 0.0563-0.61257 0.14886-0.89948 0.20599-0.28647 0.0571-0.76522 0.13678-1.0634 0.17681-0.40157 0.0542-0.83355 0.0734-1.668 0.0742-0.68554 0.00042-1.289-0.02-1.5429-0.0529-0.22935-0.0296-0.62967-0.0901-0.8895-0.13386-0.25937-0.0442-0.70056-0.13719-0.97995-0.20684-0.27897-0.0692-0.78645-0.22059-1.1272-0.33526-0.34069-0.1151-0.84735-0.31025-1.1259-0.4341-0.27855-0.12344-0.72057-0.34028-0.98243-0.48122-0.26187-0.14136-0.65552-0.36988-0.87442-0.50748-0.21893-0.13804-0.60674-0.40616-0.86153-0.59548-0.25479-0.18974-0.66011-0.51458-0.9003-0.72183s-0.63717-0.58631-0.88192-0.84195c-0.24479-0.25563-0.60632-0.66512-0.80318-0.91073-0.19682-0.24519-0.50415-0.66178-0.68221-0.92535-0.17847-0.26354-0.422-0.64552-0.54126-0.84862-0.11885-0.20308-0.31025-0.55587-0.42493-0.78398-0.11426-0.2281-0.30024-0.63926-0.41283-0.91365-0.113-0.27439-0.2798-0.7285-0.37113-1.0091-0.0825-0.28125-0.21-0.699-0.2625-0.9285-0.0575-0.22935-0.14345-0.63301-0.19015-0.89655-0.0471-0.26355-0.11343-0.7235-0.14803-1.0212-0.0388-0.3336-0.063-0.91155-0.0625-1.5012 0.00041-0.56337 0.0254-1.1834 0.0613-1.5016 0.0334-0.29816 0.0901-0.71099 0.12594-0.9174 0.0355-0.20642 0.11967-0.60423 0.18723-0.88365 0.0676-0.27981 0.19932-0.74393 0.29315-1.0316 0.0934-0.28773 0.2623-0.74768 0.3753-1.0221 0.11259-0.27439 0.29857-0.68554 0.41283-0.91365 0.11467-0.2281 0.30608-0.58088 0.42493-0.78397 0.11925-0.20308 0.36279-0.58506 0.54126-0.84863 0.17806-0.26396 0.48873-0.68596 0.68972-0.93825 0.20141-0.25228 0.64843-0.74101 0.9933-1.0863 0.34528-0.34528 0.81525-0.77812 1.0446-0.9612 0.22935-0.18348 0.57629-0.44827 0.77145-0.58839 0.19516-0.14053 0.51374-0.35362 0.7089-0.47413s0.55795-0.32901 0.80692-0.46329c0.24895-0.13386 0.68514-0.34653 0.96908-0.47246 0.28398-0.12593 0.7656-0.314 1.0696-0.41825s0.76898-0.24561 1.0325-0.31442c0.26354-0.0684 0.72349-0.1693 1.0216-0.22351 0.29815-0.0546 0.74851-0.11968 1.0008-0.14512 0.25228-0.025 0.53376-0.053 0.6255-0.0621 0.0917-0.009 0.59839-0.01 1.1259-0.002zm-75.525 42.226c-5.4977 0.003-10.052 0.0129-10.12 0.0213-0.0688 0.008-0.31275 0.0442-0.5421 0.0797-0.22935 0.0354-0.63259 0.12135-0.89655 0.19057-0.26354 0.0692-0.65761 0.19224-0.8757 0.27313-0.21767 0.0813-0.63426 0.26813-0.9249 0.41534-0.29107 0.14761-0.67512 0.36362-0.85403 0.48038-0.17888 0.11676-0.47496 0.32609-0.6576 0.46537-0.18306 0.13928-0.53585 0.44953-0.7848 0.68972-0.24854 0.24019-0.59006 0.60716-0.75893 0.81525-0.16888 0.2085-0.43159 0.56629-0.58422 0.7956-0.1522 0.22935-0.39657 0.66095-0.54252 0.9591-0.14637 0.29816-0.33235 0.72308-0.41408 0.9441-0.0813 0.22101-0.19599 0.58673-0.25479 0.81315-0.0588 0.22602-0.14846 0.63634-0.19891 0.91155l-0.0922 0.5004-0.0129 26.458c-0.009 19.067 0 26.604 0.0329 26.98 0.0254 0.28648 0.093 0.75562 0.15012 1.0425 0.0575 0.28648 0.18848 0.77437 0.29148 1.0842 0.103 0.30941 0.29107 0.77813 0.41742 1.0417 0.12635 0.26312 0.32526 0.63842 0.44244 0.83399 0.11676 0.19516 0.37071 0.56713 0.56461 0.8265 0.19349 0.25896 0.55211 0.67304 0.7965 0.91988 0.24437 0.24686 0.59465 0.56795 0.77813 0.7139 0.18348 0.14553 0.53084 0.3949 0.77145 0.55419 0.24103 0.15929 0.69514 0.41659 1.0091 0.57212 0.31442 0.15555 0.83528 0.36947 1.1576 0.47497 0.32275 0.10592 0.81607 0.23852 1.0967 0.29482 0.28065 0.0563 0.74518 0.12301 1.0316 0.14887 0.36821 0.0326 2.8294 0.0421 8.382 0.0313l7.8608-0.015 0.417-0.0726c0.22935-0.0396 0.60465-0.11968 0.834-0.17722 0.22935-0.0575 0.58588-0.16263 0.7923-0.23352 0.20641-0.0705 0.54418-0.20266 0.7506-0.29316 0.20641-0.0909 0.54418-0.2602 0.7506-0.37613 0.20641-0.11592 0.50791-0.30024 0.67012-0.40949s0.44368-0.31609 0.6255-0.45995c0.18181-0.14345 0.50623-0.43118 0.72057-0.63968 0.21476-0.20809 0.53751-0.56128 0.71724-0.78397 0.18015-0.2231 0.41951-0.5421 0.53251-0.70932 0.11259-0.1668 0.29899-0.47371 0.4145-0.68097 0.11509-0.20766 0.29398-0.57337 0.39781-0.81315 0.10342-0.23935 0.24603-0.61382 0.3165-0.83152 0.0705-0.21809 0.16638-0.55795 0.21267-0.75563 0.0463-0.19766 0.11009-0.5446 0.1422-0.77145 0.0317-0.22643 0.18473-2.0821 0.33986-4.1233 0.15554-2.0412 0.2969-3.7276 0.31441-3.748 0.0175-0.02 1.5483 0.61258 3.4023 1.4057 1.8536 0.79312 3.7268 1.5859 4.1625 1.7618 0.43577 0.17556 1.2802 0.50332 1.8765 0.72767 0.59631 0.22476 1.5908 0.5863 2.2101 0.80355 0.61925 0.21726 1.567 0.53626 2.1058 0.70932 0.53918 0.17305 1.3178 0.41783 1.7306 0.54418 0.41283 0.12594 1.1446 0.34236 1.6263 0.48039 0.48164 0.13844 1.223 0.34694 1.6472 0.46328 0.42451 0.11635 1.4753 0.3874 2.3352 0.60215 0.86025 0.21517 2.0237 0.49456 2.5854 0.62174 0.56212 0.12678 1.472 0.32485 2.0224 0.43953 0.55044 0.11467 1.4983 0.30482 2.1058 0.422 0.60799 0.11718 1.8182 0.33318 2.6896 0.47955 0.8715 0.14678 2.1008 0.34194 2.7314 0.4341 0.63092 0.0921 1.5784 0.2231 2.1058 0.29148 0.52751 0.0684 1.2877 0.16305 1.6888 0.20975 0.40157 0.0471 1.1897 0.13219 1.7514 0.18932 0.56212 0.0571 1.4533 0.14136 1.9808 0.18723 0.52751 0.0455 1.5129 0.12009 2.1892 0.16597 0.6768 0.0454 1.6242 0.10258 2.1058 0.12677 0.48164 0.0242 1.3732 0.0621 1.9808 0.0847 0.60799 0.0225 2.1746 0.0409 3.482 0.0409 1.3073 0 2.8369-0.0188 3.3986-0.0412 0.56212-0.023 1.3406-0.0609 1.7306-0.0842 0.3899-0.0238 1.075-0.0713 1.522-0.1055 0.44745-0.0342 1.2072-0.0997 1.6888-0.14512 0.48164-0.0459 1.2794-0.13093 1.7722-0.18931 0.4929-0.0583 1.3657-0.17181 1.939-0.25188 0.57338-0.0801 1.4462-0.21058 1.939-0.29022 0.4929-0.0796 1.3565-0.23019 1.9182-0.33444 0.56212-0.10424 1.3878-0.26438 1.8348-0.3557 0.44745-0.0913 1.2635-0.26688 1.814-0.39073 0.55044-0.12343 1.3574-0.31233 1.7931-0.41908 0.43577-0.10676 1.2427-0.31317 1.7931-0.45829 0.55044-0.14511 1.3761-0.36988 1.8348-0.49915 0.4587-0.12926 1.2093-0.34736 1.668-0.48538 0.4587-0.13761 1.3594-0.417 2.0016-0.6205 0.64218-0.20392 1.6555-0.53793 2.2518-0.74309 0.59631-0.20475 1.5842-0.55294 2.1955-0.77272 0.61132-0.22018 1.6258-0.5959 2.2539-0.83483 0.62841-0.23936 1.6951-0.65469 2.3707-0.92325 0.67554-0.26854 1.8473-0.74684 2.6042-1.0629 0.75683-0.31567 1.8736-0.78983 2.4812-1.0529 0.60799-0.26313 1.7151-0.75105 2.4603-1.0837 0.7456-0.33277 1.7869-0.8019 2.3144-1.0421 0.52751-0.2406 1.766-0.8127 2.7522-1.2723 0.98618-0.45911 2.4394-1.1392 3.2296-1.5108 0.78983-0.37155 1.768-0.8415 2.173-1.0442 0.40532-0.20307 0.98827-0.51332 1.2952-0.68971 0.30692-0.17639 0.77393-0.45745 1.0383-0.62467 0.26439-0.16763 0.68471-0.4491 0.9345-0.62633 0.24978-0.17681 0.73726-0.54794 1.0834-0.82523 0.34611-0.27688 0.96825-0.84195 1.3832-1.2556 0.41449-0.41325 0.90907-0.93953 1.0984-1.1689 0.18974-0.22936 0.47997-0.60465 0.6451-0.83401 0.16556-0.22934 0.42951-0.62258 0.58714-0.87405 0.15721-0.25144 0.40408-0.68304 0.54794-0.95909 0.14428-0.27606 0.35445-0.71808 0.46745-0.9816 0.11301-0.26397 0.2844-0.71433 0.38031-1.0008 0.0963-0.2869 0.23853-0.78398 0.31608-1.105 0.0776-0.32109 0.17973-0.84653 0.22686-1.1676 0.0476-0.32108 0.0976-0.90277 0.11217-1.2927 0.0155-0.4245 0.006-0.96824-0.0238-1.3552-0.0275-0.35571-0.0947-0.91035-0.14929-1.2326-0.0546-0.32276-0.15637-0.81315-0.22601-1.09-0.0701-0.27647-0.21434-0.7539-0.32109-1.0604-0.10676-0.30649-0.30024-0.79229-0.42993-1.0788-0.1301-0.28689-0.35486-0.72766-0.49998-0.97994-0.14512-0.25229-0.38572-0.63718-0.53501-0.85485-0.14929-0.21768-0.41409-0.57463-0.58839-0.7923-0.17472-0.21768-0.55211-0.63134-0.83903-0.91868-0.28731-0.28731-0.68137-0.64593-0.87652-0.79688-0.19474-0.15095-0.5421-0.39699-0.77145-0.5471-0.22935-0.15012-0.63635-0.38573-0.9045-0.52334-0.26855-0.13761-0.72809-0.34402-1.0216-0.45828-0.29399-0.11384-0.73309-0.26437-0.9762-0.3336-0.24311-0.0696-0.65594-0.17431-0.9174-0.23227-0.26146-0.0583-0.73809-0.14345-1.0592-0.18932-0.32109-0.0459-0.90278-0.10592-1.2927-0.13302-0.44077-0.0304-1.0796-0.0396-1.6888-0.0233-0.53877 0.0146-1.3269 0.0626-1.7514 0.10717-0.42409 0.0446-1.0904 0.13094-1.4804 0.1914-0.3899 0.0605-1.0279 0.17597-1.4178 0.25646-0.3899 0.0805-1.103 0.24686-1.5846 0.36904-0.48164 0.1226-1.1947 0.31858-1.5846 0.43576-0.3899 0.11719-1.0654 0.33652-1.5012 0.48747-0.43577 0.15055-1.221 0.42243-1.7447 0.60341-0.52375 0.18098-1.2932 0.42242-1.7097 0.53626-0.41659 0.11384-1.1889 0.309-1.7164 0.4341-0.52751 0.1251-1.3999 0.32192-1.939 0.43743-0.53876 0.1155-1.477 0.30524-2.085 0.42159-0.60757 0.11634-1.7806 0.32275-2.6062 0.4587-0.82568 0.13593-1.8952 0.30357-2.3769 0.37238-0.48164 0.0688-1.3206 0.18306-1.8644 0.25353-0.54376 0.0705-1.5571 0.19182-2.2518 0.26981-0.6943 0.0775-1.2686 0.1351-1.276 0.12801-0.007-0.008 0.0721-0.24894 0.17682-0.53709 0.10425-0.28815 0.25437-0.7731 0.33318-1.078 0.0792-0.30524 0.17305-0.70473 0.2085-0.88823 0.0355-0.18347 0.0922-0.5496 0.12593-0.81314 0.0337-0.26397 0.0738-0.77978 0.0888-1.1468 0.0163-0.39657 0.008-0.9291-0.0213-1.3131-0.0267-0.35571-0.0938-0.91118-0.14845-1.2344-0.0546-0.3236-0.14887-0.78353-0.20934-1.0221-0.0604-0.23852-0.18431-0.65594-0.2748-0.92737-0.0909-0.27147-0.26772-0.73059-0.39323-1.0204-0.12552-0.28981-0.35112-0.75225-0.50207-1.027-0.15095-0.27522-0.41241-0.70724-0.5813-0.96038-0.16888-0.25312-0.46412-0.65719-0.65636-0.89865-0.19182-0.24103-0.52625-0.62425-0.74226-0.8511-0.21642-0.22685-0.57087-0.57046-0.78727-0.76395-0.21643-0.19307-0.60132-0.50707-0.85485-0.69722-0.25354-0.19016-0.6426-0.46037-0.86445-0.59965-0.22185-0.1397-0.63468-0.37572-0.9174-0.52417-0.28273-0.14886-0.73017-0.36279-0.99375-0.4758-0.26355-0.11259-0.70932-0.28273-0.98993-0.37738-0.28064-0.0947-0.76852-0.23602-1.0842-0.31401-0.31567-0.078-0.74268-0.17138-0.94912-0.20766-0.20642-0.0363-1.1259-0.16054-2.0433-0.27606-0.9174-0.1155-2.0996-0.26688-2.6271-0.33609-0.52751-0.0692-1.6346-0.21852-2.4603-0.33194-0.82568-0.113-2.0829-0.28981-2.7939-0.39281-0.71099-0.10259-1.8556-0.27272-2.5437-0.37781-0.68805-0.10466-1.9403-0.30232-2.7822-0.43951-0.84233-0.13719-2.128-0.35279-2.8564-0.47913-0.72892-0.12635-1.6346-0.28649-2.0133-0.3557-0.37822-0.0692-1.2322-0.22935-1.8974-0.35613-0.66512-0.12676-1.6313-0.31441-2.1476-0.41741-0.51582-0.103-1.4728-0.30024-2.1267-0.43827-0.65343-0.13802-1.723-0.37071-2.3769-0.51708-0.65343-0.14636-1.5542-0.35278-2.0016-0.45828-0.44702-0.10592-1.1038-0.25562-1.4595-0.33319-0.35528-0.0775-1.0592-0.21642-1.5638-0.30816-0.50457-0.0917-1.349-0.2331-1.8765-0.31441-0.5275-0.0809-1.2406-0.18473-1.5846-0.23019-0.34402-0.0459-1.0288-0.12968-1.522-0.18681-0.49289-0.0572-1.3186-0.1422-1.8348-0.1889-0.51582-0.0463-1.3415-0.11218-1.8348-0.14554-0.49289-0.0337-1.4686-0.0834-2.1684-0.11009-0.75517-0.0292-1.8477-0.0384-2.6896-0.0233-0.77977 0.0142-1.6993 0.0455-2.0433 0.0692-0.34402 0.0242-1.0008 0.0813-1.4595 0.12677-0.4587 0.0459-1.228 0.14011-1.7097 0.20975-0.48163 0.07-1.2906 0.20933-1.7977 0.30983-0.50708 0.1005-1.2673 0.26855-1.6888 0.3728-0.42159 0.10467-1.1138 0.28773-1.5383 0.40699-0.42408 0.11927-1.4236 0.43494-2.221 0.70182l-1.4495 0.48455-0.0434-0.16972c-0.0242-0.0938-0.0888-0.33068-0.14429-0.52709-0.055-0.1964-0.18639-0.5717-0.2919-0.834-0.10508-0.26229-0.28647-0.65552-0.4024-0.87323-0.11634-0.21809-0.33318-0.58087-0.48164-0.80647-0.14886-0.2256-0.40657-0.57254-0.57295-0.77145-0.16638-0.1985-0.50666-0.55878-0.75683-0.80025-0.24825-0.243-0.56475-0.5265-0.70275-0.6315-0.13725-0.105-0.44175-0.3165-0.67575-0.4695-0.23325-0.153-0.693-0.408-1.0215-0.5655-0.32775-0.1575-0.8025-0.3555-1.0545-0.4395-0.25228-0.0838-0.64801-0.19724-0.8799-0.25187-0.23143-0.055-0.64051-0.12843-0.90907-0.16388-0.42826-0.0559-1.7143-0.063-10.484-0.0575zm0.0575 9.3345h9.198l-0.0254 0.26062c-0.0138 0.14345-0.8319 10.778-1.8182 23.633-0.98618 12.855-1.8674 24.346-1.9586 25.536-0.0913 1.1897-0.16597 2.17-0.16597 2.1788 0 0.008-3.2464 0.0154-7.2141 0.0154h-7.2142v-51.624zm32.877 4.7183c0.58505-0.003 1.5045 0.0125 2.0433 0.0355 0.53918 0.0225 1.271 0.0609 1.6263 0.0851 0.3557 0.0238 1.0592 0.0805 1.5638 0.12636 0.50457 0.0455 1.321 0.1301 1.814 0.18807 0.49331 0.0584 1.2906 0.16221 1.7722 0.23101 0.48163 0.0688 1.2043 0.18056 1.6054 0.24812 0.40157 0.0679 1.0676 0.19015 1.4804 0.27147 0.41283 0.0817 1.3419 0.28647 2.0642 0.45536 0.72266 0.16888 1.914 0.4391 2.648 0.60048 0.73392 0.16138 1.9161 0.41491 2.6271 0.56337 0.71098 0.14845 1.8277 0.37363 2.4812 0.49998 0.65386 0.12593 1.8548 0.35153 2.6688 0.50082 0.81442 0.14928 2.0808 0.37488 2.8148 0.50164 0.73392 0.12719 2.1508 0.36113 3.1484 0.52084 0.99787 0.15929 2.7055 0.42159 3.7947 0.58297 1.0896 0.16096 2.8723 0.41492 3.9615 0.56336 1.0896 0.14887 2.6563 0.35696 3.482 0.46246 0.82567 0.10508 1.9987 0.25561 2.6062 0.33443 0.60756 0.0788 1.2452 0.18223 1.4162 0.23018 0.17138 0.0476 0.47162 0.16972 0.6672 0.27189 0.19599 0.10175 0.47746 0.28398 0.62591 0.40491 0.14846 0.12093 0.36905 0.34152 0.48956 0.48997 0.12093 0.14845 0.29399 0.41158 0.38447 0.58464 0.0909 0.17305 0.21601 0.48288 0.27856 0.68804 0.0988 0.3261 0.11343 0.44661 0.11592 0.957 0.002 0.48581-0.0129 0.63843-0.0905 0.90863-0.0513 0.1789-0.16054 0.46037-0.24311 0.6255-0.0821 0.16555-0.25353 0.43744-0.3803 0.60424-0.12676 0.16721-0.34861 0.40157-0.49289 0.52125-0.14429 0.11967-0.39073 0.29481-0.54836 0.38906-0.15763 0.0947-0.45495 0.23852-0.66052 0.31984-0.20559 0.0817-0.65511 0.20724-0.99915 0.27897-0.34403 0.0722-0.94448 0.19599-1.3344 0.27605-0.3899 0.0801-1.0433 0.20058-1.4524 0.26813-0.40908 0.0676-1.1034 0.16972-1.5429 0.22685-0.43952 0.0571-1.0809 0.13177-1.4248 0.16638-0.34403 0.0342-0.85988 0.0813-1.1468 0.10425-0.28648 0.023-0.8265 0.0613-1.1993 0.0851-0.37321 0.0241-1.3844 0.0621-2.2476 0.0847-1.0396 0.0271-2.1275 0.0267-3.2209-0.00075-0.90825-0.0229-2.1484-0.0705-2.7564-0.10508-0.60757-0.035-1.5742-0.10091-2.1476-0.14637-0.57338-0.0455-1.5208-0.1301-2.1058-0.18765-0.58463-0.0575-1.382-0.14303-1.7718-0.18932-0.38948-0.0463-0.92408-0.0842-1.1884-0.0842-0.26397 0-0.63218 0.0292-0.81818 0.0647-0.18598 0.0358-0.46996 0.11009-0.63092 0.16472-0.16138 0.055-0.42743 0.16721-0.59214 0.24978-0.1643 0.0826-0.412 0.22684-0.55002 0.32067-0.13803 0.0938-0.38239 0.2944-0.54293 0.44577-0.16055 0.15138-0.40449 0.4266-0.54252 0.61132-0.13803 0.18473-0.33235 0.50499-0.43243 0.71141-0.0997 0.20641-0.21851 0.48789-0.26396 0.6255-0.045 0.13761-0.11385 0.40032-0.15263 0.5838-0.0421 0.20058-0.0721 0.54126-0.0742 0.85485-0.002 0.28647 0.0204 0.66177 0.0509 0.834 0.0304 0.1718 0.11008 0.48163 0.17722 0.68805 0.0675 0.20641 0.20433 0.52959 0.30483 0.71849s0.28565 0.47996 0.41117 0.64676 0.33777 0.40783 0.47204 0.53543c0.13386 0.1276 0.3582 0.3165 0.49832 0.4195 0.14011 0.10301 0.40406 0.26522 0.58713 0.36029 0.18265 0.0951 0.49957 0.22852 0.70431 0.29649 0.20475 0.0684 0.66303 0.17181 1.0184 0.22977 0.35571 0.0583 1.1626 0.18056 1.7931 0.27188 0.63092 0.0913 1.447 0.20392 1.814 0.25062 0.36696 0.0463 1.08 0.13135 1.5846 0.18848 0.50457 0.0575 1.2927 0.14178 1.7514 0.18765 0.4587 0.0455 1.2844 0.12093 1.8348 0.16722 0.55044 0.0463 1.3948 0.11217 1.8765 0.14636 0.48164 0.0337 1.3919 0.0901 2.0224 0.12469 0.63092 0.035 1.6159 0.0826 2.1892 0.10592 0.57338 0.0238 1.8214 0.0609 2.773 0.0834 0.9516 0.0221 2.4157 0.0404 3.2526 0.0404 0.83693 0 2.329-0.0179 3.3152-0.04 0.98618-0.0225 2.281-0.0601 2.8773-0.0842 0.59631-0.0242 1.7597-0.0813 2.5854-0.12718 0.82568-0.0455 1.8861-0.11092 2.356-0.14511 0.47038-0.0342 1.3148-0.0997 1.8765-0.14595 0.56212-0.0459 1.5942-0.1397 2.2935-0.2085 0.69973-0.0688 1.8348-0.19141 2.5228-0.27231 0.68805-0.0809 1.7389-0.21225 2.3352-0.2919 0.59631-0.0801 1.5254-0.21141 2.0642-0.2919 0.53918-0.0809 1.4303-0.22184 1.9808-0.31317 0.55044-0.0917 1.3106-0.22267 1.6888-0.29148 0.37864-0.0688 1.2135-0.22893 1.8556-0.3557 0.64218-0.12718 1.6742-0.3436 2.2935-0.4808 0.61925-0.13719 1.6234-0.37196 2.231-0.52208 0.60799-0.15012 1.3961-0.35612 1.7514-0.45787 0.3557-0.10175 1.0216-0.31358 1.4804-0.47038 0.4587-0.15721 1.1342-0.39239 1.5012-0.52333 0.36696-0.13052 0.927-0.32109 1.2448-0.42284 0.31775-0.10216 0.92782-0.27939 1.3552-0.39406 0.42784-0.11468 1.0967-0.27272 1.4866-0.35112s0.98123-0.18014 1.3136-0.22601c0.33277-0.0463 0.91493-0.10425 1.294-0.12886 0.48413-0.0317 0.85612-0.0321 1.251-0.002 0.30899 0.0242 0.69305 0.0713 0.85357 0.10551 0.16055 0.0337 0.41408 0.12259 0.56295 0.19723 0.20225 0.10133 0.32192 0.19933 0.47163 0.38615 0.11009 0.13761 0.2648 0.38155 0.34403 0.5421 0.0788 0.16054 0.18348 0.44202 0.23268 0.6255 0.0688 0.25728 0.0901 0.46203 0.093 0.89655 0.003 0.42033-0.015 0.63175-0.0705 0.834-0.0409 0.14886-0.17514 0.47829-0.29816 0.73183-0.12301 0.25354-0.34027 0.61799-0.48246 0.81023-0.14262 0.19182-0.43035 0.52625-0.63927 0.74267-0.20933 0.21684-0.5642 0.5421-0.78855 0.72266-0.22476 0.18056-0.60465 0.46037-0.84442 0.62133-0.24019 0.16097-0.66637 0.42493-0.9474 0.58589-0.28106 0.16137-0.73601 0.40282-1.0112 0.53709-0.27522 0.13428-1.251 0.59506-2.1684 1.0241-0.9174 0.42909-2.1559 1.0058-2.7522 1.281-0.59631 0.27563-1.6188 0.74476-2.2726 1.042-0.65343 0.29774-1.7718 0.80062-2.4849 1.118-0.71349 0.31692-1.8019 0.7956-2.4186 1.0638-0.61716 0.26772-1.7506 0.74977-2.5191 1.0705-0.76815 0.32067-1.8661 0.771-2.4394 1.0008-0.57337 0.22977-1.3331 0.53001-1.6888 0.6672-0.35528 0.13761-1.0967 0.41867-1.6472 0.62508-0.55044 0.206-1.4228 0.525-1.939 0.7089-0.51582 0.18348-1.379 0.48289-1.9182 0.66512-0.53876 0.18223-1.477 0.48831-2.085 0.67971-0.60756 0.1914-1.4895 0.46162-1.9599 0.60048-0.46995 0.13886-1.2393 0.35737-1.7097 0.48664-0.46995 0.12885-1.3803 0.36487-2.0224 0.52458-0.64218 0.16013-1.6271 0.39198-2.1892 0.51583-0.56169 0.12385-1.4533 0.31025-1.9808 0.41408s-1.3999 0.26438-1.939 0.35696c-0.53918 0.0922-1.3728 0.22476-1.8524 0.2944-0.47997 0.0696-1.3244 0.18139-1.8765 0.24853-0.55252 0.0671-1.3982 0.16013-1.8798 0.20642-0.48163 0.0467-1.2698 0.113-1.7514 0.14761-0.48163 0.0346-1.2039 0.0834-1.6054 0.10842-0.40115 0.0251-1.9449 0.0554-3.4306 0.0679-1.6876 0.0142-3.2126 0.005-4.0658-0.0259-0.7506-0.0263-1.6838-0.0659-2.0738-0.0876-0.38989-0.0217-1.0091-0.0592-1.3761-0.0834-0.36696-0.0238-1.0238-0.0717-1.4595-0.10634-0.43576-0.0342-1.2051-0.0997-1.7097-0.14554-0.50457-0.0455-1.424-0.13927-2.0433-0.20766-0.61924-0.0688-1.5575-0.18139-2.085-0.2502-0.5275-0.0692-1.2218-0.16305-1.5429-0.2085-0.32109-0.0455-1.0154-0.14928-1.5429-0.23143-0.5275-0.0817-1.5408-0.25062-2.2518-0.37572-0.71098-0.1251-1.9457-0.35862-2.7439-0.51917-0.7977-0.16054-1.9828-0.41283-2.6325-0.56044-0.6501-0.14804-1.6108-0.37447-2.1355-0.50374-0.52416-0.12886-1.4411-0.36529-2.0374-0.52459-0.59631-0.15971-1.4408-0.39364-1.8765-0.51958-0.43576-0.12635-1.1301-0.33276-1.5429-0.4587-0.41283-0.12593-1.2385-0.38906-1.8348-0.58463-0.59631-0.19599-1.4595-0.48789-1.9182-0.64927s-1.2472-0.44828-1.7522-0.63801c-0.50499-0.18932-1.2743-0.48872-1.7097-0.66554-0.43535-0.1768-2.9211-1.2331-5.5244-2.3473-2.603-1.1142-4.7388-2.03-4.7463-2.0354-0.007-0.005 0.45162-6.059 1.0196-13.452 0.62759-8.1638 1.05-13.454 1.0767-13.472 0.0242-0.0167 0.52251-0.22101 1.1072-0.4537 0.58506-0.23268 1.3636-0.53542 1.7306-0.67303 0.36696-0.13719 1.0971-0.39824 1.6226-0.57963 0.52542-0.1814 1.304-0.43202 1.7306-0.55628 0.42618-0.12469 1.0754-0.30191 1.4424-0.39406 0.36696-0.0917 0.99788-0.23269 1.402-0.31275 0.40407-0.0805 1.0609-0.19308 1.4595-0.25062 0.39865-0.0571 1.025-0.13344 1.3919-0.16889 0.36696-0.0355 0.94868-0.0801 1.2927-0.0992 0.34403-0.0188 1.1038-0.0371 1.6888-0.0404z"/>
 </g>

</svg>